<svg width="341" height="374" viewBox="0 0 341 374" fill="none" xmlns="http://www.w3.org/2000/svg">
<path d="M234.641 78.1094C231.767 74.8415 230.035 77.7157 228.735 80.4127C228.086 82.3813 225.192 79.5465 222.416 82.3813C220.31 84.4877 218.597 87.3422 219.542 87.9328C220.487 88.5234 223.479 85.2555 224.326 84.8814C226.294 84.1137 229.897 86.9879 232.574 81.4167C235.822 85.0586 240.449 79.9008 242.161 77.9716C243.874 76.0423 244.268 72.991 241.571 74.7233C236.059 78.1881 235.744 79.2118 234.641 78.1094Z" fill="#F6BD60"/>
<path d="M180.584 149.786C189.03 145.849 234.643 130.808 242.891 128.328C248.049 126.792 245.372 124.391 238.954 126.025C228.402 128.328 186.825 142.128 178.202 146.144C166.686 151.518 162.099 157.463 165.741 173.547C170.918 197.17 182.986 226.444 187.77 231.444C190.27 233.925 191.805 232.783 189.502 228.57C184.896 220.321 173.97 193.863 169.56 172.779C166.351 158.231 170.82 154.589 180.584 149.786Z" fill="#F6BD60"/>
<path d="M118.688 279.735C120.224 263.061 144.28 261.919 144.28 261.919C145.619 256.741 160.955 201.148 161.998 193.017C163.534 181.205 159.321 183.804 154.714 179.237C153.179 177.701 153.001 171.185 150.108 170.22C147.214 169.256 142.843 173.666 140.914 169.65C138.985 165.634 149.537 137.837 147.627 134.962C145.718 132.088 142.076 132.994 142.076 128.446C142.076 123.466 138.434 124.411 137.469 121.93C136.13 118.288 144.182 103.15 135.933 104.685C134.201 105.059 131.15 107.362 128.453 106.792C125.756 106.221 127.882 101.791 125.972 100.649C124.063 99.5076 121.366 101.22 119.633 100.453C116.956 99.5076 116.582 93.9364 113.885 93.1686C111.188 92.4009 107.763 97.1059 104.691 95.4719C101.62 93.838 101.384 87.4596 99.4155 86.6328C96.187 85.2351 93.2931 90.5701 88.8834 90.0976C86.2061 89.7039 85.2415 85.0973 83.135 85.491C78.5285 86.4556 72.977 115.394 69.9059 116.339C68.3704 116.733 67.9373 115.394 66.4608 116.162C64.1575 117.304 58.5863 136.478 55.909 135.848C53.2317 135.218 58.9801 113.819 55.535 110.945C53.2317 108.977 50.1606 112.658 47.2865 111.142C44.9832 109.981 44.806 105.374 42.6996 104.803C40.5931 104.232 39.6285 106.142 36.9512 105.197C34.2739 104.252 34.6479 100.964 32.1478 100.59C29.6476 100.216 27.738 103.09 25.0607 102.323C23.7938 101.744 22.7361 100.79 22.0315 99.5883C21.3269 98.387 21.0099 96.9977 21.1235 95.6097C19.6076 105.453 32.2462 136.616 36.6559 149.274C42.798 143.723 51.2237 140.455 68.4688 149.274C72.6817 152.523 79.5915 170.161 68.2916 184.158C63.6851 189.907 60.5943 192.033 68.8625 193.155C70.3784 193.391 70.3981 195.655 72.3076 195.655C74.2172 195.655 77.682 193.923 78.6269 194.316C79.5718 194.71 78.2529 199.297 79.3947 199.868C80.5365 200.439 83.3319 199.494 84.9659 200.262C86.5998 201.029 86.1274 203.293 87.6432 203.904C89.159 204.514 92.6238 202.368 93.9625 202.939C95.3011 203.51 95.9311 204.081 97.2304 204.671C98.5297 205.262 101.168 204.849 102.585 205.242C104.002 205.636 103.747 208.294 104.888 208.687C106.424 209.239 108.826 207.309 110.066 207.723C111.798 208.274 111.798 211.188 113.314 211.188C116.956 211.365 116.188 213.471 117.547 214.062C119.83 215.203 122.35 211.975 124.24 211.188C127.724 209.711 123.866 214.829 125.972 215.4C133.059 217.113 141.879 194.513 134.398 179.355C149.93 187.229 150.895 199.041 146.485 209.652C140.737 223.629 134.398 226.897 125.775 225.165C122.901 224.594 92.6238 217.113 51.2237 197.604C55.4365 209.691 59.8463 222.92 64.256 234.22C66.176 236.091 67.6413 238.377 68.5389 240.902C69.4365 243.428 69.7425 246.126 69.4334 248.788C74.4141 262.391 77.682 271.014 79.3947 273.888C88.0172 288.357 106.995 284.912 118.688 279.735Z" fill="#F6BD60"/>
<path d="M324.527 283.495C321.653 281.389 315.707 277.353 313.601 276.015C313.798 271.605 313.227 264.892 311.12 262.608C309.821 261.033 299.072 251.387 293.856 250.521C288.931 249.988 283.953 250.247 279.111 251.289C274.504 252.627 266.846 261.644 265.33 265.069C263.598 268.908 264.937 282.905 267.043 286.35C269.149 289.795 281.04 299.382 285.253 299.382C288.434 299.254 291.587 298.739 294.643 297.847C305.569 304.56 307.498 307.69 313.424 308.202C323.385 309.088 335.079 291.232 324.527 283.495ZM308.246 265.089C309.388 266.25 309.959 271.605 309.762 275.247C294.171 264.518 302.596 278.062 297.694 256.466C301.406 259.123 304.932 262.03 308.246 265.168V265.089ZM308.817 279.283C306.536 283.783 303.77 288.021 300.569 291.921C296.641 290.185 292.966 287.927 289.643 285.208C293.278 281.794 296.324 277.803 298.659 273.396C302.266 274.982 305.675 276.983 308.817 279.361V279.283ZM270.488 284.263C268.185 281.763 267.791 268.731 268.953 266.428C270.291 263.553 277.181 255.895 280.252 254.931C284.531 254.002 288.927 253.743 293.285 254.163C294.446 258.1 296.356 267.943 295.785 270.64C295.214 273.337 288.107 282.334 286.395 283.102C280.252 284.519 271.827 285.877 270.488 284.342V284.263ZM285.056 295.563C283.52 295.366 278.146 291.724 274.307 288.476C278.239 288.402 282.154 287.954 286.001 287.137C288.84 289.846 292.072 292.109 295.588 293.85C292.156 294.843 288.623 295.444 285.056 295.642V295.563ZM309.959 303.438C312.29 302.636 314.422 301.342 316.208 299.644C317.995 297.945 319.395 295.882 320.314 293.594C321.377 290.11 319.566 289.657 318.581 290.72C316.711 292.866 313.798 299.146 305.549 300.878C303.581 299.54 300.962 297.433 299.643 296.666C301.39 296.22 302.94 295.209 304.053 293.791C307.379 289.659 310.214 285.153 312.498 280.365C312.872 283.24 311.337 288.023 308.089 292.059C307.848 292.265 307.688 292.549 307.635 292.861C307.582 293.173 307.64 293.494 307.799 293.768C307.958 294.042 308.208 294.251 308.506 294.36C308.803 294.468 309.129 294.469 309.427 294.362C312.695 293.87 315.747 287.256 316.14 282.551C321.062 286.133 329.389 289.539 322.46 299.028C317.932 304.835 313.995 305.15 310.057 303.497L309.959 303.438Z" fill="#F6BD60"/>
<path d="M120.402 296.606C119.635 296.035 118.434 296.409 119.261 298.713C120.087 301.016 124.635 303.693 127.312 305.426C129.419 306.764 129.99 306.764 129.419 310.013C123.237 343.479 126.17 344.897 115.638 338.203C114.674 337.613 113.335 337.613 113.67 339.148C114.421 340.869 115.649 342.339 117.208 343.385C118.767 344.431 120.592 345.01 122.469 345.054C128.375 345.428 127.903 339.266 133.021 310.564C134.537 302.374 129.084 305.288 120.402 296.606Z" fill="#F6BD60"/>
<path d="M223.439 72.3605C224.298 72.8306 225.285 73.0098 226.254 72.8714C227.223 72.733 228.121 72.2844 228.814 71.5927C231.117 69.0926 230.546 67.6555 227.081 69.2895C226.184 69.396 225.275 69.3292 224.404 69.0926C223.98 68.9669 223.534 68.9335 223.097 68.9945C222.659 69.0556 222.239 69.2098 221.866 69.4468C221.493 69.6837 221.175 69.9978 220.934 70.368C220.692 70.7382 220.533 71.1558 220.467 71.5927C212.789 68.6004 214.561 74.7622 220.289 75.2347C220.887 75.2717 221.483 75.1268 221.997 74.819C222.511 74.5111 222.92 74.0549 223.17 73.5102C223.335 73.148 223.427 72.7582 223.439 72.3605Z" fill="#F6BD60"/>
<path d="M303.071 201.916C302.362 198.274 294.822 173.371 289.842 164.926C287.735 161.481 283.326 160.142 285.629 165.32C288.68 172.033 298.661 197.33 299.232 202.507C299.803 207.291 297.893 208.826 289.645 213.236C284.093 216.287 231.571 234.497 218.932 237.568C208.183 240.068 204.167 232.588 201.667 227.41C198.793 221.859 184.619 187.171 181.745 174.139C179.638 164.552 179.441 160.713 189.029 156.874C231 139.432 260.627 135.003 262.616 130.81C264.092 127.719 231.767 135.416 187.296 153.429C175.032 158.41 175.799 164.749 177.906 174.907C180.78 188.313 195.151 223.394 198.025 228.946C200.328 233.355 204.541 242.372 214.699 241.781C229.464 241.013 282.164 220.894 291.476 216.484C302.185 211.307 304.154 207.468 303.071 201.916Z" fill="#F6BD60"/>
<path d="M210.309 81.3579C208.34 78.1097 202.631 82.5194 200.151 80.0193C198.793 78.6806 201.667 76.2001 199.954 72.1448C196.883 65.4318 186.351 68.8966 189.028 76.1805C190.17 79.9996 193.438 79.9996 193.438 81.9288C193.615 84.9802 185.957 85.748 187.296 89.9805C189.264 98.2093 201.864 91.9491 206.667 89.5868C209.659 88.0709 212.593 85.3936 210.309 81.3579Z" fill="#F6BD60"/>
<path d="M13.4675 42.6538C17.2569 42.435 21.0021 41.727 24.6099 40.5473C28.8424 43.9924 35.7326 48.0084 39.1777 48.0084C43.7055 47.7033 48.1625 46.7347 52.4068 45.1342C54.3349 44.4318 56.05 43.2455 57.3874 41.6891C60.8522 38.0472 66.01 33.4406 66.2068 30.1924C66.4037 26.9442 64.8288 12.9866 61.4231 9.67935C57.2683 6.34272 52.687 3.57535 47.8002 1.45051C45.6415 0.258062 43.1598 -0.217608 40.7132 0.0921602C36.9512 0.433576 33.2322 1.14574 29.6102 2.21827C27.5037 2.96635 23.4681 7.57292 20.397 11.7858C16.8141 12.276 13.2864 13.1126 9.86489 14.2859C-3.20675 18.3019 -0.982211 41.6891 13.4675 42.6538ZM38.1934 44.1893C34.5868 42.5665 31.123 40.6436 27.8384 38.4409C30.7598 37.8503 33.5927 36.8857 36.2641 35.5667C40.0717 38.3447 44.1164 40.782 48.3514 42.8506C44.2961 43.7956 39.3352 44.7602 38.1934 44.1893ZM43.3708 5.26964C44.7095 3.93097 46.4222 4.69873 47.5837 5.26964C51.5552 7.1867 55.2827 9.57261 58.6867 12.3764C60.6553 14.2269 62.4271 25.9795 62.3287 29.7987C62.3287 31.3342 57.9386 35.9408 52.9383 40.1536C50.4579 40.1536 40.8707 34.2477 37.9965 31.9248C36.6578 30.3892 33.5868 19.0697 34.3545 16.5892C34.7286 14.8568 39.7289 8.73441 43.3708 5.26964ZM30.9095 5.91928C33.7195 5.06298 36.608 4.48924 39.532 4.20658C25.5942 19.0697 36.52 12.1992 22.4641 15.7033C24.9642 11.8251 29.5511 6.39175 30.9095 5.91928ZM30.3386 18.3807C30.7436 23.262 31.9059 28.0505 33.7836 32.5744C30.5998 33.8869 27.3059 34.9147 23.9405 35.6455C22.2651 30.6665 21.1106 25.5271 20.4954 20.3099C23.7042 19.3251 27.0005 18.6527 30.3386 18.3019V18.3807ZM6.55761 20.8808C8.52623 18.0263 13.4675 17.2389 17.4835 16.668C16.8147 17.8651 16.5457 19.2445 16.7157 20.6052C16.9126 22.7116 19.019 34.2084 20.9482 37.6731C19.5899 37.8503 18.2512 38.244 16.5385 38.6181C14.4124 37.4763 13.0737 34.0312 12.6013 32.1019C12.2272 31.157 12.0304 30.3892 10.8689 30.7633C8.76247 31.3342 9.15619 34.9761 11.0658 38.4409C5.73079 36.0982 2.36445 26.8851 6.55761 20.8021V20.8808Z" fill="#F6BD60"/>
<path d="M162.961 108.385C164.674 108.188 166.032 105.905 167.745 106.279C170.245 106.85 172.353 107.421 173.889 103.798C177.216 97.1051 172.392 98.3454 169.951 103.031C164.144 100.59 158.199 108.385 162.963 108.385H162.961Z" fill="#F6BD60"/>
<path d="M12.3031 28.4606C14.2717 28.6575 14.0355 24.2478 14.4095 21.1767C14.8033 17.5348 11.7322 18.6963 10.9644 20.8027C10.1967 22.9091 10.0195 28.0866 12.3031 28.4606Z" fill="#F6BD60"/>
<path d="M151.071 112.027C156.76 122.599 167.745 121.044 178.476 115.669C181.351 114.331 184.815 112.421 182.709 111.732C178.024 109.606 161.743 123.445 154.518 110.393C151.467 104.645 141.88 81.8287 139.95 75.5094C137.982 68.7964 139.95 63.993 145.856 61.3157C153.731 57.8706 188.418 47.1416 197.04 44.2674C205.663 41.3932 200.289 40.6254 191.135 42.7319C181.98 44.8383 152.412 54.2286 144.36 57.6737C136.702 61.1188 133.828 67.8318 136.308 76.4544C138.041 83.0886 147.825 106.082 151.073 112.027H151.071Z" fill="#F6BD60"/>
<path d="M164.675 65.8442C169.833 64.0134 166.407 61.907 161.23 63.7378C154.517 66.0411 144.752 68.5216 148.768 78.3056C153.375 89.6055 155.107 97.0863 162.194 96.5154C164.301 96.3185 169.656 95.157 169.852 93.0506C170.049 90.9442 166.21 92.2828 163.73 92.8734C158.749 94.0152 156.82 88.8377 151.918 77.341C148.985 70.6674 153.434 69.8208 164.675 65.8442Z" fill="#F6BD60"/>
<path d="M240.784 90.7474C237.142 90.4718 235.981 90.9443 234.642 92.4798C234.248 92.8735 233.106 92.6766 232.339 92.6766C231.04 92.7465 229.813 93.2933 228.893 94.2122C224.956 93.0507 223.342 95.5508 221.216 97.8541C220.212 99.37 218.086 92.3223 211.826 99.9605C206.057 93.5428 205.27 102.913 203.203 103.799C201.864 104.37 198.616 102.264 196.884 101.673C195.151 101.083 193.439 101.87 195.151 103.799C197.139 106.012 199.873 107.413 202.829 107.737C206.077 107.737 208.006 104.095 208.184 101.988C213.42 109.449 214.975 98.2872 217.574 100.827C220.98 104.154 222.377 101.791 225.822 98.3463C226.59 97.5785 227.791 98.1494 229.268 97.9525C230.744 97.7557 231.748 96.6139 232.339 96.2398C233.284 95.6493 234.839 96.6139 236.551 95.6689C238.264 94.724 238.087 92.9719 241.729 93.1688C244.426 93.4444 244.623 91.0427 240.784 90.7474Z" fill="#F6BD60"/>
<path d="M218.933 63.7377C221.216 63.9149 222.378 60.4698 223.146 58.5602C227.083 61.8085 229.859 61.6313 232.339 57.0247C238.481 58.3634 238.245 56.0601 236.276 54.7214C232.339 52.2409 229.957 53.0087 227.831 57.0247C222.85 53.3827 221.708 54.1505 218.834 59.702C217.963 58.9296 216.904 58.4 215.763 58.1665C214.621 57.9893 213.657 59.1311 214.051 59.8989C214.428 60.9285 215.085 61.8329 215.947 62.5108C216.809 63.1887 217.843 63.6135 218.933 63.7377Z" fill="#F6BD60"/>
<path d="M258.875 83.483C257.34 78.1086 253.698 66.6119 251.198 59.8595C248.323 51.985 245.292 40.508 227.436 42.8113C211.687 44.7799 189.875 52.6544 180.189 56.7885C172.138 60.2336 169.086 67.7143 172.728 78.2661C190.643 130.494 187.847 125.415 249.957 105.098C258.875 102.067 261.848 94.0151 258.875 83.483ZM205.722 114.981C198.242 117.284 192.119 113.642 188.654 107.894C183.674 99.8422 178.122 83.3649 176.39 77.4196C173.713 68.4033 175.445 63.0487 181.961 60.3517C189.836 56.9066 216.077 45.9807 232.161 45.9807C243.087 45.9807 245.193 54.6033 247.497 61.1194C249.8 67.6356 253.639 79.152 255.174 84.5067C257.655 93.3261 255.548 99.0745 248.461 101.575C242.299 103.799 213.951 112.422 205.722 114.902V114.981Z" fill="#F6BD60"/>
<path d="M126.346 287.984C131.228 301.449 193.852 318.261 214.7 306.764C224.858 297.571 209.345 283.003 173.89 278.771C139.203 274.558 123.946 281.31 126.348 287.984H126.346ZM194.206 287.59C200.112 289.697 202.829 294.677 195.348 292C180.583 287.216 152.413 286.448 142.451 288.358C133.632 290.09 134.577 285.287 146.29 283.574C158.929 281.645 181.174 283.18 194.206 287.59Z" fill="#F6BD60"/>
<path d="M333.151 108.957C346.006 94.7831 341.4 78.1089 325.867 78.1089C313.8 78.1089 307.48 86.9283 293.484 104.173C287.578 87.4008 277.735 54.9579 268.561 32.1022C259.171 8.7347 237.063 12.416 229.858 13.5185C171.35 23.6372 31.4797 63.1474 17.1088 70.4313C3.6828 77.3412 0.80861 92.0861 2.73786 103.603C4.84428 116.438 12.6991 144.235 17.8766 158.232C-5.13663 168.567 -8.85732 212.625 24.1958 225.303C28.6055 227.803 35.1217 230.283 41.0669 232.98C44.3151 243.138 46.0475 248.119 49.8863 258.08C47.9177 261.919 35.3185 293.929 35.4957 306.961C35.8698 324.679 61.5406 324.324 60.4185 311.942C60.0444 306.961 55.4379 303.89 49.4926 303.693C43.5474 303.496 43.7442 307.138 46.6184 307.138C50.2604 306.961 55.1032 308.064 56.5797 310.406C59.572 315.131 51.599 317.69 47.5831 316.726C43.9411 315.584 39.3345 312.887 39.3345 307.138C39.3345 297.295 48.3508 270.719 52.3668 261.722C54.6701 256.545 65.97 255.816 70.3797 260.758C74.7894 265.699 63.6864 303.319 62.7218 306.961C61.7571 310.603 65.2022 310.013 66.659 306.567C68.0825 302.821 69.2403 298.98 70.1238 295.071C75.2816 300.051 82.9592 301.784 90.4399 302.158C94.8497 302.355 106.72 299.48 112.095 297.945C109.595 310.603 107.685 325.348 106.189 335.703C101.405 370.764 206.589 386.316 215.054 362.732C215.428 361.571 216.195 359.267 217.022 356.216C233.126 347.968 229.484 324.974 225.468 318.458C230.212 292.748 231.118 280.916 202.277 269.006C236 256.919 297.342 234.693 305.197 230.677C333.25 218.235 326.34 200.4 304.429 134.648C306.004 133.053 326.123 116.32 333.151 108.957ZM7.32475 103.051C5.78922 93.0704 8.09251 80.4319 19.1365 74.8607C35.0429 66.7697 179.304 27.0626 230.724 18.3219C238.402 16.9832 256.316 14.109 264.191 34.2284C270.096 48.993 282.774 85.2156 290.058 108.603C289.113 109.567 288.345 110.709 287.381 111.851C283.444 94.8028 264.565 44.3864 261.119 35.193C255.568 20.4283 241 21.5898 229.621 23.8931C180.544 34.4252 70.3403 62.419 31.0466 78.8964C16.8726 84.8022 16.8726 97.4802 20.3176 110.906C22.6209 119.529 31.6175 146.164 33.3499 149.609C23.9596 159.964 32.8775 154.925 22.05 157.09C17.286 143.073 9.254 115.296 7.32475 103.032V103.051ZM55.241 146.735C77.8605 152.306 121.564 176.264 133.435 181.442C140.541 185.655 143.416 187.761 145.246 193.884C147.353 200.793 143.278 216.129 133.553 222.448C123.828 228.768 46.9334 194.533 36.7753 188.529C49.5911 185.32 63.2336 162.622 55.241 146.715V146.735ZM25.5345 184.867C25.8298 186.029 31.4404 202.841 35.1217 215.145C33.5862 214.377 31.8538 213.609 30.3379 212.841C17.286 206.522 11.9313 197.703 14.2346 186.777C15.9473 179.119 18.6443 174.315 22.6603 172.209C22.147 176.633 23.1612 181.099 25.5345 184.867ZM32.4444 190.419C37.7083 193.767 43.2163 196.715 48.9217 199.238C50.0635 202.683 53.9023 213.609 58.5089 226.445C52.9354 223.057 47.1033 220.115 41.0669 217.645C40.3582 215.538 33.9799 195.596 32.4837 190.419H32.4444ZM50.8313 170.103C42.4253 188.175 24.2155 191.561 26.8732 170.87C28.301 170.79 29.731 170.984 31.086 171.441C32.4444 177.78 40.496 175.379 43.9411 168.193C47.7602 160.319 43.3702 153.428 37.425 157.464C35.8676 156.914 34.2581 156.525 32.6215 156.303C47.3665 134.431 60.2413 149.629 50.8313 170.103ZM57.938 253.474C56.3826 253.695 54.8849 254.217 53.5283 255.009C51.5597 249.832 49.4926 243.512 46.8153 235.855C56.3828 240.815 58.5483 243.513 57.938 253.474ZM68.0961 254.635C66.0705 253.813 63.9343 253.296 61.7571 253.1C63.7258 233.925 47.9768 232.98 25.7314 221.858C10.5927 214.377 0.040849 202.171 4.2537 182.761C8.60435 162.74 24.2549 155.948 37.9959 162.051C41.0669 163.39 39.3345 169.532 35.6926 168.961C34.1399 168.377 32.5393 167.929 30.9088 167.622C21.0657 166.146 13.8409 171.559 10.7698 186.009C7.89565 199.789 15.5733 209.967 28.9796 216.483C60.4185 231.622 69.2379 231.248 68.0961 254.635ZM63.8636 230.677C63.0958 228.708 55.6347 207.487 53.7055 201.738C81.2662 214.18 120.993 227.98 129.222 227.606C144.36 227.035 152.038 203.077 148.908 193.096C146.408 185.222 142.018 182.564 135.305 178.548C120.737 172.209 65.7338 141.558 46.9531 142.128C43.0467 142.374 39.3367 143.927 36.421 146.538C26.3219 116.162 12.4628 90.5703 32.6215 82.3218C73.0767 65.6476 181.174 38.2443 230.429 27.6925C245.567 24.4443 253.422 27.1216 257.635 36.7088C262.242 47.4378 281.593 105.611 284.861 115.099C271.258 131.006 254.958 149.59 249.209 150.948C235.98 153.822 224.287 145.948 210.112 160.909C201.667 169.335 198.99 190.438 208.006 194.828C212.101 197.112 218.912 183.725 226.019 176.619C228.342 173.528 229.956 175.556 239.425 177.78C240.823 178.115 240.134 177.505 243.835 189.454C245.567 192.328 239.248 196.738 235.409 200.577C223.597 212.841 224.483 217.054 240.016 217.822C248.638 218.216 255.765 214.377 261.474 207.29C272.774 193.687 265.687 181.028 268.187 168.764C268.758 165.693 281.967 154.393 294.448 143.664C300.964 161.677 307.48 185.005 311.122 199.809C313.406 209.396 310.729 213.412 305.551 216.483C273.167 230.264 220.271 247.528 178.3 262.49C153.574 258.08 127.115 260.029 119.241 271.309C117.919 273.849 116.952 276.558 116.367 279.361C82.0536 291.37 79.7306 272.825 72.3089 253.966C73.0767 242.942 69.6119 235.855 63.8636 230.677ZM97.8026 296.409C90.3218 298.142 77.2896 297.374 71.3443 289.322C72.8798 282.235 74.2185 275.325 74.9863 271.487C80.7346 284.913 89.7509 286.645 96.0702 286.645C102.526 286.537 108.927 285.434 115.048 283.377C114.477 286.054 113.709 288.929 113.079 292.197C108.083 293.929 102.98 295.336 97.8026 296.409ZM211.451 361.197C207.809 377.871 107.941 369.386 110.067 335.703C111.032 320.151 116.386 294.677 119.457 281.645C121.564 288.161 131.151 295.071 143.416 300.819C142.377 301.38 141.482 302.173 140.799 303.136C140.117 304.098 139.665 305.205 139.478 306.371C138.966 309.638 139.478 316.371 140.817 318.182C141.939 319.738 146.959 321.824 149.833 322.789C156.802 343.302 185.721 365.095 212.317 357.279C212.165 358.612 211.875 359.924 211.451 361.197ZM218.538 349.877C220.271 342.987 222.475 334.128 224.109 325.545C227.161 337.042 224.483 345.093 218.538 349.877ZM213.951 352.751C194.816 361.315 163.299 347.082 154.145 322.671C156.279 321.218 158.258 319.549 160.05 317.69C162.157 315.584 161.389 310.603 159.657 310.977C157.176 311.351 159.854 314.619 152.963 319.029C152.766 318.064 152.57 317.06 152.373 316.352C155.444 314.993 155.641 308.871 151.802 307.335C146.25 305.229 143.927 312.887 148.554 315.761C148.579 316.729 148.705 317.692 148.928 318.635C147.233 318.105 145.622 317.336 144.144 316.352C143.221 313.373 142.959 310.229 143.376 307.138C143.553 305.17 145.089 304.264 147.963 302.729C162.531 308.634 180.17 312.572 193.97 311.942C208.538 311.548 218.696 309.068 224.07 302.729C222.377 316.529 217.199 339.719 213.951 352.751ZM223.912 293.693C222.101 320.781 125.481 306.489 121.367 274.518C132.883 251.367 223.912 267.746 223.912 293.732V293.693ZM303.248 226.031C292.204 231.681 197.139 265.069 195.919 266.289C192.474 265.128 188.832 264.163 185.19 263.218C226.216 248.847 276.809 231.976 307.244 218.944C312.599 215.676 317.599 210.696 314.528 198.057C310.886 182.899 303.976 158.566 297.283 140.16C298.425 139.215 299.389 138.191 300.531 137.483C322.481 203.628 326.458 215.853 303.248 226.071V226.031ZM263.383 166.815C260.509 178.627 267.99 191.147 257.635 203.609C254.993 207.045 251.43 209.662 247.359 211.153C243.289 212.645 238.879 212.95 234.641 212.034C233.106 211.66 230.704 211.326 233.5 208.589C239.72 202.565 250.213 194.454 248.048 187.702C242.772 171.048 246.453 174.414 229.09 169.689C223.342 168.036 222.554 172.977 210.112 187.899C209.325 188.824 208.144 190.005 207.415 187.308C206.445 183.185 206.474 178.889 207.501 174.78C208.529 170.67 210.524 166.866 213.321 163.685C226.176 149.905 236.512 158.704 250.312 154.865C258.363 152.562 276.199 131.104 297.854 106.378C309.548 93.1492 313.189 84.1329 325.828 82.7549C331.006 82.184 340.396 90.0388 331.97 102.441C323.84 114.627 265.588 157.326 263.383 166.854V166.815Z" fill="#1E1D19"/>
<path d="M226.019 194.634C233.697 197.508 236.098 195.835 240.016 190.224C241.355 188.256 240.587 187.744 238.658 181.798C237.909 179.298 237.516 179.692 232.909 178.353C230.429 177.586 227.929 177.015 224.857 180.834C221.786 184.653 221.412 184.476 222.18 186.976C224.109 192.941 223.913 193.866 226.019 194.634Z" fill="#1E1D19"/>
<path d="M325.671 90.5711C319.548 88.2679 315.827 95.6502 321.084 98.8C326.694 102.147 331.813 93.0516 325.671 90.5711Z" fill="#1E1D19"/>
<path d="M213.184 317.869C200.566 323.303 179.245 320.172 169.658 317.692C168.713 317.495 167.69 318.066 168.516 319.031C172.887 325.252 214.188 328.086 215.468 318.263C215.567 317.121 214.129 317.475 213.184 317.869Z" fill="#1E1D19"/>
</svg>
