<svg width="386" height="359" viewBox="0 0 386 359" fill="none" xmlns="http://www.w3.org/2000/svg">
<path d="M15.4392 350.144C23.3293 356.056 55.2831 357.835 141.493 357.653C124.114 354.55 127.395 350.347 126.19 314.093C122.943 315.457 106.773 321.626 106.773 321.626C106.14 340.432 107.682 350.396 96.8296 348.736C90.423 347.766 64.2629 314.903 56.9857 304.72C31.3208 268.8 36.2236 266.459 37.5305 264.857C39.0525 262.999 59.1632 248.584 74.3669 239.211C81.2667 233.417 104.344 200.929 104.344 200.929C107.409 196.104 106.796 188.413 98.3536 180.346C96.0402 182.54 91.5696 186.099 88.6128 188.709C91.184 199.407 87.3952 204.489 81.3073 207.119C76.6601 209.116 75.0163 208.134 71.7369 204.826C44.1522 222.958 23.6418 195.611 25.2896 173.326C26.4565 157.546 46.8999 135.421 47.0603 135.303C56.094 126.58 65.6262 118.389 75.6089 110.77C94.435 97.0866 130.756 109.129 134.89 109.94C137.974 94.9416 150.213 91.2888 152.606 85.8522C158.318 72.8645 169.589 59.4952 185.25 53.6812C199.455 48.4049 219.2 47.4735 241.348 55.3615C256.593 60.8001 279.055 75.8476 284.612 88.6811C287.301 94.8888 290.722 105.389 296.788 111.815C303.194 118.618 320.892 149.009 307.683 156.582C303.253 159.113 299.734 154.09 297.025 156.049C291.073 160.377 303.332 176.435 294.949 182.268C290.519 185.352 285.576 179.855 282.729 182.065C279.881 184.275 285.57 198.754 269.085 200.891C270.39 202.748 273.144 207.573 274.159 209.292C261.859 217.874 250.415 227.288 225.357 244.055C224.055 248.791 221.688 253.167 218.437 256.85C216.996 312.171 218.417 291.348 210.133 328.369C227.04 340.411 233.702 346.343 222.214 357.139C281.416 355.814 344.67 357.791 362.625 356.248C389.477 353.955 387.341 329.12 382.813 152.782C381.687 108.193 271.49 42.7228 240.821 16.5445C210.152 -9.63392 176.452 -3.72045 141.039 27.0462C111.972 52.3256 3.1009 123.916 1.85489 157.571C-1.84255 256.476 -1.27028 337.627 15.4392 350.144Z" fill="#F6BD60"/>
<path d="M326.076 307.209C344.862 320.794 351.406 326.212 357.279 330.547C360.66 333.059 366.395 331.082 353.285 320.72C300.49 279.771 246.094 248.626 227.112 245.917C242.713 232.788 265.235 219.836 290.723 201.842C312.474 186.499 326.157 171.65 350.933 167.279C354.18 166.706 355.223 162.91 351.96 162.297C325.985 163.311 303.22 189.108 274.369 206.035C273.6 204.769 272.745 203.445 271.82 202.1C288.349 200.182 279.69 180.792 286.648 184.165C312.157 191.659 290.149 154.248 299.798 157.611C303.871 160.476 312.494 158.163 313.423 150.176C315.934 128.543 295.626 112.308 289.337 96.0167C284.276 84.133 279.355 71.1371 245.678 56.1728C202.821 37.1276 171.865 47.4122 153.396 79.2484C147.978 90.7952 137.261 93.267 133.229 106.951C82.5483 90.5375 64.0996 112.704 32.6714 151.342C30.6382 149.629 28.2355 148.411 25.6519 147.783C25.0003 147.698 24.3408 147.867 23.8109 148.255C23.2809 148.644 22.9212 149.222 22.8066 149.869C22.6921 150.516 22.8316 151.183 23.196 151.73C23.5604 152.277 24.1217 152.662 24.7631 152.806C26.6741 153.341 28.4345 154.314 29.9054 155.647C8.23215 182.361 41.2534 227.601 71.9126 207.671C81.9578 216.397 95.0875 204.724 91.2906 190.348C93.9998 187.937 96.2727 185.9 98.369 183.842C106.377 191.694 103.986 194.579 100.94 199.543C96.1164 207.392 77.41 232.286 71.1414 237.666C53.3056 249.371 44.1899 254.355 34.0858 264.835C32.9596 266.239 29.5584 269.007 48.5996 297.125C41.3404 302.649 35.2172 309.524 30.567 317.372C28.3347 321.524 32.1904 325.063 35.411 320.043C39.7801 313.2 46.5723 305.509 52.0515 302.146C70.2221 327.476 109.433 385.393 108.67 324.195C113.356 322.257 119.703 319.685 123.677 317.965C125.556 353.275 113.039 359.134 164.687 358.225C179.096 358.283 204.966 357.553 221.712 357.334C226.28 357.275 229.383 353.123 230.095 349.013C231.241 342.252 228.315 339.285 212.951 328.134C218.964 300.965 221.271 302.191 220.961 256.356C222.23 254.579 223.235 252.627 223.946 250.562C233.953 249.893 274.192 269.685 326.076 307.209ZM227.507 239.288C231.006 227.067 234.744 213.403 241.863 199.206C246.9 196.736 251.506 193.472 255.506 189.538C260.871 195.639 265.775 202.129 270.178 208.955C252.955 220.944 236.879 232.374 227.507 239.294V239.288ZM150.49 109.581C158.894 100.94 166.522 105.21 173.219 99.7345C207.131 71.892 215.593 93.7824 239.677 116.375C232.954 117.085 230.166 122.82 234.476 123.415C237.226 123.808 238.413 119.715 246.993 122.228C252.784 126.576 258.805 130.609 265.03 134.31C283.618 155.884 247.831 205.337 217.298 197.763C180.646 188.67 146.022 166.779 143.53 135.919C142.383 121.86 145.171 115.058 150.49 109.581ZM169.136 182.608C182.365 192.068 197.392 198.717 213.29 202.145C211.273 206.968 208.84 212.663 206.863 217.448C196.976 213.251 170.463 200.657 162.967 195.417C164.963 191.119 167.02 186.849 169.136 182.608ZM153.62 203.713C148.075 216.805 144.187 225.021 138.412 225.484C134.814 225.76 126.727 223.804 125.144 216.784C123.926 211.346 146.559 178.799 151.7 166.777C155.713 171.431 160.17 175.682 165.008 179.471C160.395 188.595 156.513 196.874 153.62 203.713ZM87.6541 186.827C86.5867 187.639 85.5192 188.824 86.0144 190.267C89.4927 200.312 81.4646 210.633 74.6623 202.942C69.7594 198.79 61.0191 213.495 46.3876 205.335C48.0111 201.578 56.0554 197.723 52.7942 193.589C48.1856 191.56 45.0422 200.016 42.0165 202.666C38.3805 199.96 35.2942 196.585 32.923 192.722C35.1167 190.153 38.321 186.515 40.4153 184.043C40.8511 183.526 41.0645 182.857 41.009 182.183C40.9535 181.509 40.6335 180.884 40.119 180.445C35.8879 178.091 33.3959 185.624 30.3519 187.899C22.3624 168.243 36.2227 153.806 53.3482 134.527C65.1529 140.697 90.5215 167.942 95.4061 179.708C93.1455 181.91 90.6758 184.126 87.65 186.835L87.6541 186.827ZM57.1005 130.797C62.6978 125.402 68.6 120.332 74.778 115.612C86.3066 128.701 105.506 149.364 110.271 164.551C111.933 168.03 103.213 172.975 99.3369 176.118C92.7396 162.924 69.9725 138.509 57.1005 130.797ZM102.125 180.408C107.661 175.761 117.566 171.392 115.135 163.086C110.092 146.953 90.7103 125.972 78.9401 112.625C95.5299 100.84 119.971 107.068 132.269 111.994C129.125 129.393 140.713 147.941 148.167 162.276C143.599 172.894 131.439 192.037 125.507 203.109C119.431 201.107 113.798 197.952 108.917 193.816C109.262 190.058 107.661 185.886 102.125 180.408ZM99.4546 345.693C84.8232 346.998 40.1738 277.22 38.3352 267.767C39.5402 266.402 40.8497 265.132 42.2519 263.97C58.8213 285.225 89.0746 305.494 103.588 323.227C103.469 342.887 102.598 344.171 99.4546 345.693ZM225.07 348.165C223.311 354.75 212.239 353.366 196.538 353.464C171.983 353.642 134.686 356.114 130.534 349.728C129.661 348.205 129.205 346.48 129.211 344.725C152.246 342.727 189.855 331.853 209.213 331.738C225.135 343.281 225.985 344.784 225.074 348.165H225.07ZM208.085 326.593C188.118 327.206 152.199 337.446 128.957 339.624C128.699 331.872 128.839 323.133 128.754 315.718C141.665 309.63 145.66 305.456 157.741 286.315C162.743 278.385 166.599 273.145 164.641 271.822C161.102 269.427 157.999 276.369 153.53 283.427C144.855 297.152 142.655 302.371 133.769 307.662C128.354 310.886 120.458 314.137 107.101 319.355C92.0151 301.541 62.9084 281.905 46.2212 260.768C52.4107 255.962 62.119 249.477 74.3194 241.725C82.8608 234.013 101.825 208.665 107.241 198.977C112.002 202.762 117.38 205.698 123.139 207.656C115.172 222.487 130.83 232.156 143.171 230.078C148.37 229.208 155.687 211.67 160.848 200.103C170.24 206.291 195.491 218.136 204.941 222.15C194.166 245.779 193.983 257.901 215.9 259.205C216.196 301.568 213.385 302.519 208.089 326.593H208.085ZM217.259 252.127C213.978 256.318 202.766 254.004 201.461 246.51C200.197 239.273 213.702 214.814 218.446 203.009C223.972 203.8 229.602 203.395 234.957 201.822C223.108 227.929 222.511 245.392 217.263 252.127H217.259Z" fill="#1E1D19"/>
<path d="M194.486 96.2741C196.901 95.7968 199.396 95.9108 201.758 96.6062C204.12 97.3016 206.279 98.5578 208.05 100.268C210.244 102.742 213.647 99.5778 211.806 96.8179C207.342 90.1536 192.122 88.0593 191.513 94.2082C191.381 95.6226 193.082 96.5115 194.486 96.2741Z" fill="#1E1D19"/>
<path d="M186.616 137.343C208.347 142.089 223.236 107.069 196.357 101.099C170.52 95.3641 161.465 132.261 186.616 137.343ZM176.967 116.739C185.35 118.143 196.266 119.803 205.459 120.654C202.79 137.797 173.645 135.466 176.967 116.739Z" fill="#1E1D19"/>
<path d="M202.632 145.292C202.658 145.951 202.938 146.574 203.414 147.031C203.889 147.488 204.523 147.743 205.182 147.743C205.842 147.743 206.476 147.488 206.951 147.031C207.427 146.574 207.707 145.951 207.733 145.292C207.667 144.494 207.799 143.692 208.118 142.957C208.436 142.223 208.932 141.578 209.56 141.081C212.348 139.103 215.491 141.516 217.131 138.472C218.694 135.564 210.962 133.291 205.625 137.956C204.577 138.852 203.759 139.985 203.238 141.261C202.718 142.537 202.51 143.919 202.632 145.292Z" fill="#1E1D19"/>
<path d="M240.971 167.3C264.28 169.126 271.781 134.116 245.974 129.828C219.401 125.412 214.014 165.187 240.971 167.3ZM228.337 145.095C236.582 146.479 247.597 148.2 257.027 149.109C255.682 168.487 223.61 165.066 228.337 145.095Z" fill="#1E1D19"/>
<path d="M196.285 153.973C195.627 153.894 194.964 154.074 194.436 154.474C193.909 154.875 193.558 155.466 193.458 156.121C193.358 156.776 193.517 157.444 193.901 157.984C194.285 158.524 194.864 158.893 195.515 159.014C207.399 160.773 206.567 163.978 207.399 165.757C208.367 167.833 212.953 167.933 212.27 163.931C211.586 159.929 208.722 154.882 196.285 153.973Z" fill="#1E1D19"/>
<path d="M214.081 236.426C206.349 233.737 201.722 244.949 211.114 247.587C219.142 249.872 221.399 238.977 214.081 236.426Z" fill="#1E1D19"/>
<path d="M140.225 208.011C139.568 207.568 138.827 207.264 138.048 207.121C137.268 206.977 136.468 206.996 135.696 207.177C134.924 207.358 134.198 207.696 133.564 208.171C132.929 208.646 132.4 209.247 132.009 209.936C131.617 210.626 131.373 211.388 131.291 212.177C131.209 212.965 131.29 213.762 131.531 214.517C131.771 215.272 132.165 215.969 132.688 216.565C133.211 217.16 133.852 217.641 134.569 217.977C135.226 218.421 135.967 218.724 136.747 218.868C137.526 219.011 138.327 218.992 139.098 218.811C139.87 218.631 140.596 218.292 141.23 217.817C141.865 217.343 142.395 216.742 142.786 216.052C143.177 215.363 143.421 214.6 143.503 213.812C143.586 213.024 143.504 212.227 143.264 211.472C143.023 210.717 142.629 210.019 142.106 209.424C141.583 208.828 140.943 208.347 140.225 208.011Z" fill="#1E1D19"/>
</svg>
