<svg width="400" height="363" viewBox="0 0 400 363" fill="none" xmlns="http://www.w3.org/2000/svg">
<path d="M355.358 282.719C355.968 280.468 352.244 266.918 353.107 265.088C353.97 263.257 366.594 266.14 368.277 268.181C369.476 269.633 372.485 279.248 374.841 287.853C391.442 262.837 390.221 226.353 373.2 200.516C373.411 220.399 361.313 204.724 353.928 202.368C350.067 203.481 346.297 204.888 342.65 206.576C341.009 215.202 337.516 221.304 327.27 216.423C327.27 216.423 321.526 227.3 325.629 228.731C329.732 230.162 343.26 233.654 343.681 236.726C341.83 254.968 333.161 238.157 323.167 237.946C305.536 243.08 301.033 249.645 309.428 264.814C311.069 265.824 319.485 268.496 320.916 270.348C326.05 280.994 318.454 281.815 313.531 288.8C312.71 290.904 314.772 303.149 316.203 304.18C317.634 305.211 323.588 302.728 328.091 301.908C341.219 301.298 335.875 295.364 341.83 288.379C344.502 287.033 354.748 284.992 355.358 282.719Z" fill="#F6BD60"/>
<path d="M296.32 289.495C294.068 289.495 287.504 290.925 285.253 293.597C273.765 307.336 281.55 307.526 294.468 308.557C297.14 307.736 304.715 299.951 304.715 298.037C304.715 296.122 298.571 289.495 296.32 289.495Z" fill="#F6BD60"/>
<path d="M244.856 210.952C245.277 221.472 253.672 225.911 256.134 232.896C256.744 240.471 246.098 251.832 245.887 256.251C245.677 260.669 252.641 264.057 253.883 267.949C254.703 270.81 252.452 288.042 255.987 292.334C258.091 295.006 269.115 277.164 271.577 277.164C281.824 279.626 286.537 275.523 291.249 267.128C291.86 265.277 282.644 259.743 281.003 257.071C279.783 254.82 279.972 241.502 277.721 239.04C275.049 235.968 266.885 235.127 265.433 233.296C264.424 232.055 262.341 215.454 267.264 212.256C270.336 210.152 278.541 213.708 281.424 213.077C284.306 212.446 289.209 204.472 291.67 203.861C306.84 213.077 302.737 216.78 310.732 196.266C311.553 179.266 304.42 189.954 295.352 185.409C293.922 183.558 304.168 173.732 307.976 168.809C278.478 169.966 256.786 188.628 244.856 210.952Z" fill="#F6BD60"/>
<path d="M322.977 193.131C327.059 196.203 342.25 191.763 345.721 191.7C351.886 191.595 361.712 199.695 366.424 191.91C354.747 178.171 333.623 170.387 316.602 169.145C313.13 174.679 317.233 176.53 320.515 181.454C321.525 183.305 319.695 190.669 322.977 193.131Z" fill="#F6BD60"/>
<path d="M24.8837 96.9785C34.52 89.6145 42.915 99.6506 51.3309 96.5787C63.6183 92.3707 51.1205 70.1315 81.4601 58.7069C77.5677 65.2713 85.7733 84.5439 130.462 66.0919C128.211 91.1084 151.376 92.1183 180.074 79.6206C178.433 86.5848 179.864 97.6728 200.778 99.3139C214.356 93.6867 229.39 92.6017 243.636 96.2211C243.636 96.2211 243.636 57.4866 207.742 58.7069C202.839 37.183 180.39 19.762 148.704 32.2597C133.744 12.1666 98.4814 11.5564 91.0964 32.6805C63.6183 33.0802 50.0896 42.1064 45.7974 63.0201C-1.77384 68.3432 -2.384 120.627 23.453 149.115C14.8267 136.765 13.3959 106.005 24.8837 96.9785Z" fill="#F6BD60"/>
<path d="M351.676 358.589C344.291 357.158 334.045 355.917 323.988 354.486C316.813 353.245 319.275 343.209 317.445 341.147C314.772 338.075 310.059 337.886 308.629 340.137C306.356 343.609 306.777 352.025 302.064 354.486C299.603 355.538 252.999 359.809 269.263 362.271C273.955 362.986 384.057 364.543 351.676 358.589Z" fill="#1E1D19"/>
<path d="M131.895 175.711C104.417 170.577 103.196 161.761 101.092 155.218C100.98 154.924 100.795 154.664 100.555 154.461C100.315 154.257 100.027 154.118 99.719 154.055C99.4108 153.992 99.0917 154.008 98.7912 154.101C98.4907 154.194 98.2184 154.361 97.9996 154.587C84.8917 169.967 99.8932 197.298 118.093 180.024C118.588 179.518 119.212 179.154 119.897 178.973C120.582 178.791 121.304 178.798 121.985 178.993C132.105 181.244 137.639 176.742 131.895 175.711Z" fill="#1E1D19"/>
<path d="M394.324 214.256C386.119 191.301 371.18 173.859 351.066 164.854C352.686 160.12 359.061 152.23 354.538 150.694C351.634 149.242 348.352 158.584 346.122 163.002C336.675 159.51 331.773 155.407 330.952 160.898C330.742 163.36 334.844 163.171 343.576 167.463L341.114 172.386C321.021 164.812 303.243 165.001 288.01 169.925C292.241 156.139 291.383 141.292 285.591 128.086C279.799 114.88 269.458 104.192 256.45 97.968C260.132 77.2647 241.722 44.0427 217.694 45.6838C212.56 18.3319 177.108 7.13864 151.881 16.5856C137.322 -5.14868 96.1255 -5.96924 81.7763 16.7749C60.0421 11.6622 32.1431 24.3703 31.9538 48.5663C-11.9145 59.0862 -4.95026 116.63 19.0352 147.58C10.8297 152.293 -3.72995 159.068 5.50658 160.709C7.61057 161.109 14.5327 155.176 22.5279 151.893C46.0926 187.556 104.31 219.747 161.118 215.434C163.893 219.539 167.118 223.322 170.733 226.711C169.913 228.352 168.482 230.414 167.262 232.666C163.769 213.183 138.563 217.706 126.676 230.814C114.236 227.673 102.147 223.282 90.592 217.706C86.2789 215.245 86.0684 220.568 90.1712 223.029C97.1355 227.237 113.126 232.245 122.762 235.127C105.551 252.759 92.4225 309.125 97.5142 331.069C52.1942 312.828 33.132 309.125 23.8744 285.77C21.7704 280.637 18.7407 280.426 18.9511 282.488C19.7716 293.766 28.5874 306.873 42.7262 313.648C60.5681 322.254 82.9125 331.069 103.742 338.896C124.572 346.723 141.866 350.784 158.067 351.52C186.155 352.972 204.355 348.869 215.464 301.298C222.028 272.81 209.741 261.743 193.751 255.788C195.457 251.67 197.541 247.718 199.979 243.985C211.216 247.4 223.226 247.326 234.421 243.775C231.959 272.473 246.119 300.582 273.576 316.341C272.966 317.793 272.146 319.013 271.472 320.255C267.718 318.468 264.261 316.112 261.226 313.27C260.98 313.019 260.684 312.824 260.357 312.695C259.863 312.5 259.32 312.471 258.808 312.612C258.297 312.754 257.845 313.059 257.523 313.48C255.692 316.762 264.697 322.716 268.8 324.757C265.728 330.501 261.836 337.381 266.696 336.855C268.527 336.645 269.768 332.963 273.45 326.798C346.753 359.81 420.898 288.064 394.324 214.256ZM34.9204 53.5317C40.8747 52.2903 34.3102 38.1515 47.0183 29.1254C52.0063 25.4132 57.7685 22.8758 63.8745 21.7027C69.9806 20.5296 76.2728 20.751 82.2813 22.3505C82.8258 22.4649 83.3923 22.4092 83.9042 22.191C84.416 21.9727 84.8483 21.6024 85.1427 21.1302C98.7134 -1.00382 135.386 0.0902595 148.704 21.1302C149.056 21.6459 149.571 22.028 150.167 22.2151C150.762 22.4021 151.403 22.3831 151.987 22.1611C159.453 19.4079 167.434 18.3294 175.364 19.002C183.293 19.6747 190.978 22.0819 197.875 26.0535C214.538 36.1527 209.636 50.4388 217.757 50.4388C238.25 50.8596 254.241 77.0964 251.779 95.9692C235.872 90.3664 218.541 90.2923 202.588 95.7588C192.741 98.0101 179.002 92.8763 182.284 80.589C182.894 78.485 182.494 75.6657 178.602 77.5172C155.837 88.0372 129.81 92.2451 132.672 66.8499C132.743 66.3803 132.688 65.9001 132.511 65.4589C132.335 65.0178 132.045 64.6315 131.67 64.34C131.294 64.0485 130.848 63.8623 130.377 63.8005C129.906 63.7387 129.427 63.8036 128.99 63.9885C106.835 74.0246 85.311 76.6125 83.2701 61.7162C82.2392 54.3522 66.6696 59.0652 59.6844 74.3402C55.4764 83.7871 54.3613 97.3158 47.3971 94.6437C34.2682 89.7204 27.8089 90.036 20.7395 97.1054C13.6701 104.175 12.1342 116.799 14.4275 130.327C0.478036 102.113 0.0993189 60.7063 34.9204 53.5317ZM29.997 153.366C16.6788 134.704 11.7554 102.723 31.028 96.5583C38.413 94.3071 42.5158 98.8096 48.8699 99.8406C64.4394 102.302 55.8341 70.9317 77.7787 62.9365C81.9867 80.3576 101.343 79.7685 126.97 70.1111C129.074 95.9482 152.407 93.2551 176.393 83.8502C176.182 92.0347 183.567 98.4098 191.352 100.451C176.182 108.446 163.474 123.595 156.089 140.216C154.659 133.904 145.022 129.57 142.96 133.042C142.806 133.361 142.726 133.711 142.728 134.066C142.73 134.42 142.814 134.77 142.973 135.087C143.131 135.404 143.361 135.681 143.643 135.895C143.925 136.11 144.253 136.256 144.602 136.324C165.305 144.529 143.991 169.335 130.042 152.924C127.391 149.852 124.109 153.135 126.36 156.417C128.796 160.049 132.507 162.634 136.758 163.658C141.01 164.683 145.491 164.074 149.314 161.95C146.526 178.593 149.573 195.688 157.941 210.342C104.415 213.225 51.7313 183.916 29.997 153.366ZM169.618 217.748C124.929 159.299 191.752 78.1274 252.031 101.082C265.77 106.216 275.617 114.821 282.581 130.811C232.969 54.9624 129.432 147.833 169.618 217.748ZM230.508 129.78C219.651 142.699 206.522 167.316 197.706 184.737C187.039 179.813 179.864 173.038 177.213 165.464C181.385 149.93 190.795 136.314 203.85 126.919C212.83 126.494 221.822 127.459 230.508 129.78ZM211.445 294.207C202.128 293.69 192.972 291.554 184.388 287.895C179.254 286.044 178.434 291.388 186.219 293.85C194.138 296.528 202.319 298.362 210.625 299.32C209.018 306.858 206.823 314.259 204.06 321.454C195.966 320.127 188.009 318.071 180.285 315.31C174.752 313.669 174.941 318.593 182.537 321.454C188.824 323.857 195.392 325.448 202.083 326.188C188.533 362.272 124.235 339.717 103.468 332.963C98.5451 317.372 106.751 262.837 127.033 238.283C136.669 226.606 148.368 221.683 158.593 227.006C166.378 230.898 157.015 250.15 168.44 253.453C189.627 259.555 216.158 262.227 211.445 294.207ZM191.352 248.277C183.957 245.515 176.988 241.725 170.649 237.021C172.08 234.749 173.51 232.497 174.541 230.456C180.486 235.409 187.203 239.354 194.424 242.134C193.667 243.985 192.573 246.026 191.352 248.277ZM175.362 173.459C187.986 191.911 220.871 201.337 241.785 193.342C259.816 186.567 263.098 154.586 256.513 141.479C249.927 128.371 229.035 122.543 212.329 121.596C254.135 100.556 289.609 136.766 269.726 178.782C252.494 191.301 241.427 205.84 236.315 226.964C202.63 245.016 167.367 212.825 175.362 173.459ZM243.005 273.904C213.086 183.432 342.798 124.268 379.765 219.579C413.597 306.831 281.55 365.154 243.005 273.904ZM276.017 322.085C276.627 320.865 277.448 319.624 278.121 318.193C323.42 335.425 363.816 313.48 381.448 279.648C396.176 251.16 391.084 197.845 346.374 174.28C347.195 172.639 348.015 170.998 348.836 169.567C391.084 186.567 406.864 250.949 383.91 288.274C358.641 331.322 310.88 336.035 276.017 322.085Z" fill="#1E1D19"/>
<path d="M110.979 134.494C150.344 130.286 134.775 70.9533 86.993 80.5896C71.4235 83.6615 61.1139 106.216 69.7824 118.714C74.4953 125.278 81.6699 124.058 88.7183 126.309C98.2704 129.381 101.342 135.525 110.979 134.494ZM82.8902 119.766C70.6029 117.914 68.9618 106.637 74.2849 97.0008C80.8494 85.534 93.9572 80.4003 113.23 88.5848C104.524 98.7581 96.7106 109.662 89.8755 121.176C87.4138 120.481 85.1415 120.145 82.8902 119.745V119.766Z" fill="#1E1D19"/>
</svg>
