<svg width="261" height="100" viewBox="0 0 261 100" fill="none" xmlns="http://www.w3.org/2000/svg">
<path d="M114.073 59.633H5.47552V94.4954H255.524V59.633H146.927V54.1284H261V100H0V54.1284H114.073V59.633Z" fill="#111111"/>
<path fill-rule="evenodd" clip-rule="evenodd" d="M33.3727 69.8242C35.0151 69.8243 36.2413 70.2865 37.0516 71.2111C37.8838 72.1358 38.3001 73.5558 38.3002 75.4713V78.5765C38.3 78.7963 38.1909 78.9061 37.9722 78.9062H31.8283V80.9212C31.8283 81.8899 31.9492 82.5832 32.1901 83.0015C32.4529 83.4198 32.8795 83.6295 33.4707 83.6296C33.9963 83.6296 34.3693 83.4866 34.5883 83.2004C34.8292 82.8922 34.9382 82.418 34.9163 81.7795C34.8945 81.5376 34.9823 81.4167 35.1792 81.4166H37.7743C37.9713 81.4166 38.0701 81.5265 38.0702 81.7463C38.114 83.2876 37.742 84.455 36.9536 85.2476C36.187 86.0403 35.0258 86.4365 33.4707 86.4365C31.8064 86.4365 30.5582 85.9743 29.7259 85.0496C28.9156 84.1249 28.5104 82.6938 28.5103 80.7563V75.3727C28.5103 73.5011 28.9266 72.1139 29.7589 71.2111C30.5912 70.2864 31.7958 69.8242 33.3727 69.8242ZM33.4057 72.598C32.88 72.598 32.485 72.7966 32.2222 73.1929C31.9595 73.5672 31.8283 74.1616 31.8283 74.9758V76.5616H34.9822V74.9758C34.9822 74.1395 34.851 73.534 34.5883 73.1598C34.3475 72.7855 33.953 72.5981 33.4057 72.598Z" fill="#111111"/>
<path fill-rule="evenodd" clip-rule="evenodd" d="M49.7779 63.6808C49.9748 63.6809 50.0737 63.8018 50.0738 64.0437V82.1101C50.0738 82.9468 50.084 83.6734 50.1059 84.2899C50.1278 84.9064 50.1499 85.413 50.1718 85.8094C50.1937 86.0955 50.106 86.2385 49.9089 86.2385H47.5766C47.4014 86.2385 47.2916 86.1281 47.2478 85.9079C47.204 85.5117 47.1606 85.0159 47.1168 84.4216C47.1144 84.3565 47.1112 84.2929 47.1088 84.2308C46.6577 84.8438 46.1579 85.3488 45.6053 85.7431C44.9263 86.2055 44.1925 86.4365 43.404 86.4365C42.3966 86.4365 41.6415 86.095 41.1377 85.4125C40.6559 84.7299 40.415 83.6515 40.415 82.1764V74.5798C40.415 72.9946 40.7104 71.8058 41.3017 71.0131C41.915 70.2205 42.802 69.8242 43.9628 69.8242C44.576 69.8242 45.1457 69.9013 45.6713 70.0554C46.0538 70.1631 46.4036 70.2935 46.722 70.4442V64.0437C46.7221 63.8017 46.8319 63.6808 47.0508 63.6808H49.7779ZM45.1784 72.6975C44.7185 72.6975 44.3677 72.8738 44.1268 73.2261C43.886 73.5784 43.7659 74.1289 43.7659 74.8773V81.8458C43.7659 82.4183 43.8536 82.8256 44.0288 83.0678C44.204 83.2879 44.4774 83.3984 44.8496 83.3984C45.2 83.3984 45.5508 83.2769 45.9012 83.0347C46.1626 82.8375 46.4362 82.5606 46.722 82.2042V73.106C46.1097 72.8343 45.5955 72.6975 45.1784 72.6975Z" fill="#111111"/>
<path fill-rule="evenodd" clip-rule="evenodd" d="M62.7876 69.8242C64.3644 69.8242 65.5036 70.1761 66.2045 70.8805C66.9053 71.5851 67.2561 72.7747 67.2561 74.4481V82.1101C67.2561 83.0567 67.2672 83.8271 67.2891 84.4216C67.311 85.0161 67.3331 85.4902 67.355 85.8425C67.3768 86.1063 67.2999 86.2383 67.1251 86.2385H64.7589C64.562 86.2384 64.4529 86.128 64.431 85.9079C64.3872 85.5337 64.3429 85.0714 64.2991 84.521C64.2952 84.4701 64.2921 84.4195 64.2884 84.3696C63.7042 85.0578 63.1829 85.56 62.7226 85.8748C62.1751 86.249 61.5398 86.4365 60.8172 86.4365C59.8973 86.4365 59.1847 86.0514 58.681 85.2808C58.1773 84.5102 57.9261 83.442 57.9261 82.0769C57.9261 80.5578 58.265 79.3578 58.9439 78.4771C59.6228 77.5964 60.751 77.0573 62.3278 76.8591L63.9052 76.6602V74.415C63.9052 73.7106 63.8174 73.226 63.6423 72.9618C63.489 72.6976 63.1714 72.5649 62.6896 72.5649C62.2079 72.5649 61.8681 72.719 61.6709 73.0272C61.4957 73.3134 61.4413 73.809 61.507 74.5135C61.5289 74.7557 61.419 74.8773 61.1781 74.8773H58.8129C58.572 74.8773 58.4409 74.723 58.419 74.415C58.3095 72.9618 58.627 71.8389 59.3717 71.0463C60.1163 70.2317 61.2547 69.8243 62.7876 69.8242ZM62.9855 78.9394C62.3722 79.0055 61.9116 79.2699 61.605 79.7323C61.2985 80.1727 61.1451 80.8113 61.1451 81.6478C61.1451 82.2863 61.2328 82.7819 61.408 83.1341C61.5832 83.4864 61.8353 83.6627 62.1638 83.6627C62.4923 83.6627 62.8209 83.5301 63.1494 83.2658C63.3681 83.0753 63.6187 82.8005 63.9052 82.4443V78.8104L62.9855 78.9394Z" fill="#111111"/>
<path fill-rule="evenodd" clip-rule="evenodd" d="M97.2128 69.8242C98.7896 69.8242 99.9288 70.1761 100.63 70.8805C101.331 71.5851 101.681 72.7747 101.681 74.4481V82.1101C101.681 83.0567 101.692 83.8271 101.714 84.4216C101.736 85.0161 101.758 85.4902 101.78 85.8425C101.802 86.1063 101.725 86.2383 101.55 86.2385H99.1842C98.9872 86.2384 98.8781 86.128 98.8562 85.9079C98.8124 85.5337 98.7681 85.0714 98.7243 84.521C98.7204 84.4701 98.7173 84.4195 98.7136 84.3696C98.1295 85.0578 97.6081 85.56 97.1478 85.8748C96.6003 86.249 95.965 86.4365 95.2424 86.4365C94.3225 86.4365 93.6099 86.0514 93.1062 85.2808C92.6025 84.5102 92.3513 83.442 92.3513 82.0769C92.3514 80.5578 92.6902 79.3578 93.3691 78.4771C94.048 77.5964 95.1762 77.0573 96.753 76.8591L98.3304 76.6602V74.415C98.3304 73.7106 98.2426 73.226 98.0675 72.9618C97.9142 72.6976 97.5966 72.5649 97.1148 72.5649C96.6331 72.5649 96.2933 72.719 96.0962 73.0272C95.921 73.3134 95.8665 73.809 95.9322 74.5135C95.9541 74.7557 95.8443 74.8773 95.6033 74.8773H93.2381C92.9972 74.8773 92.8661 74.723 92.8442 74.415C92.7347 72.9618 93.0522 71.8389 93.7969 71.0463C94.5415 70.2317 95.6799 69.8243 97.2128 69.8242ZM97.4107 78.9394C96.7974 79.0055 96.3368 79.2699 96.0302 79.7323C95.7237 80.1727 95.5704 80.8113 95.5704 81.6478C95.5704 82.2863 95.6581 82.7819 95.8333 83.1341C96.0085 83.4864 96.2605 83.6627 96.589 83.6627C96.9175 83.6627 97.2461 83.5301 97.5747 83.2658C97.7933 83.0753 98.0439 82.8005 98.3304 82.4443V78.8104L97.4107 78.9394Z" fill="#111111"/>
<path d="M108.242 69.8242C109.753 69.8242 110.87 70.2094 111.593 70.98C112.316 71.7505 112.633 72.8403 112.546 74.2492C112.546 74.4914 112.436 74.613 112.217 74.613H109.754C109.666 74.613 109.59 74.5906 109.524 74.5467C109.458 74.4806 109.436 74.3598 109.458 74.1838C109.502 73.6335 109.425 73.2148 109.228 72.9286C109.053 72.6204 108.746 72.4664 108.308 72.4663C107.564 72.4663 107.191 72.9063 107.191 73.7869C107.191 74.2493 107.278 74.6353 107.454 74.9436C107.629 75.2517 107.914 75.5711 108.308 75.9013L110.575 77.6179C111.341 78.2124 111.889 78.8295 112.217 79.468C112.567 80.1065 112.743 80.9213 112.743 81.9121C112.743 83.4093 112.36 84.5433 111.593 85.3139C110.827 86.0625 109.676 86.4365 108.143 86.4365C106.523 86.4365 105.362 86.018 104.661 85.1813C103.983 84.3226 103.708 83.0569 103.84 81.3835C103.862 81.1633 103.96 81.0529 104.136 81.0529H106.698C106.895 81.0529 106.983 81.1633 106.961 81.3835C106.939 82.2419 107.005 82.8583 107.158 83.2327C107.333 83.585 107.673 83.7613 108.176 83.7613C109.031 83.7613 109.458 83.1999 109.458 82.0769C109.458 81.5486 109.359 81.1188 109.162 80.7886C108.987 80.4585 108.68 80.1287 108.242 79.7986L105.909 78.0148C105.23 77.5084 104.716 76.9246 104.366 76.2642C104.037 75.6036 103.873 74.8111 103.873 73.8864C103.873 72.5653 104.234 71.5631 104.956 70.8805C105.701 70.1759 106.797 69.8242 108.242 69.8242Z" fill="#111111"/>
<path fill-rule="evenodd" clip-rule="evenodd" d="M158.634 69.8242C160.211 69.8242 161.35 70.1761 162.051 70.8805C162.752 71.5851 163.103 72.7747 163.103 74.4481V82.1101C163.103 83.0567 163.114 83.8271 163.136 84.4216C163.158 85.0161 163.18 85.4902 163.202 85.8425C163.223 86.1063 163.147 86.2383 162.972 86.2385H160.606C160.409 86.2384 160.3 86.128 160.278 85.9079C160.234 85.5337 160.19 85.0714 160.146 84.521C160.142 84.4701 160.139 84.4195 160.135 84.3696C159.551 85.0578 159.03 85.56 158.569 85.8748C158.022 86.249 157.386 86.4365 156.664 86.4365C155.744 86.4365 155.031 86.0514 154.528 85.2808C154.024 84.5102 153.773 83.442 153.773 82.0769C153.773 80.5578 154.112 79.3578 154.791 78.4771C155.469 77.5964 156.598 77.0573 158.174 76.8591L159.752 76.6602V74.415C159.752 73.7106 159.664 73.226 159.489 72.9618C159.336 72.6976 159.018 72.5649 158.536 72.5649C158.054 72.5649 157.715 72.719 157.518 73.0272C157.342 73.3134 157.288 73.809 157.354 74.5135C157.376 74.7557 157.266 74.8773 157.025 74.8773H154.66C154.419 74.8773 154.288 74.723 154.266 74.415C154.156 72.9618 154.474 71.8389 155.218 71.0463C155.963 70.2317 157.101 69.8243 158.634 69.8242ZM158.832 78.9394C158.219 79.0055 157.758 79.2699 157.452 79.7323C157.145 80.1727 156.992 80.8113 156.992 81.6478C156.992 82.2863 157.079 82.7819 157.255 83.1341C157.43 83.4864 157.682 83.6627 158.01 83.6627C158.339 83.6627 158.668 83.5301 158.996 83.2658C159.215 83.0753 159.465 82.8005 159.752 82.4443V78.8104L158.832 78.9394Z" fill="#111111"/>
<path d="M170.288 69.8242C171.317 69.8242 172.193 70.0442 172.916 70.4845C173.638 70.9249 174.165 71.5522 174.493 72.3669C174.844 73.1814 174.975 74.1282 174.887 75.207C174.865 75.5151 174.745 75.67 174.526 75.6702H172.128C172.018 75.6702 171.931 75.6367 171.865 75.5707C171.821 75.5047 171.81 75.4165 171.832 75.3064C171.876 74.4699 171.777 73.8535 171.536 73.4572C171.295 73.0389 170.89 72.8292 170.321 72.8292C169.751 72.8292 169.335 73.0278 169.072 73.4241C168.809 73.8204 168.678 74.5028 168.678 75.4713V80.69C168.678 81.6806 168.798 82.3852 169.039 82.8035C169.302 83.1998 169.729 83.3984 170.321 83.3984C170.868 83.3984 171.251 83.2109 171.47 82.8367C171.711 82.4404 171.821 81.813 171.799 80.9543C171.799 80.6681 171.898 80.5252 172.095 80.5252H174.559C174.778 80.5253 174.887 80.646 174.887 80.888C174.909 82.7375 174.548 84.1249 173.803 85.0496C173.059 85.9744 171.897 86.4365 170.321 86.4365C168.656 86.4365 167.408 85.9632 166.576 85.0165C165.743 84.0697 165.327 82.6387 165.327 80.7232V75.4059C165.327 73.5343 165.743 72.1359 166.576 71.2111C167.408 70.2865 168.645 69.8243 170.288 69.8242Z" fill="#111111"/>
<path d="M181.019 65.728C181.216 65.728 181.315 65.8385 181.315 66.0586V70.0222H184.173C184.37 70.0222 184.469 70.132 184.469 70.3519V72.6643C184.469 72.9064 184.37 73.0272 184.173 73.0272H181.315V81.1523C181.315 81.967 181.414 82.5507 181.611 82.903C181.808 83.255 182.158 83.4315 182.662 83.4316C182.925 83.4316 183.177 83.4093 183.418 83.3653C183.658 83.2992 183.911 83.2111 184.173 83.101C184.392 83.0129 184.502 83.0899 184.502 83.3321V85.6436C184.502 85.8638 184.414 85.9965 184.239 86.0405C183.933 86.1726 183.571 86.2719 183.155 86.338C182.739 86.404 182.301 86.4365 181.841 86.4365C180.439 86.4365 179.442 86.0514 178.851 85.2808C178.26 84.4881 177.964 83.1779 177.964 81.3503V73.0272H176.519C176.3 73.0272 176.19 72.9064 176.19 72.6643V70.3519C176.19 70.132 176.3 70.0222 176.519 70.0222H178.062L178.424 66.0255C178.446 65.8275 178.545 65.728 178.72 65.728H181.019Z" fill="#111111"/>
<path d="M196.334 64.4074C197.692 64.4074 198.831 64.7156 199.751 65.332C200.67 65.9485 201.328 66.8182 201.722 67.941C202.138 69.0639 202.259 70.3853 202.084 71.9046C202.04 72.1247 201.941 72.2351 201.788 72.2352H198.93C198.711 72.2352 198.623 72.1136 198.667 71.8714C198.776 70.4623 198.644 69.3941 198.272 68.6676C197.9 67.9413 197.243 67.5782 196.302 67.5781C195.448 67.5781 194.812 67.8974 194.396 68.5359C193.98 69.1744 193.772 70.2202 193.772 71.6734V79.1042C193.772 80.6015 193.98 81.6696 194.396 82.3081C194.834 82.9464 195.48 83.2657 196.334 83.2658C197.319 83.2658 197.977 82.8807 198.305 82.1101C198.634 81.3174 198.766 80.2716 198.7 78.9725C198.678 78.7083 198.766 78.5765 198.963 78.5765H201.755C201.952 78.5765 202.073 78.7083 202.117 78.9725C202.292 81.2842 201.887 83.1117 200.901 84.4547C199.937 85.7758 198.414 86.4365 196.334 86.4365C194.385 86.4364 192.895 85.8639 191.866 84.719C190.859 83.5521 190.355 81.7469 190.355 79.3031V71.5417C190.355 69.1639 190.859 67.3802 191.866 66.1912C192.895 65.0023 194.385 64.4075 196.334 64.4074Z" fill="#111111"/>
<path fill-rule="evenodd" clip-rule="evenodd" d="M221.33 69.8242C222.973 69.8243 224.199 70.2865 225.009 71.2111C225.841 72.1358 226.257 73.5558 226.258 75.4713V78.5765C226.257 78.7963 226.148 78.9061 225.93 78.9062H219.786V80.9212C219.786 81.8899 219.907 82.5832 220.147 83.0015C220.41 83.4198 220.837 83.6295 221.428 83.6296C221.954 83.6296 222.327 83.4866 222.546 83.2004C222.787 82.8922 222.896 82.418 222.874 81.7795C222.852 81.5376 222.94 81.4167 223.137 81.4166H225.732C225.929 81.4166 226.027 81.5265 226.028 81.7463C226.071 83.2876 225.699 84.455 224.911 85.2476C224.144 86.0403 222.983 86.4365 221.428 86.4365C219.764 86.4365 218.516 85.9743 217.683 85.0496C216.873 84.1249 216.468 82.6938 216.468 80.7563V75.3727C216.468 73.5011 216.884 72.1139 217.716 71.2111C218.549 70.2864 219.753 69.8242 221.33 69.8242ZM221.363 72.598C220.837 72.598 220.442 72.7966 220.18 73.1929C219.917 73.5672 219.786 74.1616 219.786 74.9758V76.5616H222.94V74.9758C222.94 74.1395 222.808 73.534 222.546 73.1598C222.305 72.7855 221.91 72.5981 221.363 72.598Z" fill="#111111"/>
<path d="M233.267 69.8242C234.296 69.8242 235.172 70.0442 235.895 70.4845C236.618 70.9249 237.144 71.5522 237.472 72.3669C237.823 73.1814 237.954 74.1282 237.866 75.207C237.844 75.5151 237.724 75.67 237.505 75.6702H235.107C234.998 75.6702 234.91 75.6367 234.844 75.5707C234.8 75.5047 234.789 75.4165 234.811 75.3064C234.855 74.4699 234.756 73.8535 234.515 73.4572C234.274 73.0389 233.869 72.8292 233.3 72.8292C232.73 72.8292 232.314 73.0278 232.051 73.4241C231.789 73.8204 231.657 74.5028 231.657 75.4713V80.69C231.657 81.6806 231.777 82.3852 232.018 82.8035C232.281 83.1998 232.708 83.3984 233.3 83.3984C233.847 83.3984 234.23 83.2109 234.449 82.8367C234.69 82.4404 234.8 81.813 234.778 80.9543C234.778 80.6681 234.877 80.5252 235.074 80.5252H237.538C237.757 80.5253 237.866 80.646 237.866 80.888C237.888 82.7375 237.527 84.1249 236.783 85.0496C236.038 85.9744 234.877 86.4365 233.3 86.4365C231.635 86.4365 230.387 85.9632 229.555 85.0165C228.723 84.0697 228.306 82.6387 228.306 80.7232V75.4059C228.306 73.5343 228.723 72.1359 229.555 71.2111C230.387 70.2865 231.624 69.8243 233.267 69.8242Z" fill="#111111"/>
<path d="M15.3937 64.6054C15.6126 64.6055 15.7327 64.6936 15.7546 64.8697L18.7446 76.4622L21.7666 64.8697C21.7885 64.6936 21.9094 64.6054 22.1285 64.6054H25.7093C25.9064 64.6054 26.0052 64.727 26.0052 64.9692L26.3011 85.8748C26.3011 86.117 26.2022 86.2385 26.0052 86.2385H23.2122C23.0153 86.2384 22.9172 86.1168 22.9172 85.8748L22.8183 75.1747C22.7963 74.2059 22.7964 73.2918 22.8183 72.4332C22.8621 71.5525 22.9063 70.7488 22.9501 70.0222H22.9172C22.7639 70.7047 22.5884 71.3981 22.3914 72.1026C22.1942 72.7851 21.9857 73.4681 21.7666 74.1507L19.1385 83.2004C19.0946 83.3762 18.9854 83.4637 18.8105 83.4638H18.6786C18.5255 83.4638 18.4266 83.3763 18.3828 83.2004L15.7216 74.1507C15.5026 73.4681 15.2949 72.7851 15.0978 72.1026C14.9226 71.3981 14.7583 70.7047 14.605 70.0222H14.539C14.6047 70.7488 14.649 71.5525 14.6709 72.4332C14.7147 73.2918 14.7258 74.2059 14.7039 75.1747L14.605 85.8748C14.605 86.117 14.5062 86.2385 14.3091 86.2385H11.517C11.3198 86.2385 11.2211 86.117 11.2211 85.8748L11.484 64.9692C11.484 64.727 11.5938 64.6054 11.8128 64.6054H15.3937Z" fill="#111111"/>
<path d="M55.568 70.0222C55.765 70.0222 55.8638 70.132 55.8639 70.3519V85.8748C55.8639 86.117 55.7651 86.2385 55.568 86.2385H52.8089C52.6117 86.2385 52.513 86.117 52.513 85.8748V70.3519C52.5131 70.132 52.6119 70.0222 52.8089 70.0222H55.568Z" fill="#111111"/>
<path fill-rule="evenodd" clip-rule="evenodd" d="M78.5476 64.6054C80.475 64.6054 81.9094 65.0573 82.8512 65.9601C83.793 66.8408 84.2646 68.1836 84.2646 69.9891C84.2646 71.134 84.056 72.1028 83.6399 72.8955C83.2237 73.6881 82.5886 74.3154 81.7345 74.7778V74.8441C82.7637 75.1743 83.5411 75.7797 84.0668 76.6602C84.6143 77.5409 84.8885 78.6646 84.8885 80.0297C84.8884 82.0992 84.3844 83.6511 83.377 84.6859C82.3914 85.7207 80.8803 86.2385 78.8435 86.2385H74.3429C74.102 86.2385 73.9811 86.117 73.9811 85.8748V64.9692C73.9811 64.727 74.102 64.6054 74.3429 64.6054H78.5476ZM77.4309 83.2658H78.8105C79.7084 83.2658 80.3767 82.98 80.8148 82.4075C81.2747 81.8351 81.5045 80.9653 81.5046 79.7986C81.5046 78.6978 81.2746 77.8718 80.8148 77.3214C80.3767 76.7709 79.7195 76.4953 78.8435 76.4953H77.4309V83.2658ZM77.4309 73.7538H78.6135C79.3581 73.7538 79.9166 73.479 80.289 72.9286C80.6832 72.3782 80.8807 71.5744 80.8807 70.5177C80.8807 69.4828 80.6943 68.734 80.322 68.2716C79.9496 67.8092 79.3579 67.5781 78.5476 67.5781H77.4309V73.7538Z" fill="#111111"/>
<path d="M89.9932 70.0222C90.1902 70.0222 90.289 70.132 90.2891 70.3519V85.8748C90.2891 86.117 90.1904 86.2385 89.9932 86.2385H87.2341C87.037 86.2385 86.9382 86.117 86.9382 85.8748V70.3519C86.9383 70.132 87.0371 70.0222 87.2341 70.0222H89.9932Z" fill="#111111"/>
<path d="M125.165 86.2385H122.174L131.413 65.1376H134.404L125.165 86.2385Z" fill="#111111"/>
<path d="M152.811 64.6054C153.008 64.6055 153.107 64.7271 153.107 64.9692V67.3801C153.107 67.622 153.008 67.7429 152.811 67.743H147.226V74.0844H152.055C152.252 74.0844 152.351 74.2059 152.351 74.4481V76.7928C152.351 77.0128 152.252 77.1233 152.055 77.1234H147.226V85.8748C147.226 86.117 147.138 86.2385 146.963 86.2385H144.072C143.875 86.2385 143.776 86.117 143.776 85.8748V64.9692C143.776 64.727 143.875 64.6054 144.072 64.6054H152.811Z" fill="#111111"/>
<path d="M207.528 63.6808C207.725 63.6808 207.824 63.8017 207.824 64.0437V71.6627C208.232 71.2256 208.659 70.8547 209.105 70.5508C209.806 70.0665 210.562 69.8243 211.372 69.8242C212.335 69.8242 213.048 70.1648 213.508 70.8474C213.99 71.5079 214.231 72.5539 214.231 73.9849V85.8748C214.231 86.1169 214.132 86.2385 213.935 86.2385H211.175C210.978 86.2384 210.879 86.1169 210.879 85.8748V74.4481C210.879 73.876 210.792 73.4683 210.617 73.2261C210.442 72.9619 210.168 72.8292 209.795 72.8292C209.467 72.8292 209.116 72.9618 208.744 73.2261C208.444 73.4329 208.139 73.7215 207.824 74.0888V85.8748C207.824 86.117 207.725 86.2385 207.528 86.2385H204.769C204.572 86.2385 204.473 86.117 204.473 85.8748V64.0437C204.473 63.8017 204.572 63.6808 204.769 63.6808H207.528Z" fill="#111111"/>
<path d="M243.14 63.6808C243.337 63.6808 243.436 63.8017 243.436 64.0437V73.9527C243.436 74.4369 243.425 74.9216 243.403 75.4059C243.381 75.8901 243.36 76.3525 243.338 76.7928H243.37C243.589 76.2203 243.82 75.6811 244.061 75.1747C244.302 74.6463 244.553 74.1062 244.816 73.5558L246.557 70.1871C246.623 70.077 246.733 70.0222 246.886 70.0222H249.941C250.182 70.0222 250.248 70.154 250.138 70.4182L246.689 76.5616L250.401 85.8094C250.51 86.0956 250.445 86.2385 250.204 86.2385H247.083C246.908 86.2385 246.798 86.1615 246.754 86.0074L244.389 79.5343L243.436 81.2518V85.8748C243.436 86.117 243.349 86.2385 243.173 86.2385H240.381C240.184 86.2385 240.085 86.117 240.085 85.8748V64.0437C240.085 63.8017 240.184 63.6808 240.381 63.6808H243.14Z" fill="#111111"/>
<path d="M54.2214 63.3834C54.8784 63.3834 55.3714 63.5486 55.6999 63.8788C56.0502 64.187 56.2257 64.6494 56.2257 65.2657V65.728C56.2257 66.3225 56.0504 66.7856 55.6999 67.1158C55.3714 67.4241 54.8784 67.5781 54.2214 67.5781C53.5863 67.5781 53.0823 67.4241 52.7099 67.1158C52.3595 66.7856 52.1841 66.3225 52.1841 65.728V65.2657C52.1842 64.6494 52.3596 64.187 52.7099 63.8788C53.0823 63.5486 53.5863 63.3834 54.2214 63.3834Z" fill="#111111"/>
<path d="M88.6466 63.3834C89.3037 63.3834 89.7966 63.5486 90.1251 63.8788C90.4755 64.187 90.6509 64.6494 90.6509 65.2657V65.728C90.6509 66.3225 90.4756 66.7856 90.1251 67.1158C89.7966 67.4241 89.3036 67.5781 88.6466 67.5781C88.0115 67.5781 87.5075 67.4241 87.1352 67.1158C86.7847 66.7856 86.6094 66.3225 86.6094 65.728V65.2657C86.6094 64.6494 86.7848 64.187 87.1352 63.8788C87.5075 63.5486 88.0115 63.3834 88.6466 63.3834Z" fill="#111111"/>
<path fill-rule="evenodd" clip-rule="evenodd" d="M130.5 0C136.548 0 141.451 4.92898 141.451 11.0092V22.0183H144.189V19.2661H146.014V33.0275C146.014 40.702 140.5 47.0811 133.238 48.3811V54.1284H136.888C139.912 54.1284 142.364 56.5929 142.364 59.633H118.636C118.636 56.5929 121.088 54.1284 124.112 54.1284H127.762V48.3811C120.5 47.0811 114.986 40.702 114.986 33.0275V19.2661H116.811V22.0183H119.549V11.0092C119.549 4.92898 124.452 0 130.5 0ZM116.811 33.0275C116.811 40.6278 122.94 46.789 130.5 46.789C138.06 46.789 144.189 40.6278 144.189 33.0275V22.9358H141.451V33.945C141.451 40.0252 136.548 44.9541 130.5 44.9541C124.452 44.9541 119.549 40.0252 119.549 33.945V22.9358H116.811V33.0275Z" fill="#111111"/>
</svg>
