<svg width="232" height="83" viewBox="0 0 232 83" fill="none" xmlns="http://www.w3.org/2000/svg">
<path d="M126.679 31.9574L134.316 39.5792C135.531 38.1707 136.579 36.6264 137.438 34.9774L121.251 28.2823C122.075 27.2722 122.586 26.0455 122.724 24.751L138.911 31.4461C139.488 29.6626 139.854 27.8178 140 25.9494H129.209C129.308 25.3149 129.361 24.6741 129.369 24.032C129.362 23.3898 129.309 22.749 129.209 22.1145H140C139.854 20.2461 139.488 18.4013 138.911 16.6178L122.724 23.3129C122.586 22.0184 122.075 20.7917 121.251 19.7816L137.438 13.0866C136.582 11.4208 135.534 9.86029 134.316 8.43675L126.679 16.0586C125.911 15.0342 125 14.1248 123.973 13.3582L131.61 5.73635C130.185 4.5197 128.621 3.47396 126.951 2.62051L120.179 18.727C119.167 17.9056 117.938 17.395 116.64 17.257L123.381 1.10253C121.594 0.526695 119.745 0.16202 117.873 0.0159787V10.7696C116.601 10.5649 115.303 10.5649 114.031 10.7696V0C112.159 0.146041 110.31 0.510716 108.523 1.08655L115.231 17.241C113.934 17.379 112.705 17.8897 111.693 18.7111L105.017 2.55659C103.348 3.41093 101.784 4.4566 100.358 5.67244L107.995 13.2943C106.968 14.0606 106.057 14.97 105.289 15.9947L97.6518 8.37284C96.4434 9.80286 95.4064 11.3687 94.5617 13.0386L110.749 19.7337C109.926 20.7442 109.415 21.9707 109.276 23.265L93.0887 16.5699C92.5118 18.3533 92.1463 20.1982 92 22.0666H102.791C102.588 23.3368 102.588 24.6312 102.791 25.9015H92C92.1463 27.7699 92.5118 29.6147 93.0887 31.3981L109.276 24.7031C109.414 25.9976 109.925 27.2243 110.749 28.2344L94.5617 34.9774C95.4181 36.6429 96.4659 38.2034 97.6838 39.6272L105.321 32.0053C106.089 33.0299 107 33.9392 108.027 34.7057L100.39 42.3276C101.815 43.5442 103.379 44.59 105.049 45.4434L111.757 29.2889C112.769 30.1103 113.998 30.621 115.296 30.759L108.587 46.9134C110.374 47.4893 112.223 47.854 114.095 48V37.1664C115.367 37.3712 116.665 37.3712 117.937 37.1664V47.9361C119.809 47.79 121.658 47.4254 123.445 46.8495L116.737 30.6951C118 30.5393 119.193 30.0296 120.179 29.225L126.887 45.3795C128.557 44.526 130.121 43.4803 131.546 42.2636L123.909 34.6418C124.957 33.885 125.89 32.9808 126.679 31.9574Z" fill="#111111"/>
<path d="M172.312 68.0645C171.174 64.7836 169.316 63.5905 166.442 63.5905C162.104 63.5905 159.799 67.7798 159.799 72.2538C159.799 77.7581 162.266 81.7441 166.469 81.7441C169.777 81.7441 171.255 79.8867 172.936 76.904L173.37 76.9854C173.004 78.2055 172.367 80.4968 171.919 81.5814C170.145 82.0412 168.327 82.3094 166.496 82.3813C165.238 82.4268 163.983 82.2125 162.811 81.7516C161.639 81.2908 160.575 80.5934 159.684 79.7029C158.794 78.8124 158.096 77.7479 157.636 76.5759C157.175 75.4039 156.96 74.1495 157.006 72.891C156.977 71.5702 157.219 70.2575 157.717 69.0337C158.214 67.8099 158.957 66.7009 159.9 65.775C160.842 64.8491 161.964 64.126 163.196 63.65C164.429 63.1741 165.746 62.9554 167.066 63.0075C168.812 63.0429 170.546 63.2933 172.231 63.7532C172.462 65.3259 172.57 66.5732 172.746 68.0509L172.312 68.0645Z" fill="#111111"/>
<path d="M185.002 79.4124C184.531 80.1806 183.895 80.8345 183.14 81.3268C182.385 81.8192 181.53 82.1377 180.637 82.2595C179.859 82.2633 179.089 82.1065 178.374 81.7989C177.66 81.4914 177.016 81.0397 176.485 80.4721C175.953 79.9046 175.544 79.2334 175.283 78.5005C175.022 77.7676 174.916 76.9888 174.97 76.2129C174.966 74.4547 175.58 72.7511 176.705 71.3999C177.233 70.7497 177.893 70.2181 178.64 69.8396C179.388 69.4612 180.207 69.2445 181.044 69.2036C182.109 69.2439 183.121 69.6853 183.875 70.4395C184.629 71.1937 185.071 72.205 185.111 73.2709C185.111 73.9894 185.029 74.0437 184.541 74.1521C184.053 74.2606 180.61 74.5182 177.017 74.6402C176.936 79.0599 179.728 80.5377 181.749 80.5377C182.878 80.4598 183.941 79.9786 184.745 79.182L185.002 79.4124ZM177.139 73.7454C178.847 73.7454 180.528 73.7454 182.237 73.7454C182.63 73.7454 182.752 73.5691 182.752 72.8641C182.764 72.5149 182.707 72.1666 182.583 71.8399C182.459 71.5132 182.271 71.2147 182.029 70.962C181.788 70.7092 181.498 70.5074 181.178 70.3684C180.857 70.2294 180.512 70.156 180.162 70.1526C178.793 70.0306 177.424 71.2779 177.139 73.7318V73.7454Z" fill="#111111"/>
<path d="M190.831 71.3997C191.401 71.0337 192.187 70.4914 192.879 70.044C193.546 69.5434 194.35 69.2553 195.183 69.217C195.681 69.1822 196.179 69.257 196.645 69.4363C197.11 69.6156 197.53 69.8949 197.875 70.2544C198.221 70.6139 198.483 71.045 198.643 71.517C198.803 71.989 198.858 72.4905 198.803 72.986V79.3716C198.803 80.9442 198.952 81.2289 200.539 81.5408V81.9339H194.587V81.5136C196.526 81.2018 196.675 80.9171 196.675 79.3444V73.8536C196.675 72.1996 196.159 70.6269 193.963 70.6269C192.82 70.7413 191.742 71.2161 190.886 71.9827V79.3038C190.886 80.8764 191.021 81.1611 192.797 81.473V81.8661H186.696V81.5136C188.608 81.2018 188.743 80.9171 188.743 79.3444V72.769C188.743 71.0879 188.743 70.9116 186.859 70.6812V70.288C188.248 70.0412 189.611 69.6598 190.926 69.1492V71.3997H190.831Z" fill="#111111"/>
<path d="M205.434 78.1515C205.434 80.4021 206.518 80.863 207.318 80.863C207.965 80.8019 208.59 80.5982 209.148 80.2665L209.352 80.6325L207.02 81.9883C206.786 82.1329 206.521 82.221 206.247 82.2459C204.227 82.2459 203.305 81.0799 203.305 78.9107V70.4915H201.231L201.149 70.2068L202.031 69.556H203.319V67.8884L205.081 65.7192L205.434 65.8684V69.5425H208.823C208.875 69.6161 208.911 69.6996 208.928 69.7878C208.946 69.876 208.946 69.9669 208.926 70.0548C208.907 70.1427 208.87 70.2257 208.817 70.2985C208.765 70.3713 208.697 70.4324 208.62 70.4779H205.434V78.1515Z" fill="#111111"/>
<path d="M220.509 79.4124C220.038 80.1806 219.401 80.8345 218.647 81.3268C217.892 81.8192 217.037 82.1377 216.144 82.2595C215.366 82.2633 214.596 82.1065 213.881 81.7989C213.167 81.4914 212.523 81.0397 211.991 80.4721C211.459 79.9046 211.05 79.2334 210.79 78.5005C210.529 77.7676 210.422 76.9888 210.477 76.2129C210.473 74.4547 211.087 72.7511 212.212 71.3999C212.74 70.7497 213.4 70.2181 214.147 69.8396C214.895 69.4612 215.714 69.2445 216.55 69.2036C217.616 69.2439 218.627 69.6853 219.382 70.4395C220.136 71.1937 220.577 72.205 220.618 73.2709C220.618 73.9894 220.536 74.0437 220.048 74.1521C219.56 74.2606 216.117 74.5182 212.524 74.6402C212.442 79.0599 215.235 80.5377 217.255 80.5377C218.384 80.4598 219.448 79.9786 220.252 79.182L220.509 79.4124ZM212.646 73.7454C214.354 73.7454 216.035 73.7454 217.743 73.7454C218.137 73.7454 218.259 73.5691 218.259 72.8641C218.271 72.5149 218.214 72.1666 218.09 71.8399C217.966 71.5132 217.777 71.2147 217.536 70.962C217.295 70.7092 217.005 70.5074 216.684 70.3684C216.364 70.2294 216.019 70.156 215.669 70.1526C214.3 70.0306 212.931 71.2779 212.646 73.7318V73.7454Z" fill="#111111"/>
<path d="M226.339 79.358C226.339 80.9307 226.475 81.2154 228.671 81.5272V81.9204H222.231V81.5136C224.062 81.2018 224.197 80.9171 224.197 79.3444V72.769C224.197 71.0879 224.197 70.9116 222.313 70.6812V70.288C223.702 70.0416 225.065 69.6602 226.38 69.1492V72.2267C227.031 71.0066 228.373 69.2034 229.715 69.2034C230.087 69.2104 230.444 69.3513 230.721 69.6004C230.997 69.8494 231.174 70.1899 231.22 70.5592C231.22 70.8426 231.14 71.1203 230.988 71.3602C230.837 71.6 230.622 71.7923 230.366 71.9149C230.27 71.9796 230.156 72.0142 230.041 72.0142C229.925 72.0142 229.811 71.9796 229.715 71.9149C229.4 71.5711 228.961 71.3663 228.495 71.3455C227.844 71.3455 227.139 71.8336 226.326 73.3113V79.4393L226.339 79.358Z" fill="#111111"/>
<path d="M56.0744 78.1202C56.0744 81.1977 56.3049 81.5367 58.6368 81.8485V82.2417H51.2344V81.8485C53.6341 81.5367 53.851 81.1977 53.851 78.1202V67.8571C53.851 64.7796 53.6205 64.4406 51.3428 64.1288V63.7221H59.2198C60.7716 63.6201 62.3211 63.9535 63.6937 64.6847C64.2968 65.0797 64.7864 65.625 65.1145 66.2669C65.4426 66.9088 65.5977 67.6251 65.5647 68.3452C65.5282 69.479 65.1371 70.5728 64.4464 71.4726C63.7557 72.3725 62.8002 73.0331 61.7143 73.3615C62.2024 74.2156 63.3684 76.1543 64.2225 77.4287C65.0129 78.588 65.8684 79.7015 66.7849 80.7639C67.2842 81.4763 68.044 81.9634 68.8998 82.1197V82.4586C68.5609 82.4586 68.0728 82.4586 67.1916 82.3501C66.3645 82.3191 65.5585 82.0806 64.8478 81.6565C64.1371 81.2325 63.5444 80.6365 63.1243 79.9233C61.9855 78.2964 60.9822 76.4797 60.1281 75.0426C59.9384 74.6761 59.6395 74.3775 59.2728 74.188C58.9061 73.9986 58.4897 73.9277 58.0809 73.9851H56.0744V78.0524V78.1202ZM56.0744 73.4157H58.1894C59.3267 73.5352 60.4714 73.2728 61.4432 72.67C62.0078 72.1955 62.4528 71.5948 62.7425 70.9166C63.0322 70.2383 63.1583 69.5015 63.1108 68.7655C63.1741 68.1648 63.1029 67.5574 62.9022 66.9877C62.7016 66.4179 62.3765 65.9 61.9507 65.4716C61.5248 65.0432 61.0089 64.715 60.4404 64.5108C59.8719 64.3067 59.265 64.2318 58.6639 64.2915C57.8858 64.2862 57.1092 64.3588 56.3456 64.5084C56.1693 64.5626 56.0744 64.6982 56.0744 65.2812V73.4157Z" fill="#111111"/>
<path d="M79.1215 79.7472C78.65 80.5153 78.0138 81.1692 77.2588 81.6615C76.5039 82.1539 75.649 82.4725 74.7559 82.5942C73.9781 82.598 73.2079 82.4412 72.4934 82.1336C71.7789 81.8261 71.1356 81.3744 70.6037 80.8069C70.0718 80.2393 69.6627 79.5681 69.402 78.8352C69.1414 78.1023 69.0348 77.3235 69.0889 76.5476C69.0851 74.7894 69.6994 73.0859 70.8243 71.7347C71.3405 71.0975 71.9826 70.5736 72.7104 70.1957C73.4381 69.8178 74.236 69.594 75.0542 69.5383C76.1201 69.5786 77.1314 70.02 77.8856 70.7742C78.6398 71.5284 79.0812 72.5397 79.1215 73.6056C79.1215 74.3241 79.0401 74.3784 78.5521 74.4868C78.064 74.5953 74.6204 74.8529 71.0276 74.9749C70.9869 79.3404 73.6985 80.8318 75.7863 80.8318C76.9153 80.7538 77.9787 80.2726 78.7825 79.476L79.1215 79.7472ZM71.2581 74.0801C72.9663 74.0801 74.6475 74.0801 76.3557 74.0801C76.7489 74.0801 76.8709 73.9039 76.8709 73.1989C76.8836 72.8496 76.8262 72.5014 76.7021 72.1747C76.578 71.848 76.3897 71.5494 76.1483 71.2967C75.907 71.0439 75.6174 70.8421 75.2968 70.7031C74.9761 70.5641 74.6309 70.4907 74.2814 70.4874C72.8443 70.3653 71.475 71.6126 71.1903 74.0665L71.2581 74.0801Z" fill="#111111"/>
<path d="M88.6125 73.0499C87.677 71.0569 86.6466 70.257 85.4264 70.257C85.1686 70.2443 84.911 70.2871 84.6711 70.3825C84.4312 70.478 84.2145 70.6238 84.0359 70.8102C83.8572 70.9966 83.7206 71.2192 83.6354 71.4629C83.5502 71.7066 83.5183 71.9658 83.5419 72.2229C83.5419 73.5786 84.8028 74.2972 86.1043 74.8395C88.2735 75.7207 89.5479 76.6698 89.5479 78.6627C89.5479 81.2251 87.0669 82.5944 84.8977 82.5944C83.7292 82.5909 82.5912 82.2211 81.6439 81.5369C81.4042 80.5014 81.2904 79.4408 81.305 78.378H81.7388C82.254 79.9778 83.7317 81.9436 85.3858 81.9436C85.681 81.9707 85.9785 81.9326 86.2573 81.8318C86.5361 81.731 86.7893 81.5701 86.9989 81.3604C87.2085 81.1508 87.3694 80.8976 87.4702 80.6189C87.571 80.3401 87.6092 80.0425 87.5821 79.7473C87.5821 78.3916 86.7009 77.7273 85.2095 77.0358C83.4742 76.2359 81.7659 75.4089 81.7659 73.3617C81.7894 72.827 81.9211 72.3025 82.153 71.8201C82.385 71.3377 82.7123 70.9073 83.1153 70.555C83.5183 70.2027 83.9886 69.9358 84.4977 69.7704C85.0068 69.605 85.5441 69.5446 86.0772 69.5927C86.8931 69.5918 87.7005 69.7579 88.4498 70.0808C88.7267 71.0118 88.9262 71.964 89.0463 72.9279L88.6125 73.0499Z" fill="#111111"/>
<path d="M101.911 79.7472C101.44 80.5153 100.804 81.1692 100.049 81.6615C99.2939 82.1539 98.439 82.4725 97.546 82.5942C96.7681 82.598 95.9979 82.4412 95.2834 82.1336C94.5689 81.8261 93.9256 81.3744 93.3937 80.8069C92.8618 80.2393 92.4527 79.5681 92.1921 78.8352C91.9314 78.1023 91.8248 77.3235 91.8789 76.5476C91.8752 74.7894 92.4894 73.0859 93.6143 71.7347C94.1426 71.0844 94.802 70.5528 95.5495 70.1744C96.297 69.7959 97.1159 69.5792 97.9527 69.5383C99.0185 69.5786 100.03 70.02 100.784 70.7742C101.538 71.5284 101.98 72.5397 102.02 73.6056C102.02 74.3241 101.939 74.3784 101.451 74.4868C100.962 74.5953 97.5189 74.8529 93.9261 74.9749C93.8448 79.3947 96.6376 80.8724 98.6577 80.8724C99.7867 80.7945 100.85 80.3133 101.654 79.5167L101.911 79.7472ZM94.0346 74.0665C95.7428 74.0665 97.424 74.0665 99.1322 74.0665C99.5254 74.0665 99.6474 73.8903 99.6474 73.1853C99.6601 72.8361 99.6027 72.4878 99.4786 72.1611C99.3545 71.8344 99.1662 71.5359 98.9248 71.2831C98.6835 71.0304 98.3939 70.8286 98.0733 70.6896C97.7526 70.5506 97.4074 70.4772 97.0579 70.4738C95.7022 70.3653 94.3328 71.6126 94.0346 74.0665Z" fill="#111111"/>
<path d="M113.016 79.3947C113.016 80.4522 113.382 80.9945 113.816 80.9945C114.242 80.9925 114.661 80.8854 115.036 80.6827L115.267 81.1165L112.555 82.5943C112.128 82.472 111.747 82.2245 111.462 81.8837C111.177 81.543 111 81.1247 110.955 80.6827C109.949 81.5022 108.812 82.1482 107.593 82.5943C106.703 82.609 105.843 82.2731 105.199 81.6593C104.555 81.0454 104.178 80.2028 104.149 79.3134C104.147 78.6684 104.363 78.0416 104.761 77.5346C105.16 77.0276 105.718 76.6703 106.346 76.5205C107.902 75.9674 109.423 75.3199 110.901 74.5818V73.4158C110.901 71.7076 110.128 70.5959 108.678 70.5959C108.161 70.5559 107.649 70.7215 107.254 71.0568C106.682 71.596 106.321 72.3221 106.237 73.104C106.22 73.2611 106.143 73.4054 106.021 73.5065C105.9 73.6077 105.744 73.6578 105.587 73.6463C105.302 73.6445 105.027 73.5432 104.809 73.36C104.591 73.1768 104.444 72.9232 104.393 72.643C104.458 72.3898 104.578 72.1541 104.744 71.9525C104.911 71.751 105.12 71.5886 105.356 71.4771C106.658 70.5306 108.146 69.8699 109.722 69.5384C110.485 69.535 111.231 69.7618 111.864 70.1891C112.277 70.5189 112.599 70.9481 112.801 71.4367C113.002 71.9252 113.076 72.457 113.016 72.982V79.3947ZM110.928 75.2325C110.305 75.4901 108.623 76.2629 108.081 76.5883C107.614 76.7248 107.204 77.011 106.915 77.4028C106.626 77.7947 106.474 78.2706 106.481 78.7575C106.45 79.0475 106.477 79.341 106.563 79.6199C106.649 79.8988 106.791 80.1573 106.98 80.3794C107.169 80.6016 107.401 80.7828 107.663 80.9118C107.925 81.0409 108.21 81.1152 108.501 81.1301C109.398 81.0682 110.25 80.716 110.928 80.1268V75.2325Z" fill="#111111"/>
<path d="M120.337 79.6927C120.337 81.2654 120.472 81.5501 122.668 81.8619V82.2551H116.242V81.8484C118.072 81.5365 118.208 81.2518 118.208 79.6792V73.1037C118.208 71.4226 118.208 71.2464 116.324 71.0159V70.6227C117.713 70.3763 119.075 69.9949 120.391 69.4839V72.5614C121.042 71.3413 122.384 69.5381 123.726 69.5381C124.098 69.5451 124.455 69.6861 124.731 69.9351C125.008 70.1842 125.185 70.5246 125.231 70.8939C125.231 71.1774 125.15 71.455 124.999 71.6949C124.848 71.9347 124.632 72.127 124.377 72.2496C124.281 72.3143 124.167 72.3489 124.051 72.3489C123.935 72.3489 123.822 72.3143 123.726 72.2496C123.411 71.9058 122.972 71.701 122.506 71.6802C121.855 71.6802 121.15 72.1683 120.337 73.6461V79.7741V79.6927Z" fill="#111111"/>
<path d="M135.9 70.3111C135.995 70.3839 136.071 70.4788 136.12 70.5875C136.17 70.6963 136.192 70.8155 136.185 70.9348C136.179 71.216 136.086 71.4885 135.918 71.7144C135.751 71.9403 135.517 72.1085 135.25 72.1956C135.167 72.1927 135.086 72.1732 135.012 72.1383C134.937 72.1033 134.871 72.0537 134.816 71.9922C134.415 71.5833 133.936 71.2586 133.407 71.0375C132.879 70.8163 132.311 70.703 131.738 70.7043C130.084 70.7043 128.403 71.9922 128.403 75.3274C128.403 79.7472 131.508 80.8589 132.877 80.8589C134.246 80.8589 134.843 80.547 136.321 79.1506L136.605 79.4082C136.15 80.2711 135.493 81.0113 134.691 81.566C133.888 82.1207 132.964 82.4734 131.996 82.5942C131.225 82.6033 130.459 82.4585 129.745 82.1684C129.03 81.8783 128.381 81.4486 127.834 80.9046C127.288 80.3605 126.855 79.713 126.562 78.9998C126.268 78.2866 126.12 77.5221 126.125 76.7509C126.114 75.7065 126.345 74.6737 126.799 73.733C127.252 72.7923 127.918 71.9692 128.742 71.3279C130.05 70.2579 131.664 69.6312 133.352 69.5383C134.259 69.5387 135.146 69.8076 135.9 70.3111Z" fill="#111111"/>
<path d="M141.486 71.5852C142.572 70.4631 144.006 69.7416 145.554 69.538C147.953 69.538 149.431 70.9886 149.431 73.7002V79.6926C149.431 81.2653 149.58 81.55 151.261 81.8618V82.255H145.418V81.8482C147.208 81.5364 147.357 81.2517 147.357 79.679V74.5C147.357 72.358 146.611 70.9886 144.415 70.9886C143.322 71.022 142.284 71.4733 141.514 72.2495V79.6926C141.514 81.2653 141.663 81.55 143.398 81.8618V82.255H137.528V81.8482C139.236 81.5364 139.385 81.2517 139.385 79.679V65.4572C139.385 63.7489 139.385 63.5727 137.446 63.3151V63.0033C138.707 62.7457 140.551 62.2847 141.514 62V71.5852H141.486Z" fill="#111111"/>
<path d="M25.2846 79.7472C24.8131 80.5153 24.1769 81.1692 23.4219 81.6615C22.6669 82.1539 21.8121 82.4725 20.919 82.5942C20.1412 82.598 19.3709 82.4412 18.6565 82.1336C17.942 81.8261 17.2987 81.3744 16.7668 80.8069C16.2348 80.2393 15.8258 79.5681 15.5651 78.8352C15.3045 78.1023 15.1979 77.3235 15.252 76.5476C15.2482 74.7894 15.8624 73.0859 16.9873 71.7347C17.5157 71.0844 18.1751 70.5528 18.9226 70.1744C19.6701 69.7959 20.4889 69.5792 21.3258 69.5383C22.3916 69.5786 23.4029 70.02 24.1571 70.7742C24.9113 71.5284 25.3527 72.5397 25.393 73.6056C25.393 74.3241 25.3117 74.3784 24.8236 74.4868C24.3355 74.5953 20.8919 74.8529 17.2992 74.9749C17.2178 79.3947 20.0107 80.8724 22.0307 80.8724C23.1598 80.7945 24.2231 80.3133 25.027 79.5167L25.2846 79.7472ZM17.4212 74.0801C19.1294 74.0801 20.8106 74.0801 22.5188 74.0801C22.912 74.0801 23.034 73.9039 23.034 73.1989C23.0467 72.8496 22.9893 72.5014 22.8652 72.1747C22.7411 71.848 22.5528 71.5494 22.3114 71.2967C22.0701 71.0439 21.7805 70.8421 21.4599 70.7031C21.1392 70.5641 20.794 70.4907 20.4445 70.4874C19.0752 70.3653 17.7059 71.6126 17.4212 74.0665V74.0801Z" fill="#111111"/>
<path d="M31.9554 82.5942L28.3355 72.2769C27.7932 70.772 27.739 70.5957 26.3154 70.311V69.8772H32.0503V70.311L30.8843 70.6229C30.342 70.772 30.2064 71.016 30.4912 71.843L32.9451 79.1641C34.0026 76.4526 35.0872 73.3479 36.3887 70.0128H36.7005L40.3746 79.1641C41.1609 76.9 42.0693 73.9309 42.5167 71.8702C42.7201 70.9889 42.6251 70.7042 42.1235 70.5822L40.7678 70.2975V69.8772H45.7841V70.311C45.2811 70.3362 44.8 70.5245 44.4135 70.8473C44.027 71.1702 43.7562 71.6102 43.642 72.1006C42.815 74.0122 41.2694 78.7438 39.995 82.5942H39.5883L35.8599 73.4971C34.7211 76.4662 33.5552 79.259 32.3485 82.5942H31.9554Z" fill="#111111"/>
<path d="M4.84004 78.1202C4.84004 81.1978 5.07052 81.5367 7.83626 81.8485V82.2417H0V81.8485C2.3319 81.5367 2.56237 81.1978 2.56237 78.1202V67.8572C2.56237 64.7796 2.3319 64.4407 0.135575 64.1288V63.7221H7.98539C9.65776 63.6078 11.3234 64.0254 12.7441 64.9152C13.3351 65.3619 13.8082 65.9461 14.1224 66.6171C14.4366 67.288 14.5824 68.0255 14.5472 68.7655C14.4936 70.2395 13.8958 71.6413 12.8693 72.7004C11.8427 73.7595 10.4602 74.4008 8.98865 74.5003C8.5054 74.5247 8.02124 74.5247 7.53799 74.5003L4.82648 73.8496V78.1202H4.84004ZM4.84004 73.3615C5.67499 73.6172 6.54277 73.7496 7.41597 73.7547C9.50383 73.7547 11.9171 72.7243 11.9171 68.9146C11.9171 65.6337 10.1817 64.2915 7.26684 64.2915C6.53832 64.2908 5.81158 64.3635 5.09763 64.5084C4.92139 64.5084 4.82648 64.6983 4.82648 65.2677V73.4022L4.84004 73.3615Z" fill="#111111"/>
</svg>
