<svg width="53" height="54" viewBox="0 0 53 54" fill="none" xmlns="http://www.w3.org/2000/svg">
<path fill-rule="evenodd" clip-rule="evenodd" d="M26.5 0C11.8644 0 0 12.0886 0 26.9999C0 41.9114 11.8647 54 26.5 54C41.135 54 53 41.9114 53 26.9999C53 12.0886 41.135 0 26.5 0ZM13.4845 34.8222V32.5873C12.3695 33.8746 11.099 34.7324 9.22746 34.722C4.79918 34.6975 1.20882 31.0639 1.20882 26.5519C1.20882 22.0399 4.79918 18.3823 9.22746 18.3823C13.656 18.3823 17.5083 22.0114 17.5083 26.5239L17.5129 34.7936L13.4845 34.8222ZM26.6997 34.9506C22.2711 34.9506 18.4188 31.3216 18.4188 26.8091L18.4142 13.0628H22.4366L22.442 20.7454C23.5576 19.4584 24.8278 18.6003 26.6997 18.6107C31.1271 18.6358 34.718 22.2688 34.718 26.7808C34.718 31.293 31.1271 34.9506 26.6997 34.9506ZM43.9415 34.7587C39.5129 34.7587 35.9226 31.1011 35.9226 26.5891C35.9226 22.0772 39.5129 18.4196 43.9415 18.4196C47.8063 18.4196 51.0446 21.2944 51.8034 25.0031L47.7708 24.9895C47.153 23.5016 45.701 22.4963 44.0149 22.4963C41.7673 22.4963 39.945 24.3522 39.945 26.6422C39.945 28.9326 41.767 30.7894 44.0149 30.7894C45.701 30.7894 47.1709 29.795 47.7887 28.3065L51.8208 28.2875C51.0727 32.01 47.8163 34.7587 43.9415 34.7587Z" fill="#1E1E1E"/>
<path fill-rule="evenodd" clip-rule="evenodd" d="M26.5964 22.416C24.3489 22.416 22.5262 24.2725 22.5262 26.5626C22.5262 28.8526 24.3489 30.7097 26.5964 30.7097C28.844 30.7097 30.6666 28.8526 30.6666 26.5626C30.6666 24.2725 28.844 22.416 26.5964 22.416ZM9.27723 22.416C7.02967 22.416 5.20705 24.2725 5.20705 26.5626C5.20705 28.8526 7.02967 30.7097 9.27723 30.7097C11.5248 30.7097 13.3474 28.8526 13.3474 26.5626C13.3474 24.2725 11.5248 22.416 9.27723 22.416Z" fill="#1E1E1E"/>
</svg>
