<svg width="72" height="65" viewBox="0 0 72 65" fill="none" xmlns="http://www.w3.org/2000/svg">
<path d="M29.4333 32.0149C29.2512 32.0149 29.1862 31.8848 29.1862 31.7027L33.5823 12.8959C33.6473 12.5837 33.8944 12.5837 33.9594 12.8959L38.0434 31.7027C38.0434 31.8848 37.9783 32.0149 37.7962 32.0149H29.4333ZM37.4191 0.0588075C36.6907 0.800157 35.8063 1.37243 34.8439 1.76261C34.5967 1.82764 34.5317 1.89267 34.4667 2.13979L25.4664 40.0006C24.7901 43.0311 23.8927 43.5903 21.4996 43.7724C21.3305 43.7594 21.2004 43.8895 21.1874 44.0455C21.1874 44.0585 21.1874 44.0716 21.1874 44.0846V44.7739C21.1744 44.943 21.3045 45.073 21.4605 45.086C21.4736 45.086 21.4866 45.086 21.4866 45.086H30.0966C30.2657 45.099 30.3958 44.969 30.4088 44.8129C30.4088 44.7999 30.4088 44.7869 30.4088 44.7739V44.0716C30.4218 43.9025 30.2917 43.7724 30.1356 43.7594C30.1226 43.7594 30.1096 43.7594 30.0966 43.7594C26.8841 43.7594 26.572 42.81 27.1963 40.1697L28.705 33.6927C28.744 33.5106 28.9001 33.3805 29.0821 33.3805H38.0824C38.2645 33.3805 38.4205 33.5106 38.4596 33.6927L40.1374 41.4963C40.5145 43.1741 39.8902 43.5773 37.7442 43.7594C37.5751 43.7464 37.4451 43.8765 37.4321 44.0325C37.4321 44.0455 37.4321 44.0585 37.4321 44.0716V44.7609C37.4191 44.93 37.5491 45.06 37.7052 45.073C37.7182 45.073 37.7312 45.073 37.7442 45.073H50.3992C50.5683 45.086 50.6983 44.956 50.7113 44.7999C50.7113 44.7869 50.7113 44.7739 50.7113 44.7609V44.0716C50.7243 43.9025 50.5943 43.7724 50.4382 43.7594C50.4252 43.7594 50.4122 43.7594 50.3992 43.7594C48.4483 43.5773 47.6289 43.2522 47.2517 41.4963L37.7962 0.188869C37.7312 0.00678302 37.5491 -0.0582476 37.4191 0.0588075Z" fill="#1E1E1E"/>
<path d="M13.2532 58.2873C12.4469 58.2873 11.7575 58.8986 10.8991 60.0821C10.4959 60.6284 9.98871 61.4218 9.76761 61.7599C9.63754 61.929 9.53349 61.903 9.61153 61.7209L10.2098 60.1862L12.3558 54.2944C12.4599 54.0473 11.6015 53.7611 11.4454 54.0473V54.0733C11.0812 54.8537 10.3919 55.1138 9.16932 55.0618C7.94675 55.0227 5.48859 54.3464 3.62871 54.3464C1.30061 54.3464 0 55.7771 0 57.4679C0 58.4173 0.624294 59.0286 1.45669 59.0026C1.84687 59.0286 2.18503 58.7685 2.26307 58.3913C2.31509 58.1702 2.18503 57.9491 1.97693 57.8971C1.8989 57.8711 1.82086 57.8841 1.74282 57.9101C0.923435 58.0792 0.6373 57.5069 0.6373 57.0777C0.6373 56.0242 1.53472 55.2438 3.40761 55.2438C3.88883 55.2438 4.82527 55.3609 5.82675 55.4649C4.56515 59.2627 3.29055 62.7874 2.9784 63.6198C2.91337 63.8539 2.74429 64.036 2.52319 64.101C2.06797 64.2441 1.92491 64.2571 1.63877 64.3221C1.20957 64.4262 1.28761 64.7773 1.58675 64.7643C2.12 64.7383 2.82233 64.6603 3.36859 64.6603C4.04491 64.6603 5.25448 64.7123 5.43656 64.7253C5.77472 64.7513 5.81374 64.3481 5.54061 64.2961C5.34552 64.2701 5.02037 64.2181 4.70822 64.166C4.34405 64.127 4.22699 63.971 4.30503 63.6718C4.48712 63.1776 6.65914 56.9086 7.08834 55.595C7.76466 55.673 8.33693 55.7381 8.71411 55.7641C9.49448 55.8161 10.2488 55.7641 10.8991 55.2959L9.18233 60.1471L7.67362 64.2961C7.41349 64.9724 8.37595 65.0245 8.59705 64.6083C9.3254 63.1516 10.1838 61.7599 11.1593 60.4463C11.7836 59.5359 12.3688 58.9896 12.772 58.9896C13.0842 58.9896 13.2663 59.1587 13.2663 59.5489C13.2663 60.0561 13.0321 60.8495 12.5379 62.2021C11.9006 63.958 11.6535 64.4262 11.4454 64.4392C11.2373 64.4522 10.8211 63.9319 10.6 63.8669C10.3789 63.8019 10.1448 63.9059 10.0407 64.114C9.92368 64.3091 10.0017 64.9464 10.9642 64.9984C12.1087 65.0505 13.0972 63.8799 13.7735 61.994C14.2417 60.7194 14.3588 60.0561 14.3588 59.6009C14.3718 58.7035 13.9426 58.2873 13.2532 58.2873ZM32.7364 64.3741C32.0081 64.2051 31.722 63.9319 31.722 63.6458L31.748 63.0475C31.748 62.6053 32.0861 56.1543 32.1642 55.1918C32.2162 54.4765 31.4098 54.5155 31.0716 54.9317L30.3953 55.7901C29.5629 56.8306 26.2334 61.1226 24.6206 63.1386C24.1654 63.6978 23.5671 64.114 22.8778 64.3481C22.6047 64.4132 22.6307 64.6993 22.9298 64.6993C23.1639 64.6993 23.8793 64.6213 24.3995 64.6213C24.9197 64.6213 25.8952 64.6603 26.1293 64.6733C26.3764 64.6863 26.4675 64.4132 26.1293 64.3351C25.453 64.14 25.1148 63.997 25.1148 63.8279C25.1148 63.6588 25.2709 63.4117 25.6351 62.9045C25.9212 62.5013 26.5975 61.6168 27.3519 60.6154H30.5904C30.5254 61.981 30.4343 63.4117 30.4213 63.6978C30.4213 63.8799 30.2913 64.049 30.1092 64.075L29.3809 64.2831C29.1858 64.3351 29.0947 64.7123 29.4069 64.6993C30.1222 64.6603 30.7075 64.5952 31.0196 64.5952C31.4878 64.5952 32.2812 64.6993 32.6454 64.7123C33.0616 64.7383 33.0096 64.4392 32.7364 64.3741ZM30.7205 59.1587C30.7205 59.4188 30.6945 59.6919 30.6815 59.9911H27.9112C29.1988 58.2873 30.5644 56.4924 30.6815 56.3234C30.7985 56.1543 30.9026 56.2453 30.8896 56.3624C30.8375 57.0127 30.7595 58.1572 30.7205 59.1587ZM18.5337 58.3783C17.2982 58.3263 15.9195 59.757 15.2692 61.916C14.6319 63.997 15.3342 64.8684 16.1146 64.8684C16.6869 64.8684 17.6363 64.127 18.1566 63.2816C18.3386 62.9825 18.1956 62.6703 17.9224 62.9825C17.5713 63.3597 17.0901 63.7759 16.5828 63.6848C16.2447 63.6328 15.9325 63.0475 16.4267 61.6038C17.6233 61.5518 19.015 60.8625 19.3791 59.744C19.6783 58.7555 19.041 58.3913 18.5337 58.3783ZM18.6638 59.4318C18.3647 60.3162 17.3242 61.0446 16.5698 61.2267C17.2982 59.3148 17.9875 58.7945 18.4297 58.8075C18.6638 58.8205 18.7678 59.0937 18.6638 59.4318ZM36.8074 59.0937H37.9519C38.212 59.0937 38.3291 59.0286 38.3941 58.8335C38.4981 58.5864 38.4331 58.4824 38.186 58.4824H37.0415L37.6007 57.0127C37.6658 56.8176 37.6007 56.7135 37.4837 56.7135H36.8854C36.7293 56.7135 36.6773 56.7526 36.5993 56.9607L36.001 58.4954H35.0905C34.9605 58.4954 34.8564 58.4694 34.7784 58.8465C34.7524 59.0286 34.7784 59.1067 34.9605 59.1067H35.7669L34.3882 62.6964C34.1671 63.2166 33.985 63.7368 33.8159 64.2701C33.7379 64.7643 34.037 64.9724 34.4012 64.8944C35.1296 64.7643 36.157 64.01 37.0935 62.8394C37.3536 62.5013 37.1325 62.2932 36.8854 62.5533C36.4952 62.9305 36.092 63.2946 35.6498 63.6198C35.2856 63.8669 35.1035 63.6848 35.2206 63.3337L36.8074 59.0937ZM49.6054 58.7555C49.6834 58.5604 49.4103 58.4954 48.76 58.3783C48.5649 58.3393 48.4478 58.5474 48.1097 59.2627C47.8235 58.9116 47.3813 58.7295 46.9261 58.7815C45.8856 58.8075 44.611 59.744 43.5575 61.1746C42.7251 62.3192 42.465 63.1256 42.6211 63.971C42.7121 64.4652 43.1543 64.8294 43.6616 64.8164C44.4419 64.8424 45.2223 64.101 46.0157 63.2946L46.5099 62.8004C46.653 62.6573 46.7831 62.7484 46.692 62.9175C46.4319 63.3597 46.2238 63.8279 46.0547 64.3221C45.9507 64.8164 46.2238 64.9464 46.601 64.8944C47.3423 64.7903 48.4869 64.114 49.3713 62.8914C49.6184 62.5403 49.3713 62.3322 49.1372 62.6053C48.747 63.0085 48.3308 63.3857 47.8756 63.7108C47.4984 63.971 47.3163 63.8929 47.4334 63.5938C47.5114 63.4117 47.7195 62.8914 49.6054 58.7555ZM46.3278 62.4622C45.4304 63.2816 44.7151 63.8799 44.2078 63.8799C43.8697 63.8799 43.7136 63.7368 43.6876 63.5027C43.6096 62.8784 44.1688 61.929 44.637 61.2917C45.4434 60.2252 46.4449 59.3408 47.0822 59.3408C47.5244 59.3408 47.7585 59.5229 47.7975 59.796C47.8756 60.2902 47.0562 61.7859 46.3408 62.4492L46.3278 62.4622ZM66.0451 58.1832C65.3428 58.1832 64.4194 58.6775 63.535 59.6529C63.2488 59.9911 63.4699 60.2122 63.73 59.9651C64.0292 59.6919 64.3543 59.4448 64.6925 59.2237C64.9916 59.0416 65.1867 59.1847 65.1087 59.4448C65.0437 59.6659 64.8226 60.1862 64.6665 60.5373L63.704 62.7484C63.4309 63.3727 63.1838 63.997 63.1188 64.166C62.9887 64.6083 63.2228 64.8424 63.574 64.8424C64.2503 64.8424 65.1737 64.2831 66.0711 63.2946C66.3573 62.9565 66.1362 62.7484 65.8761 62.9825C65.5509 63.2816 65.1997 63.5417 64.8226 63.7889C64.5234 63.971 64.3153 63.8279 64.4064 63.5548C64.4714 63.3597 64.6925 62.9045 64.8356 62.5793L65.811 60.3683C66.0972 59.7179 66.4223 59.0286 66.4873 58.8335C66.5914 58.4173 66.3833 58.1832 66.0451 58.1832ZM66.8905 54.7496C66.4613 54.7236 66.0842 55.0357 66.0451 55.478C65.9801 55.8551 66.2272 56.2323 66.6174 56.2973C66.6304 56.2973 66.6564 56.2973 66.6694 56.3103C67.0856 56.3233 67.4498 56.0112 67.5018 55.595C67.5799 55.2178 67.3327 54.8407 66.9556 54.7626C66.9426 54.7496 66.9165 54.7496 66.8905 54.7496ZM70.8314 58.3913C69.5828 58.3393 68.2432 59.783 67.5929 61.916C66.9426 64.049 67.6449 64.8684 68.4773 64.8684C69.0496 64.8684 69.999 64.1921 70.5583 63.2816C70.7403 62.9825 70.5973 62.6703 70.3111 62.9825C69.96 63.3597 69.5048 63.7238 69.0365 63.6978C68.5683 63.6718 68.2432 63.0215 68.7764 61.4738C69.5698 59.2367 70.1161 58.9766 70.3632 58.9636C70.6103 58.9506 71.1045 59.5879 71.4037 59.6659C71.6248 59.731 71.8589 59.6269 71.9499 59.4318C72.093 59.1587 72.0019 58.4564 70.8314 58.3913ZM62.7676 58.4954H61.623L62.1693 57.0257C62.2473 56.8306 62.1693 56.7265 62.0522 56.7265H61.454C61.2979 56.7265 61.2459 56.7656 61.1678 56.9737L60.5826 58.5084H59.6721C59.5421 58.5084 59.451 58.4824 59.36 58.8595C59.334 59.0416 59.373 59.1197 59.5421 59.1197H60.3484L58.9698 62.7094C58.7487 63.2166 58.5666 63.7499 58.3975 64.2831C58.3065 64.7773 58.6056 64.9854 58.9828 64.9074C59.7111 64.7773 60.7386 64.023 61.6751 62.8524C61.9352 62.5143 61.7141 62.3062 61.454 62.5663C61.0638 62.9435 60.6476 63.3076 60.2184 63.6328C59.8542 63.8799 59.6591 63.6978 59.7892 63.3467L61.3759 59.1067H62.5205C62.7806 59.1067 62.8976 59.0416 62.9627 58.8465C63.0797 58.6124 63.0147 58.4954 62.7676 58.4954ZM41.3595 62.5013C40.9563 62.9045 40.5271 63.2816 40.0849 63.6198C39.7207 63.8669 39.5386 63.6848 39.6557 63.3337L43.1153 54.1643C43.1674 54.0213 43.1413 53.8262 42.9462 53.8262C42.2699 53.8652 41.5936 53.9432 40.9303 54.0603C40.8132 54.0863 40.7612 54.2554 40.8913 54.2944L41.6586 54.5805C41.8147 54.6326 41.8277 54.7106 41.7237 54.9577L38.7453 62.6833C38.5242 63.1906 38.3421 63.7238 38.173 64.2571C38.095 64.7513 38.3811 64.9594 38.7583 64.8814C39.5256 64.7513 40.6181 63.997 41.5676 62.7614C41.8277 62.4362 41.6196 62.2281 41.3595 62.5013ZM55.9654 62.5273L56.7978 60.8495C57.253 59.926 57.344 59.5099 57.344 59.1847C57.344 58.5734 57.0319 58.2613 56.3946 58.2613C55.4972 58.2613 54.7948 58.9766 53.7023 60.4983C53.4032 60.9145 53.2081 61.2267 52.8049 61.7339C52.6748 61.89 52.5838 61.877 52.6488 61.6949L53.1951 60.3162C53.4162 59.835 53.5723 59.3278 53.6503 58.8075C53.6503 58.4433 53.4942 58.2743 53.104 58.2743C52.6228 58.2743 52.0115 58.5344 50.945 59.874C50.5678 60.3683 50.945 60.4203 51.0751 60.2772C51.2832 60.0561 51.7514 59.5749 52.0505 59.3148C52.3497 59.0546 52.6358 59.1327 52.5188 59.4578C52.4407 59.7179 52.3497 59.9651 52.2456 60.2122L50.5678 64.3351C50.3337 64.9074 51.4132 65.0375 51.6083 64.6083C52.1936 63.2686 53.4682 61.5778 53.9884 60.8365C54.7558 59.744 55.4191 58.9896 55.9004 58.9896C56.1605 58.9896 56.2645 59.1327 56.2645 59.4058C56.2385 59.6399 56.1735 59.874 56.0694 60.0821L54.8729 62.6183C54.5347 63.2946 54.2226 64.01 54.1575 64.1921C54.0145 64.6343 54.2616 64.8684 54.6388 64.8684C55.3151 64.8684 56.2385 64.3091 57.1359 63.3206C57.4221 62.9825 57.201 62.7744 56.9408 63.0085C56.6157 63.3076 56.2645 63.5678 55.8873 63.8149C55.5752 64.01 55.3671 63.8539 55.4581 63.5678C55.5622 63.3597 55.8093 62.8394 55.9654 62.5273Z" fill="#1E1E1E"/>
</svg>
