<svg width="117" height="35" viewBox="0 0 117 35" fill="none" xmlns="http://www.w3.org/2000/svg">
<path fill-rule="evenodd" clip-rule="evenodd" d="M100.317 0C91.1042 0 83.6348 7.46884 83.6348 16.6825C83.6348 25.8961 91.1036 33.365 100.317 33.365C109.531 33.365 117 25.8961 117 16.6825C117 7.46884 109.531 0 100.317 0ZM100.317 26.4821C93.4663 26.4533 87.8954 21.955 84.9468 16.563C87.9248 11.2005 93.5251 6.85159 100.317 6.85159C107.228 6.85159 112.768 11.1711 115.688 16.563C112.768 21.955 107.288 26.5121 100.317 26.4821Z" fill="#1E1E1E"/>
<path fill-rule="evenodd" clip-rule="evenodd" d="M100.318 25.5292C105.203 25.5292 109.163 21.5681 109.163 16.6826C109.163 11.7966 105.204 7.83609 100.318 7.83609C95.4315 7.83609 91.471 11.7966 91.471 16.6826C91.471 21.5681 95.4321 25.5292 100.318 25.5292ZM27.6528 0.886308H42.5767C48.9155 0.886308 53.3288 4.77801 53.3288 8.74914C53.3288 11.7178 52.2056 14.5263 45.9469 15.8903C48.3539 16.2111 54.9335 17.9759 54.9335 24.2347C54.9335 30.4934 48.0331 33.5427 43.299 33.5427H27.6528V33.2213H43.1383C46.8293 33.2213 49.1563 31.6966 49.1563 24.7162C49.1563 17.7351 46.5885 16.1304 43.3791 16.0504H38.565V15.7302H43.6599C45.7461 15.7302 47.9524 15.4094 47.9524 8.66909C47.9524 1.92881 45.3046 1.2065 42.4961 1.2065H38.5643V33.2213H32.6264V1.20712H27.6515V0.886308H27.6528ZM6.58019 17.4193C6.58019 5.06255 10.1905 0.649912 14.443 0.649912C20.461 0.649912 23.7505 9.55649 24.7936 13.0067V1.05078C23.7505 1.85314 23.2689 2.25462 22.1458 2.25462C21.0226 2.25462 19.3372 1.69304 18.5348 1.2115C17.7325 0.729962 16.1278 0.3291 14.5231 0.3291C9.2274 0.3291 0 7.30952 0 17.4193C0 29.3746 8.18427 34.5102 14.5231 34.5102C16.1278 34.5102 17.8932 33.8685 18.6956 33.3864C19.4979 32.9048 21.0226 32.2632 22.1458 32.2632C23.2689 32.2632 23.7505 32.6647 24.7936 33.4671V21.4311C23.9106 26.0851 20.461 34.1887 14.443 34.1887C12.7182 34.1887 10.3512 33.3864 9.26805 32.2632C8.93472 31.9174 6.58019 30.2564 6.58019 17.4193ZM76.3138 27.117C76.2344 29.7648 74.2275 33.2957 70.0551 33.215C65.8826 33.135 60.8283 30.0056 58.9021 21.5806V32.9743C59.7045 32.2526 61.069 30.9687 63.236 31.9311C65.4016 32.8942 68.6117 33.5358 70.0551 33.5358C71.5003 33.5358 79.4432 32.0112 79.764 22.8645C79.8447 18.2911 76.5539 15.9641 74.5484 15.2418C72.2213 14.3587 68.9325 13.3162 67.0057 12.674C65.0808 12.0324 61.9515 10.0268 62.0309 6.33519C62.1115 2.64423 64.3579 0.638657 67.4078 0.638657C70.4565 0.638657 74.5484 3.04573 76.6346 11.5508V0.237793C75.4314 1.28092 74.4677 1.76246 73.746 1.76246C73.105 1.76246 71.2395 1.03014 70.2964 0.739344C69.2533 0.418527 68.2296 0.297828 66.925 0.318465C64.6387 0.353486 59.263 3.1264 58.9015 10.589C58.6382 16.041 62.6731 18.1316 64.5186 18.7726C66.1233 19.3342 70.7774 21.0196 72.1407 21.5812C73.5059 22.1421 76.4751 24.0683 76.3138 27.117Z" fill="#1E1E1E"/>
</svg>
