<svg width="238" height="27" viewBox="0 0 238 27" fill="none" xmlns="http://www.w3.org/2000/svg">
<path d="M18.8515 23.04C16.4225 25.416 12.9785 26.604 8.59193 26.604H0V0.324H9.17197C13.4136 0.324 16.7126 1.404 19.0327 3.564C21.3529 5.724 22.513 8.856 22.513 12.924C22.4768 17.28 21.2804 20.664 18.8515 23.04ZM13.6311 7.812C12.6522 6.66 11.2021 6.084 9.24448 6.084H7.14181V20.808H8.73694C10.9121 20.808 12.5072 20.196 13.5223 18.936C14.5374 17.676 15.0449 15.768 15.0449 13.176C15.0449 10.728 14.5736 8.964 13.6311 7.812ZM41.7633 26.604L40.4582 21.672H31.83L30.4887 26.604H22.6218L31.2862 0.216H40.857L49.5939 26.604H41.7633ZM37.8117 11.52C37.558 10.548 37.2317 9.324 36.8329 7.812C36.4341 6.3 36.2166 5.184 36.0716 4.536C35.9628 5.148 35.7453 6.156 35.419 7.56C35.0928 8.964 34.404 11.736 33.2801 15.84H38.9356L37.8117 11.52ZM52.0954 26.604V0.324H59.3097V26.604H52.0954ZM65.0014 26.604V0.324H72.1794V20.88H82.4027V26.604H65.0014ZM93.7499 16.344V26.604H86.5356V16.56L77.7986 0.324H85.593L90.1246 10.08L94.6925 0.324H102.451L93.7499 16.344ZM127.211 7.38C126.232 6.912 125.254 6.552 124.275 6.228C123.296 5.904 122.245 5.76 121.121 5.76C119.417 5.76 118.076 6.444 117.133 7.848C116.19 9.216 115.683 11.124 115.683 13.572C115.683 18.648 117.641 21.168 121.52 21.168C122.68 21.168 123.84 21.024 124.927 20.7C126.015 20.376 127.139 19.98 128.263 19.548V25.56C126.051 26.532 123.55 27 120.758 27C116.77 27 113.689 25.848 111.55 23.544C109.411 21.24 108.36 17.928 108.36 13.572C108.36 10.836 108.867 8.46 109.919 6.408C110.97 4.356 112.456 2.772 114.378 1.656C116.335 0.54 118.583 0 121.23 0C124.094 0 126.849 0.612 129.459 1.836L127.211 7.38ZM148.673 26.604L147.368 21.672H138.74L137.398 26.604H129.531L138.196 0.216H147.767L156.54 26.604H148.673ZM144.721 11.52C144.468 10.548 144.141 9.324 143.743 7.812C143.344 6.3 143.126 5.184 142.981 4.536C142.872 5.148 142.655 6.156 142.329 7.56C142.002 8.964 141.314 11.736 140.19 15.84H145.845L144.721 11.52ZM157.519 26.604V0.324H164.697V20.88H174.92V26.604H157.519ZM176.733 26.604V0.324H183.911V20.88H194.134V26.604H176.733ZM212.478 20.808V26.604H196.744V0.324H212.478V6.012H203.886V10.152H211.825V15.84H203.886V20.808H212.478ZM230.278 15.156L238 26.604H229.879L224.26 17.028H222.448V26.604H215.269V0.324H223.97C231.184 0.324 234.773 2.916 234.773 8.1C234.773 11.124 233.251 13.5 230.278 15.156ZM223.861 5.688H222.448V11.7H223.789C226.29 11.7 227.559 10.62 227.559 8.424C227.523 6.588 226.29 5.688 223.861 5.688Z" fill="#1E1E1E"/>
</svg>
