<svg width="57" height="57" viewBox="0 0 57 57" fill="none" xmlns="http://www.w3.org/2000/svg">
<path fill-rule="evenodd" clip-rule="evenodd" d="M37.0576 5.57194C37.2941 5.55959 37.5233 5.57232 37.7453 5.61017C37.5822 5.59882 37.4232 5.61155 37.2677 5.6484C37.1932 5.62512 37.1233 5.59962 37.0576 5.57194Z" fill="#1E1E1E"/>
<path d="M0 0H57.0001V46.2628H0V0Z" fill="#1E1E1E"/>
<path d="M0 46.9258H57.0001V57.0002H0V46.9258Z" fill="#1E1E1E"/>
<path d="M57.0001 33.1142H56.8939C56.2616 31.5624 55.5462 30.0475 54.7477 28.5742H55.4493C56.0031 29.6365 56.5201 30.7126 57.0001 31.8071V33.1142ZM0 6.33649C2.80616 5.39433 5.69077 4.72928 8.62616 4.34595L9.46155 0H16.2323L14.7139 3.94414C16.5369 3.93952 18.3554 4.04575 20.1646 4.26281L22.2739 0H29.7139L26.1693 5.38509C30.8723 6.60436 35.3493 8.56258 39.4293 11.1905C40.2416 11.7123 41.0308 12.2619 41.797 12.83H40.7216C36.2123 9.65252 31.1585 7.3156 25.8093 5.94392L21.4754 12.673H18.3646V17.2545L10.6892 29.7843H8.23385V33.9732L0.369231 46.2628H0.12L19.8785 4.85397C18.0923 4.64614 16.2923 4.54916 14.4969 4.56301L0.0553847 46.2628H0M0 45.4916L8.4877 5.00176C5.61231 5.40357 2.78308 6.08709 0.0369231 7.03387H0" fill="#D8D5CC"/>
<path d="M23.4109 23.183H27.5728V19.2857H23.4109V17.4273H28.4771L28.2003 13.5208H19.1752V27.8246H23.4109V23.183ZM41.0181 27.783H45.5722L47.6485 24.274L49.7756 27.7876H54.4357L49.9417 20.3768L53.9882 13.5439H49.3741L47.6346 16.5119L45.8306 13.5346H41.1381L45.3046 20.4091L41.0181 27.783ZM35.7212 27.9401C39.7492 27.9956 43.0621 24.778 43.1313 20.742C42.9606 16.6367 39.5047 13.4468 35.4028 13.6132C31.5409 13.775 28.4495 16.8725 28.288 20.742C28.3526 24.7826 31.6747 28.0049 35.7073 27.9401H35.7212ZM34.4108 17.6029C34.4154 16.8956 34.9737 16.3223 35.675 16.29C36.3995 16.3038 36.9854 16.8817 37.0131 17.6029V23.673C36.9624 24.3942 36.3395 24.9351 35.6197 24.8843C34.9691 24.8381 34.4569 24.3203 34.4108 23.673V17.6029ZM24.3753 38.5039H28.6848V35.6422H24.3753V33.6959H29.626V30.5984H21.0485V43.973H29.6906V40.7553H24.3753V38.5039ZM42.9237 30.5984L41.2719 38.2542L39.657 30.5984H36.8055L35.269 38.3328L33.6679 30.5984H30.2674L33.3542 43.973H36.4548L37.9728 36.3079L39.537 43.973H42.573L45.6737 30.5984H42.9237ZM54.182 36.6408C53.2961 35.8225 52.281 35.6052 51.1413 35.2816C49.794 34.9025 49.0512 34.8609 49.0512 34.075C49.1065 33.4925 49.6233 33.0671 50.2047 33.1226H50.2139C51.0721 33.0533 51.8565 33.6219 52.0549 34.4633L54.9664 33.4925C54.4265 31.4583 52.544 30.076 50.4446 30.1685C47.4039 30.1685 45.5445 32.0408 45.5445 34.5604C45.5445 36.7379 46.8087 37.8104 49.3418 38.5686C50.8552 39.0263 51.6581 38.9893 51.6581 39.9648C51.6581 40.4779 51.1828 40.8801 50.3938 40.8801C49.3511 41.0003 48.4006 40.2838 48.2206 39.2482L45.0277 39.9509C45.5722 42.489 47.4593 43.9961 50.3523 43.9961C51.7827 44.0331 53.1623 43.4645 54.1497 42.4289C54.8787 41.6245 55.2801 40.575 55.2709 39.484C55.3309 38.4207 54.9294 37.3851 54.1774 36.6362H54.182V36.6408ZM16.9051 37.3111L12.9278 30.6585H9.07049V43.9822H12.4572V36.197L16.9974 43.9637H20.2088V30.64H16.9144L16.9051 37.3111ZM5.46231 51.4485C5.82682 51.3838 6.18672 51.5918 6.31591 51.9386H8.21689C8.09693 51.0371 7.07723 50.5008 5.49 50.5008C3.67206 50.5239 2.51855 51.3052 2.51855 52.5765C2.51855 53.7323 3.65361 54.4813 5.37465 54.4813C6.96188 54.4813 8.00003 53.9311 8.19382 52.9926H6.32052C6.2144 53.3532 5.91449 53.5335 5.43001 53.5335C4.79789 53.5335 4.45645 53.196 4.45645 52.5257C4.45645 51.8553 4.81173 51.4485 5.46231 51.4485ZM23.9508 53.6306V52.2298C24.0246 51.7952 23.8816 51.3514 23.5724 51.0417C22.9357 50.658 22.1928 50.4869 21.45 50.5609C19.812 50.5609 18.9169 50.9585 18.7323 51.8276H20.4718C20.5456 51.5548 20.864 51.4069 21.4084 51.4069C21.9529 51.4069 22.1559 51.5225 22.1559 51.7351V51.823C22.1559 52.1096 21.4407 52.0495 20.1027 52.2529C19.083 52.4055 18.5708 52.7846 18.5708 53.3995C18.5708 54.0143 19.2398 54.4674 20.3749 54.4674C21.0209 54.4859 21.6622 54.3102 22.2113 53.9681C22.2297 54.0975 22.262 54.227 22.3082 54.3472H24.2092V54.2085C24.0431 54.1438 23.9554 53.9496 23.9554 53.6167L23.9508 53.6306ZM22.1467 53.0342C22.1467 53.4272 21.6899 53.6676 21.0532 53.6676C20.6287 53.6676 20.3564 53.4827 20.3564 53.2284C20.3564 52.9741 20.5548 52.8909 20.9886 52.8169C21.3808 52.78 21.7683 52.7106 22.1467 52.6089V53.0342ZM30.6688 50.5655C30.0275 50.51 29.3953 50.7273 28.9201 51.1619V50.6672H27.0837V54.3657H28.9847V52.3778C28.9847 51.7444 29.2569 51.4855 29.9398 51.4855C30.6227 51.4855 30.7334 51.8137 30.7334 52.4933V54.3518H32.6344V51.9339C32.6113 51.0001 32.0899 50.5655 30.6919 50.5655H30.6688ZM14.2428 50.6164C13.6015 50.5701 12.9647 50.7782 12.471 51.1942V49.4005H10.5701V54.4119H12.471V52.4379C12.471 51.8045 12.7433 51.5456 13.4261 51.5456C14.109 51.5456 14.2198 51.8738 14.2198 52.5534V54.4119H16.1207V51.8738C16.1207 51.0509 15.4702 50.6164 14.2613 50.6164H14.2428ZM39.5693 50.5655C38.9279 50.51 38.2958 50.7273 37.8206 51.1619V50.6672H36.0165V54.3657H37.9175V52.3778C37.9175 51.7444 38.1897 51.4855 38.8726 51.4855C39.5555 51.4855 39.6662 51.8137 39.6662 52.4933V54.3518H41.5672V51.9339C41.5441 51.0001 41.0181 50.5655 39.6154 50.5655H39.5693ZM46.9518 50.5285C45.1938 50.5285 44.0541 51.2821 44.0541 52.5211C44.0541 53.7601 45.2169 54.4766 46.9979 54.4766C48.4744 54.4766 49.531 54.0051 49.8494 53.2099H48.0315C47.8976 53.4781 47.5747 53.6167 47.0625 53.6167C46.3935 53.6167 46.029 53.3394 46.029 52.8169H49.9278C49.9324 52.743 49.9324 52.6736 49.9278 52.5997C49.9417 51.3052 48.8112 50.5331 46.9979 50.5331L46.9518 50.5285ZM45.9321 52.105C46.0059 51.6103 46.4027 51.3422 47.0071 51.3422C47.6116 51.3422 48.073 51.6196 48.0822 52.105H45.9321ZM52.5348 49.3959V54.4073H54.4357V49.3959H52.5348Z" fill="#D8D5CC"/>
</svg>
