<svg width="159" height="53" viewBox="0 0 159 53" fill="none" xmlns="http://www.w3.org/2000/svg">
<path d="M36.1234 28.2534L38.8975 26.7985V4.68717H36.8L31.6782 11.5772H31.1031L31.4279 3.82934H53.6337L53.9585 11.5841H53.3428L48.3225 4.69403H46.1641V26.7436L48.9517 28.2397V28.9877H36.1234V28.2534ZM56.1169 27.2789V2.78622L53.9585 1.90781V1.45488L61.7394 0H62.5919V11.6253L62.7746 11.44C64.6352 9.83413 66.9965 8.94199 69.4458 8.92827C72.8558 8.92827 74.3579 10.8841 74.3579 14.5144V27.272L76.1779 28.2808V28.9808H66.0019V28.2808L67.8287 27.272V14.4733C67.8287 12.4694 66.9627 11.6733 65.3524 11.6733C64.3781 11.6527 63.4241 11.9684 62.6595 12.5723V27.3132L64.4525 28.322V28.9877H54.2765V28.322L56.1169 27.2789ZM81.7125 19.7575C81.9222 23.8064 83.7152 26.9358 87.9507 26.9358C90.0008 26.9358 91.4554 25.975 92.8019 25.2407V26.0368C90.9683 28.3083 88.2145 29.6053 85.3187 29.571C78.749 29.571 75.3998 25.8652 75.3998 19.4555C75.3998 13.19 79.0737 9.28512 85.0007 9.28512C90.5826 9.28512 93.4785 12.1125 93.4785 19.5653V19.7575H81.7125ZM81.6042 18.8173L87.3959 18.4604C87.3959 13.4439 86.5501 10.1155 84.8519 10.1155C83.0386 10.1224 81.6042 13.9929 81.6042 18.8173ZM0 38.7944C0 28.1367 6.9554 24.3417 14.7024 24.3417C17.9907 24.3417 21.0895 24.8907 22.8283 25.6044L22.9772 33.0435H22.2397L17.693 25.8446C16.7796 25.474 15.7985 25.3162 14.8107 25.3711C10.6902 25.3711 8.586 30.2024 8.65366 38.115C8.72808 47.5785 10.3519 51.8883 14.1341 51.8883C14.9054 51.9157 15.6767 51.7853 16.4007 51.5039V41.361L13.904 39.9198V39.0552H25.961V39.961L23.5049 41.3541V51.3598C20.582 52.4098 17.4968 52.9451 14.3912 52.9314C5.58868 52.9382 0 48.8001 0 38.7944ZM24.8446 33.819V33.2013L32.9299 31.7533L33.823 31.8288V48.0383C33.823 49.9942 34.75 50.5912 36.3061 50.5912C37.3278 50.6049 38.2953 50.1452 38.9381 49.3354V34.7935L36.7188 33.8121V33.1808L44.8042 31.7327L45.6161 31.8082V50.4059L47.8015 51.3324V51.9226L39.8718 52.9108L39.0599 52.8353V50.3922H38.8366C37.206 52.0049 35.0341 52.9314 32.7608 52.9863C28.8703 52.9863 27.0909 50.6598 27.0909 47.1256V34.7935L24.8446 33.819ZM75.6772 31.719L76.3471 31.7945V37.813H76.5297C77.3958 33.4347 79.3038 31.7945 81.638 31.7945C81.9763 31.7808 82.3146 31.8288 82.6326 31.9455V38.0395C82.0846 37.9228 81.523 37.8748 80.9682 37.8885C79.4526 37.8473 77.9438 38.1562 76.5568 38.7807V50.6461L78.4039 51.6824V52.499H67.8896V51.6892L69.7841 50.6461V34.4503L67.5648 33.7778V33.2288L75.6772 31.719ZM96.0225 32.2269V25.8995L93.8032 25.1103V24.6093L101.99 23.0858L102.768 23.2025V50.3785L105.028 51.2089V51.9088L96.9426 53L96.3134 52.9245V50.6873H96.1307C94.7302 52.1902 92.7748 53.0206 90.7383 52.9794C86.3268 52.9794 83.1063 49.5618 83.1063 42.5894C83.1063 35.2258 86.8478 31.6024 92.5177 31.6024C93.7085 31.5406 94.9128 31.7533 96.0225 32.2269ZM96.0225 49.6305V33.3592C95.4 32.8239 94.5948 32.57 93.7829 32.6523C91.5908 32.7278 90.2376 36.0836 90.2376 42.061C90.2376 47.4344 91.2051 50.4402 94.128 50.3373C94.8249 50.3442 95.4947 50.0902 96.0225 49.6305ZM113.891 31.719L114.595 31.7945V50.6461L116.442 51.6824V52.499H105.928V51.6892L107.816 50.6461V34.7523L105.556 33.8464V33.2151L113.891 31.719ZM114.629 26.6201C114.568 28.5759 112.964 30.1132 111.036 30.0789C109.764 30.1269 108.567 29.4681 107.917 28.3632C107.267 27.2583 107.267 25.8721 107.917 24.7672C108.567 23.6623 109.764 23.0035 111.036 23.0515C112.991 23.0241 114.602 24.6162 114.629 26.5995V26.6201ZM138.242 50.6461V34.5807L136.023 33.7915V33.0161L144.108 31.4926L144.92 31.568V33.9768H145.143C147.065 32.3092 149.507 31.3896 152.038 31.3828C155.556 31.3828 157.112 33.071 157.112 36.8523V50.6187L159 51.7098V52.5059H148.472V51.6961L150.36 50.653V37.1885C150.36 35.1229 149.467 34.2925 147.802 34.2925C146.801 34.2651 145.827 34.5807 145.028 35.1915V50.6461L146.882 51.6824V52.5059H136.361V51.6961L138.242 50.6461ZM126.801 40.5512V37.8542C126.801 33.7984 125.928 32.467 123.452 32.467C123.174 32.4739 122.89 32.5014 122.613 32.5425L118.208 38.5954H117.586V33.0161C119.967 32.1857 122.464 31.7465 124.981 31.7122C130.373 31.7122 133.492 33.2288 133.492 37.8062V50.9344L135.421 51.449V51.9637C134.196 52.602 132.829 52.9176 131.449 52.8902C128.79 52.8902 127.518 52.0049 126.936 50.5295H126.747C125.617 52.0804 124.02 52.9657 121.503 52.9657C118.303 52.9657 116.111 50.9344 116.111 47.4344C116.111 44.0374 118.188 42.1982 122.41 41.3816L126.801 40.5512ZM126.801 49.6305V41.512L125.454 41.6218C123.343 41.8071 122.579 43.1727 122.579 46.1991C122.579 49.4795 123.655 50.3304 125.123 50.3304C125.759 50.3922 126.388 50.1314 126.801 49.6305ZM58.5323 40.5512V37.8542C58.5323 33.7984 57.6595 32.467 55.1831 32.467C54.9057 32.4739 54.6216 32.5014 54.3442 32.5425L49.9395 38.5885H49.3238V33.0161C51.7054 32.1857 54.1953 31.7465 56.7123 31.7122C62.1047 31.7122 65.2238 33.2288 65.2238 37.8062V50.9344L67.1521 51.449V51.9637C65.9275 52.602 64.5608 52.9176 63.1805 52.8902C60.5215 52.8902 59.2495 52.0049 58.6676 50.5295H58.4849C57.355 52.0804 55.7583 52.9657 53.2413 52.9657C50.041 52.9657 47.8489 50.9344 47.8489 47.4344C47.8489 44.0374 49.926 42.1982 54.148 41.3816L58.5323 40.5512ZM58.5323 49.6305V41.512L57.1859 41.6218C55.0749 41.8071 54.3103 43.1727 54.3103 46.1991C54.3103 49.4795 55.3861 50.3304 56.8543 50.3304C57.4903 50.3922 58.1196 50.1314 58.5323 49.6305Z" fill="#1E1E1E"/>
</svg>
