<svg width="55" height="49" viewBox="0 0 55 49" fill="none" xmlns="http://www.w3.org/2000/svg">
<path opacity="0.954" fill-rule="evenodd" clip-rule="evenodd" d="M17.2465 38.1806C19.0008 37.9905 20.4639 38.5413 21.6355 39.8329C21.8793 40.1828 22.0686 40.5614 22.2034 40.9689C21.3601 41.2687 20.4996 41.4064 19.6217 41.382C19.1068 40.3894 18.315 40.0624 17.2465 40.4009C16.3938 40.7706 16.2562 41.3041 16.8334 42.0016C18.1002 42.2849 19.3739 42.543 20.6544 42.7761C20.9808 42.922 21.2906 43.0942 21.5838 43.2925C21.7102 43.572 21.8995 43.8302 22.1518 44.067C22.8093 46.6118 21.8626 48.2124 19.3119 48.869C17.6549 49.1496 16.1059 48.8743 14.6648 48.0429C14.0823 47.5532 13.6348 47.0196 13.3223 46.4422C13.1486 46.1174 13.0797 45.7903 13.1157 45.4611C13.8402 45.3691 14.5631 45.2658 15.2844 45.1513C15.336 45.0997 15.3877 45.048 15.4393 44.9964C16.0256 46.4167 17.0755 47.019 18.589 46.8036C19.1179 46.585 19.462 46.2063 19.6217 45.6677C19.5593 45.4128 19.4216 45.2063 19.2086 45.048C17.8219 44.786 16.4449 44.4761 15.0778 44.1186C13.922 43.3382 13.4917 42.2539 13.787 40.8656C13.9321 40.1349 14.2935 39.5325 14.8713 39.0584C15.2278 38.9663 15.5376 38.7943 15.8007 38.5421C16.2886 38.3878 16.7705 38.2673 17.2465 38.1806Z" fill="#1E1E1E"/>
<path opacity="0.954" fill-rule="evenodd" clip-rule="evenodd" d="M48.7436 38.1807C50.6711 38.0519 52.2717 38.706 53.5457 40.1428C53.7778 40.6417 54.036 41.1237 54.3202 41.5886C54.309 41.6859 54.2746 41.7719 54.2169 41.8467C53.4698 42.0569 52.7125 42.2462 51.945 42.4147C51.6503 42.0186 51.3405 41.6228 51.0156 41.2271C50.029 40.5572 48.9963 40.4883 47.9175 41.0206C47.2766 41.4928 46.9152 42.1297 46.8332 42.9311C46.6935 43.8374 46.8313 44.6979 47.2462 45.5128C48.0582 46.4521 49.0737 46.7447 50.2927 46.3906C51.0367 46.0769 51.5531 45.5433 51.8417 44.7899C52.6281 44.9917 53.437 45.1982 54.2686 45.4095C54.0112 46.3181 53.5465 47.127 52.8744 47.8364C50.1038 49.5863 47.5048 49.3625 45.0776 47.1651C43.495 44.786 43.495 42.4108 45.0776 40.0395C46.1113 39.015 47.3334 38.3954 48.7436 38.1807Z" fill="#1E1E1E"/>
<path opacity="0.96" fill-rule="evenodd" clip-rule="evenodd" d="M0.206565 38.3873C1.58387 38.3701 2.96086 38.3873 4.33734 38.439C4.96026 40.2852 5.56263 42.0579 6.14455 43.7573C6.40376 42.7697 6.73071 41.8575 7.12561 41.0207C7.07842 40.9779 7.04393 40.9263 7.02234 40.8658C7.35869 40.0634 7.63401 39.2372 7.8485 38.3873C9.25988 38.3873 10.6712 38.3873 12.0825 38.3873C12.0825 41.8296 12.0825 45.272 12.0825 48.7143C11.1875 48.7143 10.2926 48.7143 9.39754 48.7143C9.41478 46.3733 9.39754 44.0324 9.3459 41.6919C8.5246 44.0882 7.71569 46.4462 6.91907 48.7659C6.36834 48.8348 5.8175 48.8348 5.26676 48.7659C5.17093 48.7258 5.10205 48.657 5.06023 48.5594C4.26422 46.2476 3.52409 43.9929 2.83993 41.7952C2.80554 44.1015 2.77105 46.408 2.73666 48.7143C1.90142 48.8328 1.05812 48.8501 0.206565 48.7659C0.15493 48.7143 0.103295 48.6626 0.0516605 48.611C-0.0172202 45.272 -0.0172202 41.9329 0.0516605 38.5939C0.125705 38.5377 0.177339 38.4688 0.206565 38.3873Z" fill="#1E1E1E"/>
<path opacity="0.969" fill-rule="evenodd" clip-rule="evenodd" d="M23.4424 38.3873C24.4757 38.3701 25.5084 38.3873 26.5405 38.4389C27.7411 40.4442 28.9287 42.458 30.1033 44.4802C30.1549 42.4495 30.1721 40.4185 30.1549 38.3873C31.0499 38.3873 31.9449 38.3873 32.8399 38.3873C32.8399 41.8296 32.8399 45.2719 32.8399 48.7142C31.7722 48.7314 30.7051 48.7142 29.6385 48.6626C28.3832 46.6938 27.2301 44.7144 26.179 42.7246C26.1274 44.7208 26.1101 46.7174 26.1274 48.7142C25.2324 48.7142 24.3374 48.7142 23.4424 48.7142C23.4424 45.2719 23.4424 41.8296 23.4424 38.3873Z" fill="#1E1E1E"/>
<path opacity="0.949" fill-rule="evenodd" clip-rule="evenodd" d="M34.389 38.3873C36.2482 38.3701 38.107 38.3873 39.9655 38.439C41.4475 38.4981 42.463 39.2039 43.012 40.556C43.2896 41.946 42.7904 42.9271 41.5146 43.4992C43.0622 43.9941 43.6302 45.0441 43.2185 46.6489C42.9286 47.6273 42.2918 48.264 41.308 48.5594C40.8326 48.6689 40.3506 48.7377 39.8623 48.7659C38.0723 48.8348 36.2822 48.8348 34.4923 48.7659C34.4406 48.7143 34.389 48.6626 34.3374 48.611C34.2522 45.1957 34.2693 41.7878 34.389 38.3873ZM37.074 40.7625C37.9353 40.7454 38.7958 40.7625 39.6557 40.8142C40.1436 41.0656 40.2985 41.4616 40.1204 42.0018C39.9951 42.1617 39.8402 42.2821 39.6557 42.3632C38.7958 42.4148 37.9353 42.432 37.074 42.4148C37.074 41.8641 37.074 41.3133 37.074 40.7625ZM37.074 44.4802C37.9009 44.4631 38.727 44.4802 39.5525 44.5319C40.42 44.7935 40.6438 45.327 40.2237 46.1325C40.0535 46.2582 39.8642 46.3442 39.6557 46.3907C38.7958 46.4423 37.9353 46.4595 37.074 46.4423C37.074 45.7883 37.074 45.1342 37.074 44.4802Z" fill="#1E1E1E"/>
<path opacity="0.956" fill-rule="evenodd" clip-rule="evenodd" d="M18.9356 0.0558997C24.4927 -0.333017 26.9033 2.23833 26.1675 7.76994C25.4205 13.5889 24.5099 19.3744 23.4355 25.1265C22.2902 22.7291 21.058 20.3718 19.7392 18.0553C18.1298 14.1102 16.5227 10.3603 14.9179 6.80569C14.6111 3.54458 15.9503 1.29465 18.9356 0.0558997Z" fill="#1E1E1E"/>
<path opacity="0.94" fill-rule="evenodd" clip-rule="evenodd" d="M31.7924 0.0559098C37.7907 -0.429753 40.2014 2.24863 39.0243 8.09137C36.6115 13.1177 34.4152 18.0997 32.4353 23.0373C31.7866 23.6342 31.2508 24.3307 30.8282 25.1265C29.8202 19.8508 28.9633 14.4403 28.2568 8.89492C28.2777 7.373 29.0276 6.40874 30.5068 6.00215C29.6563 5.84241 28.7991 5.78873 27.9354 5.84144C27.8325 2.95093 29.1182 1.02242 31.7924 0.0559098Z" fill="#1E1E1E"/>
<path opacity="0.942" fill-rule="evenodd" clip-rule="evenodd" d="M8.97202 7.44831C10.9272 7.41424 12.695 7.94972 14.2754 9.0554C17.8416 15.9498 20.7879 22.6996 23.1144 29.3048C16.9069 25.4063 10.9071 21.1742 5.115 16.6087C3.35395 12.2574 4.63962 9.20389 8.97202 7.44831Z" fill="#1E1E1E"/>
<path opacity="0.948" fill-rule="evenodd" clip-rule="evenodd" d="M43.042 7.44873C48.8012 7.60462 50.9978 10.4974 49.6311 16.127C49.2644 16.8049 48.7822 17.3941 48.1847 17.8948C42.5429 21.6548 36.918 25.4581 31.3103 29.3052C31.1495 29.1445 30.9888 28.9838 30.8281 28.8231C33.728 22.4339 36.6741 16.0592 39.6671 9.69866C40.6809 8.73055 41.8059 7.98068 43.042 7.44873Z" fill="#1E1E1E"/>
<path opacity="0.97" fill-rule="evenodd" clip-rule="evenodd" d="M4.79328 20.3052C6.23018 20.3659 7.62302 20.634 8.97172 21.1087C13.8657 24.6771 18.7941 28.159 23.757 31.5548C17.1169 31.9296 10.4743 31.9833 3.82903 31.7155C3.40048 31.5011 2.9719 31.2871 2.54335 31.0727C1.57077 29.9905 0.767227 28.9729 0.132714 28.0192C-0.487485 24.0944 1.06605 21.523 4.79328 20.3052Z" fill="#1E1E1E"/>
<path opacity="0.965" fill-rule="evenodd" clip-rule="evenodd" d="M47.8634 20.3052C54.2317 21.2244 55.8925 24.5456 52.8454 30.2691C52.2762 30.5276 51.7941 30.9027 51.399 31.3941C47.7783 31.7586 44.1353 31.9193 40.4708 31.8762C37.1496 31.7692 33.8281 31.6619 30.5068 31.5548C35.1497 28.3615 39.7566 25.094 44.3278 21.7516C45.4698 21.0698 46.6485 20.5877 47.8634 20.3052Z" fill="#1E1E1E"/>
</svg>
