<svg width="105" height="33" viewBox="0 0 105 33" fill="none" xmlns="http://www.w3.org/2000/svg">
<path d="M11.7293 0H12.3222C15.4915 0.117115 18.6254 0.987808 21.42 2.48285C20.3603 4.56023 19.3022 6.63842 18.2401 8.71338C16.8678 7.5915 15.1983 6.73938 13.402 6.64488C12.3181 6.59077 11.1429 6.81612 10.3312 7.58665C9.57842 8.26592 9.37569 9.49442 9.90554 10.3643C10.3215 10.9628 10.9701 11.3513 11.6235 11.6445C12.5879 12.0871 13.6298 12.3133 14.633 12.6493C16.044 13.0887 17.43 13.6443 18.6852 14.4318C19.7061 15.0723 20.6406 15.8817 21.3126 16.8897C22.3448 18.4218 22.7075 20.3102 22.6776 22.1332C22.6671 24.4335 21.9886 26.7855 20.4912 28.564C19.0276 30.3385 16.8872 31.4346 14.6774 31.9628C13.4626 32.2528 12.2123 32.3739 10.9644 32.3885H10.378C6.66992 32.3247 3.02319 31.0679 0 28.9323V28.9235C1.13965 26.7807 2.27931 24.6378 3.41977 22.4958C4.94631 23.8407 6.71596 24.9973 8.72792 25.4399C9.85385 25.679 11.0517 25.7266 12.1638 25.3938C12.9909 25.1499 13.692 24.5353 14.0595 23.7575C14.385 23.0354 14.3616 22.1639 14.0167 21.4539C13.5991 20.6761 12.7825 20.2319 12.0031 19.8878C10.2674 19.1504 8.43958 18.6625 6.69012 17.9623C5.52623 17.5245 4.43019 16.8832 3.52315 16.0287C2.74858 15.2815 2.14765 14.3575 1.76158 13.3544C1.23496 11.8755 1.18731 10.2682 1.33512 8.71904C1.58631 6.21035 2.79704 3.76465 4.80012 2.20177C6.75554 0.670385 9.27392 0.0121154 11.7293 0Z" fill="#1E1E1E"/>
<path d="M26.2056 31.5361C26.2032 21.3083 26.204 11.0813 26.2056 0.853516C28.8654 0.854323 31.5251 0.852708 34.1856 0.854323C34.1864 8.82786 34.1856 16.8022 34.1856 24.7757C37.7815 24.7774 41.3781 24.7749 44.974 24.7774C44.974 27.03 44.974 29.2827 44.974 31.5353C38.7176 31.5369 32.4612 31.5353 26.2056 31.5361Z" fill="#1E1E1E"/>
<path d="M48.8207 6.91185C48.8053 4.89262 48.8166 2.87258 48.815 0.853347C50.6194 0.853347 52.4238 0.853347 54.2282 0.852539C58.122 11.0812 62.0272 21.3049 65.9098 31.5376C63.0732 31.5343 60.2366 31.5368 57.4008 31.536C56.6092 29.2849 55.8363 27.0266 55.0375 24.7788C52.9633 24.7853 50.8884 24.7812 48.8142 24.7812C48.8142 22.758 48.8126 20.7355 48.815 18.713C50.1865 18.7138 51.5579 18.7138 52.9286 18.713C51.5628 14.7788 50.1808 10.8485 48.8207 6.91185Z" fill="#1E1E1E"/>
<path d="M62.6566 0.853472C69.6892 0.852664 76.721 0.851856 83.7527 0.853472C83.7527 3.10613 83.7535 5.35878 83.7527 7.61224C81.5671 7.61305 79.3815 7.61224 77.1959 7.61224C77.1935 15.5874 77.1983 23.5617 77.1935 31.5361C74.5337 31.5337 71.874 31.5369 69.2143 31.5345C69.2126 23.5609 69.2151 15.5866 69.2135 7.61224C67.0278 7.61224 64.8422 7.61305 62.6566 7.61224C62.6558 5.35878 62.6566 3.10613 62.6566 0.853472Z" fill="#1E1E1E"/>
<path d="M87.5289 0.853549C93.3524 0.851933 99.1767 0.852741 105 0.852741V7.61232C101.839 7.61232 98.6775 7.61313 95.5162 7.61232C95.5138 9.31816 95.5162 11.024 95.5146 12.7299C98.6767 12.7323 101.838 12.7299 105 12.7307V19.4902C101.838 19.491 98.6767 19.4886 95.5146 19.4919C95.5154 21.2526 95.5154 23.0134 95.5146 24.7742C98.6759 24.7782 101.838 24.7742 105 24.7758V31.5354C99.1767 31.5354 93.3524 31.5362 87.5289 31.5345C87.5281 21.3075 87.5281 11.0805 87.5289 0.853549Z" fill="#1E1E1E"/>
</svg>
