<svg width="104" height="55" viewBox="0 0 104 55" fill="none" xmlns="http://www.w3.org/2000/svg">
<path d="M54.0373 27.02C54.0373 41.9417 41.9402 54.0373 27.0172 54.0373C12.0966 54.0373 0 41.9406 0 27.02C0 12.0966 12.0975 0 27.0172 0C41.9398 0 54.0373 12.0964 54.0373 27.02Z" fill="#1E1E1E"/>
<path d="M71.0283 5.59009C68.9209 5.59009 67.4296 6.81889 67.4296 8.65525C67.4296 10.3255 68.6617 11.0569 70.0574 11.4855C71.0962 11.8033 71.7144 11.9956 71.7144 12.6728C71.7144 13.2396 71.2874 13.5433 70.5758 13.5433C69.6325 13.5433 68.8125 13.0043 68.3176 12.4113L66.9898 14.2605C67.5804 14.9099 68.9485 15.6696 70.7138 15.6696C73.1101 15.6696 74.4358 14.2745 74.4358 12.4113C74.4358 10.6298 73.2312 9.91127 71.6719 9.41452C70.8774 9.1655 70.153 9.00027 70.153 8.39316C70.153 8.00677 70.4547 7.71639 71.1663 7.71639C71.9863 7.71639 72.6577 8.10342 73.0528 8.5586L74.2998 6.70767C73.603 6.04526 72.492 5.59009 71.0283 5.59009ZM78.1322 5.78296L74.5611 15.4758H77.3525L77.7901 14.0814H81.4164L81.8689 15.476H84.7305L81.1573 5.78317L78.1322 5.78296ZM57.7637 5.7836V11.9551C57.7637 14.3439 59.2019 15.6696 62.006 15.6696C64.7316 15.6696 66.2505 14.3439 66.2505 11.9551V5.78339H63.4995V11.1546C63.4995 12.2172 63.389 13.2533 62.006 13.2533C60.6252 13.2533 60.5147 12.2172 60.5147 11.1546V5.78339L57.7637 5.7836ZM79.5704 8.08863H79.6511C79.7063 8.50288 79.8295 9.08364 79.9804 9.53881L80.7196 11.8723H78.5018L79.2411 9.5386C79.3919 9.08364 79.5151 8.50288 79.5704 8.08863ZM70.7542 17.2147C67.181 17.2147 65.4836 19.8797 65.4836 22.2679C65.4836 24.6424 67.181 27.2933 70.7542 27.2933C74.3402 27.2933 76.0397 24.6424 76.0397 22.2679C76.0397 19.8797 74.3402 17.2147 70.7542 17.2147ZM57.8062 17.4075V19.6584H60.1727V27.1006H62.9238V19.6584H65.2903V17.4078L57.8062 17.4075ZM89.0982 17.4075L85.525 27.1004H88.3164L88.754 25.7053H92.3825L92.8349 27.1004H95.6944L92.1212 17.4075H89.0982ZM93.8079 17.4075L97.3939 23.648V27.1004H100.294V23.648L103.882 17.4075H100.952L99.6521 19.7964C99.378 20.307 98.9935 21.0809 98.9128 21.5909H98.8575C98.7768 21.0809 98.3923 20.307 98.1183 19.7964L96.8181 17.4078L93.8079 17.4075ZM77.0254 17.4082V27.1006H80.5688C83.9083 27.1006 85.9074 25.2233 85.9074 22.2553C85.9074 19.2304 83.9636 17.4082 80.5688 17.4082H77.0254ZM70.7415 19.6311C72.0841 19.6311 73.2036 20.5286 73.2036 22.2681C73.2036 23.9933 72.0841 24.8783 70.7415 24.8783C69.4265 24.8783 68.3048 23.9933 68.3048 22.2681C68.3048 20.5286 69.4265 19.6311 70.7415 19.6311ZM79.7764 19.6449H80.3649C82.1302 19.6449 83.0735 20.5008 83.0735 22.2551C83.0735 24.008 82.1302 24.8631 80.3649 24.8631H79.7764V19.6449ZM90.5343 19.7128H90.6171C90.6723 20.1279 90.7956 20.7076 90.9464 21.1645L91.6857 23.4982H89.4678L90.2071 21.1645C90.3558 20.7076 90.479 20.1279 90.5343 19.7128ZM68.3728 30.9923L68.3048 31.0052V33.4933H68.7212V31.9203L70.2444 33.5404L70.2911 33.5318V31.0395H69.8747V32.5889L68.3728 30.9923ZM71.1855 30.9923L71.1196 31.0052V33.4933H71.536V31.9203L73.0592 33.5404L73.1059 33.5318V31.0395H72.6895V32.5889L71.1855 30.9923ZM95.9748 30.9923L95.9068 31.0052V33.4933H96.3232V31.9203L97.8463 33.5404L97.8931 33.5318V31.0395H97.4788V32.5889L95.9748 30.9923ZM63.9945 30.9966C63.3083 30.9966 62.7028 31.5045 62.7028 32.2674C62.7028 33.0239 63.2998 33.534 63.9945 33.534C64.3599 33.534 64.6424 33.4375 64.9016 33.2661V32.1946H63.935V32.561H64.5043V33.0454C64.3599 33.1247 64.2218 33.1632 64.0115 33.1632C63.5292 33.1632 63.1468 32.7903 63.1468 32.2674C63.1468 31.7788 63.4612 31.3845 64.0136 31.3845C64.2388 31.3845 64.4724 31.4595 64.6679 31.5881L64.857 31.2538C64.6084 31.0974 64.3535 30.9966 63.9945 30.9966ZM83.6492 30.9988C82.8865 30.9988 82.3384 31.541 82.3384 32.2674C82.3384 32.9982 82.8801 33.534 83.6492 33.534C83.9508 33.534 84.2419 33.4332 84.4437 33.3025L84.3183 32.9468C84.1229 33.0646 83.8701 33.1418 83.6534 33.1418C83.1181 33.1418 82.7845 32.7839 82.7845 32.2674C82.7845 31.7488 83.1096 31.391 83.6449 31.391C83.8595 31.391 84.0974 31.466 84.2907 31.5774L84.4352 31.2217C84.1977 31.0776 83.9262 31.0007 83.6492 30.9988ZM86.1432 30.9988C85.44 30.9988 84.9004 31.5388 84.9004 32.2674C84.9004 32.9939 85.4166 33.534 86.1198 33.534C86.8251 33.534 87.3626 32.9939 87.3626 32.2674C87.3626 31.5388 86.8485 30.9988 86.1432 30.9988ZM88.0742 31.0031L88.0126 31.0073L87.9085 33.4933H88.3185L88.344 32.021L89.1173 33.1954H89.1683L89.9352 32.0231L89.9692 33.4933H90.3771L90.2751 31.0073L90.2071 31.0031L89.1534 32.6296L88.0742 31.0031ZM59.9284 31.0052L58.8067 33.4933H59.2337L59.4695 32.9318H60.4319L60.6677 33.4933H61.1074L59.9879 31.0052H59.9284ZM66.497 31.0052L65.3753 33.4933H65.8023L66.0402 32.9318H67.0004L67.2384 33.4933H67.6739L66.5565 31.0052H66.497ZM94.0989 31.0052L92.9752 33.4933H93.4043L93.6401 32.9318H94.6046L94.8382 33.4933H95.278L94.1584 31.0052H94.0989ZM91.8025 31.0224C91.6028 31.0224 91.401 31.0352 91.1864 31.0631V33.4933H91.6007V32.6939C91.6793 32.6982 91.7643 32.7046 91.8429 32.7046C92.4653 32.7046 92.8116 32.3489 92.8116 31.8496C92.8116 31.3888 92.4717 31.0224 91.8025 31.0224ZM73.9344 31.0395V33.4933H75.4193V33.1118H74.3508V32.4325H75.3152V32.0617H74.3508V31.4188H75.4193V31.0395H73.9344ZM76.0567 31.0395V31.421H76.8299V33.4933H77.2463V31.421H78.0153V31.0395H76.0567ZM78.5145 31.0395V31.421H79.2878V33.4933H79.7042V31.421H80.4753V31.0395H78.5145ZM98.4773 31.0395L99.3334 32.4603V33.4933H99.7498V32.4625L100.606 31.0395H100.141L99.548 32.0767L98.9531 31.0395H98.4773ZM86.1326 31.3738C86.5957 31.3738 86.9164 31.7553 86.9164 32.2674C86.9164 32.7775 86.5957 33.1611 86.1326 33.1611C85.6694 33.1611 85.3465 32.7775 85.3465 32.2674C85.3465 31.7553 85.6694 31.3738 86.1326 31.3738ZM91.8726 31.4081C92.2125 31.4081 92.3803 31.6203 92.3803 31.8624C92.3803 32.141 92.2083 32.3382 91.8322 32.3382C91.76 32.3382 91.6835 32.3317 91.6007 32.3253V31.4274C91.6857 31.4145 91.7791 31.4081 91.8726 31.4081ZM59.9518 31.7788L60.2959 32.5996H59.6055L59.9518 31.7788ZM66.5203 31.7788L66.8666 32.5996H66.1741L66.5203 31.7788ZM94.1223 31.7788L94.4665 32.5996H93.776L94.1223 31.7788Z" fill="#1E1E1E"/>
</svg>
