<svg width="53" height="49" viewBox="0 0 53 49" fill="none" xmlns="http://www.w3.org/2000/svg">
<path d="M22.8535 11.9284L16.6475 27.5877L10.517 11.9284H0L11.5855 39.177L7.36312 49H17.6721L33.0979 11.9284H22.8535ZM34.3919 26.7805C33.1313 26.7805 31.8991 27.1539 30.8509 27.8536C29.8028 28.5533 28.9859 29.5479 28.5035 30.7114C28.0211 31.875 27.8949 33.1553 28.1408 34.3906C28.3868 35.6258 28.9938 36.7605 29.8851 37.651C30.7765 38.5416 31.9121 39.148 33.1485 39.3937C34.3848 39.6394 35.6663 39.5133 36.8309 39.0314C37.9955 38.5494 38.9909 37.7332 39.6912 36.6861C40.3916 35.6389 40.7654 34.4077 40.7654 33.1483C40.7654 32.312 40.6005 31.484 40.2802 30.7114C39.9599 29.9388 39.4904 29.2369 38.8986 28.6456C38.3068 28.0543 37.6042 27.5852 36.8309 27.2652C36.0576 26.9452 35.2288 26.7805 34.3919 26.7805ZM41.5689 0L31.3879 24.442H42.8596L53 0H41.5689Z" fill="#1E1E1E"/>
</svg>
