<svg width="180" height="179" viewBox="0 0 180 179" fill="none" xmlns="http://www.w3.org/2000/svg">
<path d="M62.9342 21.8695C61.1947 21.8695 61.0434 23.7603 62.9342 23.7603C67.5384 23.8737 69.0132 23.9494 69.4765 22.8149C69.9397 21.6804 67.2642 21.8695 62.9342 21.8695Z" fill="#F6BD60"/>
<path d="M51.1551 26.3789C51.0865 26.7785 51.1045 27.1881 51.2076 27.5801C51.3108 27.9722 51.4968 28.3375 51.7531 28.6516C52.0094 28.9657 52.3301 29.2212 52.6935 29.4009C53.0569 29.5805 53.4546 29.6802 53.8598 29.6932C54.265 29.7061 54.6683 29.6321 55.0424 29.476C55.4166 29.3199 55.7529 29.0855 56.0288 28.7884C56.3046 28.4913 56.5136 28.1386 56.6416 27.7539C56.7696 27.3693 56.8137 26.9616 56.7708 26.5585C56.9599 22.3609 51.1551 22.6067 51.1551 26.3789Z" fill="#F6BD60"/>
<path d="M137.395 37.0523C137.489 36.1069 137.764 33.7434 136.657 33.7434C135.287 33.7434 135.087 38.0072 136.108 38.3475C136.656 38.5272 137.3 37.9788 137.395 37.0523Z" fill="#F6BD60"/>
<path d="M139.334 39.539C140.44 39.3783 140.619 38.0641 139.608 37.3362C138.407 36.542 137.859 39.7564 139.334 39.539Z" fill="#F6BD60"/>
<path d="M126.532 18.7401C111.075 31.626 108.957 58.7781 129.293 71.7491C130.749 72.6945 131.619 71.0306 129.388 69.5463C111.538 57.4829 113.316 31.9001 127.733 20.2149C138.965 10.6379 162.798 12.2073 171.449 25.4619C183.323 41.0139 173.973 70.8415 153.486 73.8668C152.928 73.9519 152.843 75.7576 155.046 75.5307C176.308 73.1294 185.422 40.7397 173.009 24.3558C163.81 10.2692 138.596 8.43512 126.532 18.7401Z" fill="#F6BD60"/>
<path d="M152.862 40.6448C158.856 39.6994 169.7 38.1583 171.174 35.3978C175.041 27.5792 159.026 15.7049 150.101 17.435C148.437 17.8037 148.437 22.5875 149.818 39.0565C150.101 41.8454 151.482 40.8528 152.862 40.6448Z" fill="#F6BD60"/>
<path d="M10.842 143.449C6.11497 138.296 3.94053 129.088 4.67795 122.744C-1.76028 127.159 1.09486 143.997 10.842 143.449Z" fill="#F6BD60"/>
<path d="M65.5147 41.7514C63.6712 41.931 64.5031 43.1317 65.3351 43.3113C67.3583 43.7745 79.0435 43.8691 81.7095 43.8691C83.2789 43.7745 83.0898 42.2997 80.1496 42.1201C78.1265 41.931 69.2869 41.2692 65.5147 41.7514Z" fill="#F6BD60"/>
<path d="M58.8884 53.0674C60.3632 53.5307 59.8338 52.4245 60.089 35.3977C60.089 33.1855 58.2455 33.9229 58.1982 35.3032C58.1131 36.0406 58.1982 42.8665 58.1982 47.4517C58.1509 51.1388 57.9713 52.7932 58.8884 53.0674Z" fill="#F6BD60"/>
<path d="M40.1116 21.4155C38.2681 21.4628 37.2754 23.3536 40.0171 23.3536C45.8219 23.3536 51.0689 23.5333 51.362 22.342C51.655 21.1508 49.4995 21.1697 40.1116 21.4155Z" fill="#F6BD60"/>
<path d="M57.0439 140.782C58.4035 141.879 59.969 142.692 61.648 143.174C82.9008 147.731 77.72 117.771 66.1576 109.395C63.4916 110.964 59.2561 110.964 59.2561 110.964C59.2561 110.964 58.982 111.238 56.8643 112.987C76.1033 121.912 72.974 143.448 57.0439 140.782Z" fill="#F6BD60"/>
<path d="M57.8749 19.1086C57.8749 20.1202 57.8749 20.9994 58.8203 20.7631C59.9358 20.5172 59.7657 18.2766 59.7657 13.6819C59.6711 6.11868 60.1344 4.93692 59.1228 4.74784C57.232 4.47367 57.8749 14.6935 57.8749 19.1086Z" fill="#F6BD60"/>
<path d="M105.186 22.9749C103.531 22.8804 93.0844 21.2259 93.0371 23.4287C93.0369 23.553 93.0611 23.676 93.1086 23.7908C93.156 23.9056 93.2256 24.01 93.3135 24.0978C93.4013 24.1856 93.5056 24.2553 93.6204 24.3027C93.7352 24.3501 93.8583 24.3744 93.9825 24.3741C97.8492 24.3741 104.751 24.9225 106.32 25.017C107.889 25.1116 106.868 23.1546 105.186 22.9749Z" fill="#F6BD60"/>
<path d="M134.822 30.2452C134.822 29.6874 133.073 29.1391 132.884 30.0561C132.695 30.9731 131.692 36.4092 133.252 36.674C134.812 36.9387 134.822 30.7935 134.822 30.2452Z" fill="#F6BD60"/>
<path d="M86.0677 27.3897C90.5773 27.3897 91.0406 20.025 86.0677 20.1196C80.6127 20.1196 81.5298 27.3897 86.0677 27.3897Z" fill="#F6BD60"/>
<path d="M87.4207 45.1546C87.5153 42.1198 86.8251 37.1375 87.2411 31.6258C87.3073 30.6804 86.3997 30.5102 85.6717 31.3516C85.2085 31.8811 85.3976 34.5187 85.3976 45.9865C85.3976 47.1778 87.4207 47.1778 87.4207 45.1546Z" fill="#F6BD60"/>
<path d="M104.976 12.0182C105.023 11.6128 104.981 11.2023 104.855 10.8144C104.728 10.4266 104.519 10.0705 104.243 9.77052C103.966 9.47053 103.629 9.23362 103.252 9.07594C102.876 8.91825 102.47 8.84348 102.062 8.85672C101.448 8.87712 100.856 9.09699 100.378 9.48311C99.8989 9.86924 99.5588 10.4007 99.4087 10.9971C99.3085 11.3933 99.2952 11.8054 99.3699 12.2072C99.3221 12.6125 99.3627 13.0234 99.4888 13.4115C99.615 13.7996 99.8237 14.1557 100.101 14.4554C100.517 14.9081 101.07 15.213 101.675 15.3241C102.28 15.4352 102.905 15.3465 103.456 15.0713C104.006 14.7962 104.452 14.3496 104.726 13.7989C105 13.2481 105.088 12.6232 104.976 12.0182Z" fill="#F6BD60"/>
<path d="M123.317 27.0217C122.305 27.1162 122.211 28.7707 122.211 29.4136C122.157 29.7682 122.221 30.1306 122.391 30.4461C122.562 30.7616 122.83 31.0131 123.156 31.1626C124.054 31.6258 124.329 26.9271 123.317 27.0217Z" fill="#F6BD60"/>
<path d="M128.006 23.8926C128.101 22.6068 126.257 22.2381 126.116 23.5239C125.974 24.8096 124.282 32.5998 126.484 33.2805C127.553 33.6303 127.553 32.7605 128.006 23.8926Z" fill="#F6BD60"/>
<path d="M87.2401 15.1475C87.2401 11.4699 87.2401 6.04323 86.9564 4.74802C86.7485 3.65135 85.2642 3.80261 85.1224 5.85415C84.9758 9.22846 85.0042 12.6081 85.2074 15.9795C85.302 17.5394 87.2401 17.823 87.2401 15.1475Z" fill="#F6BD60"/>
<path d="M56.7593 141.236C48.9407 136.916 46.0856 132.312 44.8849 127.254C43.325 126.242 42.0487 122.744 42.0487 122.744C42.0487 122.744 37.2555 126.148 33.54 123.292C35.1094 127.159 37.7755 141.889 37.7755 141.889C37.7755 141.889 49.6876 142.428 56.7593 141.236Z" fill="#F6BD60"/>
<path d="M165.651 137.19C165.467 137.26 165.314 137.394 165.221 137.569C165.129 137.743 165.102 137.945 165.148 138.137C165.193 138.329 165.306 138.498 165.467 138.613C165.628 138.727 165.825 138.779 166.021 138.759C167.779 138.502 169.433 137.77 170.805 136.642C173.017 134.978 174.397 131.849 173.471 131.3C173.358 131.208 173.224 131.146 173.081 131.12C172.938 131.094 172.79 131.105 172.653 131.151C172.515 131.197 172.391 131.278 172.292 131.385C172.194 131.492 172.124 131.622 172.09 131.763C171.324 134.647 168.374 136.084 165.651 137.19Z" fill="#F6BD60"/>
<path d="M165.19 134.25C164.736 134.429 164.084 134.892 164.642 135.441C165.199 135.989 167.402 135.63 168.877 134.335C172.961 130.619 170.314 129.069 169.425 130.752C168.993 131.591 168.395 132.334 167.667 132.935C166.939 133.537 166.096 133.984 165.19 134.25Z" fill="#F6BD60"/>
<path d="M131.136 28.7709C131.325 26.1048 131.694 24.8191 130.493 24.8191C129.945 24.8191 129.481 25.6416 129.387 27.0219C129.292 28.4022 128.205 33.9895 129.387 34.4812C130.88 35.0862 131.051 30.4254 131.136 28.7709Z" fill="#F6BD60"/>
<path d="M164.453 131.763C163.63 132.132 163.715 132.954 164.547 133.144C166.022 133.389 167.998 131.593 168.509 130.194C168.963 129.003 167.677 128.36 167.128 129.456C166.546 130.525 165.595 131.344 164.453 131.763Z" fill="#F6BD60"/>
<path d="M149.174 45.4285C152.568 44.814 171.174 40.5502 173.018 39.6332C174.303 38.9903 174.483 37.5154 173.471 37.7423C171.448 38.3001 150.782 43.1784 148.068 43.6322C146.887 16.9623 147.284 15.6765 145.676 16.2154C144.854 16.5841 145.034 17.5957 145.223 22.1053C145.591 28.8271 146.234 39.8695 146.045 41.6185C136.742 28.5908 135.929 25.2724 131.968 20.3563C130.956 19.0705 129.945 20.5454 130.862 21.8311C137.395 31.3987 141.725 38.8485 144.485 42.7246C120.85 33.4407 121.483 30.4343 119.999 32.4197C119.63 32.968 120.273 33.4313 120.737 33.7055C128.565 38.4892 140.524 43.273 145.034 45.0503C146.357 45.5344 147.785 45.6649 149.174 45.4285Z" fill="#F6BD60"/>
<path d="M104.077 42.2146C101.959 42.1295 90.841 41.7608 90.3683 43.0465C89.9995 44.1526 92.7601 43.9919 95.3316 44.0581C98.2435 44.2727 101.166 44.2727 104.077 44.0581C106.109 43.8123 106.194 42.2996 104.077 42.2146Z" fill="#F6BD60"/>
<path d="M141.355 122.744C141.166 155.228 191.056 145.84 177.281 114.821C167.95 97.7095 140.523 106.086 141.355 122.744ZM160.755 118.414C170.881 119.615 165.17 133.881 156.794 128.813C152.577 126.242 155.158 117.771 160.755 118.414ZM153.116 108.657C154.128 111.494 155.414 112.798 156.898 117.402C149.533 121.732 152.294 132.586 160.68 131.943C161.417 135.072 161.88 138.022 162.523 141.056C140.779 142.427 136.77 115.455 153.135 108.657H153.116ZM164.348 140.801C163.695 137.766 163.242 134.817 162.504 131.687C163.545 131.366 164.507 130.832 165.331 130.119C166.154 129.406 166.821 128.53 167.288 127.547C170.512 128.558 173.272 130.213 176.496 131.045C175.523 133.599 173.885 135.848 171.753 137.56C169.621 139.272 167.072 140.384 164.367 140.782L164.348 140.801ZM168.025 123.037C167.786 121.398 166.971 119.897 165.728 118.802C167.619 116.684 169.51 113.649 171.798 111.163C174.863 113.878 176.855 117.6 177.413 121.657C174.483 122.186 171.155 122.46 168.044 123.018L168.025 123.037Z" fill="#F6BD60"/>
<path d="M33.8541 64.1103C38.1746 64.2427 37.4467 64.8855 37.4467 57.5775C37.4467 56.2918 36.4351 56.2918 34.2228 56.4714C33.2774 56.566 33.0316 56.9347 33.0316 57.6721C33.0316 62.9191 32.748 64.1103 33.8541 64.1103Z" fill="#1E1D19"/>
<path d="M48.9511 27.4846C47.6559 28.1275 42.6925 30.6139 41.3123 31.2662C39.932 31.9186 39.6578 34.301 41.1232 33.6581C43.2409 32.6465 49.0457 29.6969 49.7737 29.2431C50.5016 28.7893 50.2369 26.8417 48.9511 27.4846Z" fill="#1E1D19"/>
<path d="M40.0169 43.2259C39.8751 44.9749 39.9508 62.1813 40.0169 63.0133C40.1399 64.3841 41.038 64.11 43.2408 64.11C44.1862 64.11 44.4415 63.6562 44.4415 62.9188C44.4415 41.9118 45.0371 41.9307 43.6095 41.9307C41.955 41.9307 40.1399 41.8456 40.0169 43.2259Z" fill="#1E1D19"/>
<path d="M22.3468 64.1102C23.1788 64.1102 23.2922 63.8361 23.2922 62.5503C23.2922 61.0755 23.2922 48.1896 23.1977 46.9984C23.1031 45.6181 22.3657 45.7977 19.8793 45.7977C18.3099 45.7977 18.7826 45.8639 18.7826 62.815C18.7637 64.3939 19.7753 64.1575 22.3468 64.1102Z" fill="#1E1D19"/>
<path d="M35.5075 39.9073C36.4529 39.4441 36.4529 38.3474 36.4529 36.5984C36.4529 9.18157 35.9897 7.52711 38.2019 5.21086C41.4258 1.78848 47.7694 2.73389 69.7691 2.26119C83.6666 2.08156 101.062 1.71285 103.549 1.98702C111.67 2.77171 108.881 5.17304 108.881 35.029C108.881 48.1891 108.332 49.3898 109.826 49.5694C111.32 49.749 110.374 32.2684 111.291 9.86226C111.575 2.59208 109.826 0.663446 103.728 0.115109C99.2185 -0.357595 54.4818 0.786349 49.4239 0.663446C35.3468 0.389278 34.2407 4.80433 34.6094 15.79C35.3184 32.6088 33.56 40.7487 35.5075 39.9073Z" fill="#1E1D19"/>
<path d="M13.0544 64.1099C15.3612 64.1099 16.4578 64.299 16.4578 62.3609C16.5524 54.5423 17.0156 53.994 15.2666 53.8049C13.5176 53.6158 11.9482 53.8049 11.9482 55.0056C12.0428 62.8241 11.7686 64.091 13.0544 64.1099Z" fill="#1E1D19"/>
<path d="M79.7807 24.1666C81.4352 24.2612 81.2556 22.5311 79.6011 22.4176C74.3163 22.0678 74.3541 21.9733 73.1534 22.7012C60.8631 30.1416 67.9348 28.61 59.2559 26.7476C57.6015 26.3789 57.7055 28.109 58.7076 28.6384C59.7097 29.1678 63.671 30.5292 64.9662 30.5292C66.0723 30.5292 72.6902 25.5564 74.2596 24.3651C74.7984 23.8168 78.0034 24.0626 79.7807 24.1666Z" fill="#1E1D19"/>
<path d="M54.5661 56.1022C54.377 57.0476 55.0199 57.0476 55.5115 57.0476C57.9034 57.0476 67.66 57.8701 68.1232 56.4898C68.4919 55.5444 67.3858 55.5444 60.56 55.3931C57.7048 55.2797 54.8686 54.911 54.5661 56.1022Z" fill="#1E1D19"/>
<path d="M97.1759 14.5988C95.9752 15.4308 91.5791 18.7681 90.6431 19.3826C89.9152 19.8648 90.2744 21.9636 91.3805 21.1316C92.7608 20.12 97.1759 16.8962 97.9984 16.3478C98.8209 15.7995 98.5562 13.5872 97.1759 14.5988Z" fill="#1E1D19"/>
<path d="M48.394 64.1102C51.5233 64.1102 52.0811 64.668 51.892 62.087C51.8069 60.6122 51.7124 36.9675 51.7124 35.6723C51.8069 33.9233 50.2375 34.4811 48.394 34.4811C47.2028 34.4811 47.0137 34.5662 47.0137 43.6799C47.0137 51.593 47.25 60.9809 47.2028 62.8244C47.1744 64.0251 47.6565 64.1102 48.394 64.1102Z" fill="#1E1D19"/>
<path d="M29.164 64.1097C30.1094 64.1097 30.3552 63.6559 30.3552 62.9185C30.3552 51.2616 30.8846 51.1671 29.5327 51.1387C27.6891 51.1387 25.9401 50.9497 25.9401 52.4245C25.9401 64.9984 24.8813 64.1854 29.164 64.1097Z" fill="#1E1D19"/>
<path d="M107.813 99.8279C107.208 112.695 102.009 107.741 94.19 103.231C91.8832 101.946 91.4105 103.714 92.441 104.423C102.51 111.447 109.279 113.631 109.279 100.102C109.231 97.9938 107.813 98.5327 107.813 99.8279Z" fill="#1E1D19"/>
<path d="M147.519 69.3568C144.668 66.4267 140.831 64.6582 136.751 64.3934C138.869 53.7103 127.297 52.4246 125.614 63.0982C125.34 64.2989 126.994 65.6792 127.458 63.5615C129.481 54.4478 136.477 56.3858 134.822 64.5069C126.172 70.9546 138.869 84.663 147.113 83.4718C146.47 85.6746 145.638 88.4352 144.9 90.8365C139.379 90.8365 128.98 84.9466 123.648 78.9622C125.671 74.9064 119.223 72.7036 122.352 69.0165C123.005 68.2885 122.078 66.8988 121.067 67.6362C118.401 69.527 119.176 72.8832 121.256 75.5587C122.91 77.667 121.615 81.6282 120.235 82.8289C121.256 76.2867 113.428 53.0958 97.8758 53.1904C83.6096 52.4529 59.7664 56.868 55.5404 70.9546C46.5212 65.3389 11.267 63.5899 7.86348 82.914C6.29411 89.3617 7.6744 95.8944 11.7302 101.822C11.6357 105.604 13.4792 109.556 15.7765 112.685C9.51795 112.865 1.78451 113.054 4.73419 121.515C-3.17888 125.571 -1.06117 144.8 10.2554 144.432C11.3615 147.107 11.267 147.381 13.5643 148.213C13.205 151.343 11.9098 162.111 11.3615 166.989C11.267 168.086 8.13765 169.466 6.75736 170.667C6.014 171.154 5.43597 171.855 5.09979 172.677C4.76362 173.499 4.68514 174.405 4.87474 175.273C5.06434 176.141 5.51309 176.931 6.16159 177.538C6.81008 178.146 7.62775 178.542 8.50636 178.674C21.2977 178.854 31.8863 178.674 47.6179 178.854C63.548 179.043 72.4727 179.497 72.9359 176.651C75.6965 177.597 103.491 177.842 108.275 177.2C112.057 177.105 118.211 178.145 119.875 176.093C122.352 172.964 118.769 171.035 118.58 168.455C129.991 152.903 135.427 152.723 124.385 129.343C125.765 125.656 121.71 122.527 123.005 118.849C140.485 111.116 139.748 112.685 146.101 93.0771C147.982 83.9918 155.082 77.4968 147.519 69.3568ZM75.3656 73.3181C84.7346 66.4639 102.102 61.491 103.435 62.8241C101.627 63.0453 99.9106 63.7435 98.4619 64.8472C98.3361 64.9536 98.2473 65.0971 98.208 65.257C98.1688 65.417 98.1812 65.5853 98.2435 65.7378C98.3044 65.8911 98.4124 66.0211 98.5518 66.1091C98.6913 66.1971 98.8552 66.2386 99.0197 66.2275C100.447 66.1425 103.832 63.0415 106.375 65.5847C101.317 65.8588 96.1646 70.3117 98.7361 75.5304C96.8453 75.2467 92.1844 77.9411 93.6782 79.4822C94.8599 80.7017 97.0816 76.6459 100.031 77.5913C101.317 78.0546 101.591 80.6545 103.066 80.8152C104.078 80.9286 104.267 79.624 103.709 78.9811C106.659 79.3403 110.894 77.7804 112.634 75.6627C117.606 86.6483 114.94 93.2662 101.686 97.9932C97.2707 99.5532 92.7611 100.291 85.6138 100.291C78.7784 93.996 74.6818 85.2734 74.2028 75.9936C74.1544 75.4857 74.2358 74.9738 74.4392 74.5059C74.6425 74.038 74.9613 73.6293 75.3656 73.3181ZM106.101 67.4282C105.552 70.3684 105.089 73.961 104.815 76.9957C97.0816 76.5419 99.568 67.6078 106.101 67.4282ZM12.2218 98.6267C-2.68727 68.4398 40.1113 64.1098 55.3891 72.9494C65.4199 79.9454 63.4913 87.1305 65.1457 95.0341C66.3464 100.196 69.5608 100.007 70.0241 103.694C70.2982 106.53 64.8716 109.367 61.5154 109.858C66.1195 104.242 65.193 93.6538 58.3861 92.2735C57.6469 92.1364 56.9483 91.8338 56.3425 91.3885C55.7367 90.9432 55.2395 90.3666 54.8881 89.702C53.9427 87.953 53.4132 86.4782 48.724 86.1095C42.5505 85.5611 26.4502 83.623 22.678 75.0671C22.0257 73.6868 21.2032 74.5093 21.1086 76.1732C11.3804 79.3025 9.65031 89.3333 12.3258 97.9932C12.3258 98.1634 12.2218 98.3525 12.2218 98.6267ZM48.308 94.4858L38.9201 87.3101C39.979 86.2513 38.9201 87.1683 50.057 88.2555C51.3617 91.3754 50.3312 93.616 48.308 94.4858ZM13.8857 99.8841C23.6423 103.477 27.5091 98.3241 27.2254 93.5404C26.8567 87.3669 19.1327 85.4382 13.1483 89.8533C13.154 88.3586 13.3705 86.8724 13.7912 85.4382C16.3382 84.0932 19.3093 83.7947 22.073 84.6063C22.1816 84.6667 22.301 84.705 22.4244 84.7192C22.5479 84.7333 22.6729 84.723 22.7924 84.6887C22.9118 84.6545 23.0233 84.597 23.1205 84.5196C23.2177 84.4422 23.2986 84.3463 23.3587 84.2376C24.1907 81.7606 18.1212 82.0348 14.9919 82.8573C16.684 80.4889 19.1097 78.7445 21.8933 77.8939C25.0226 82.4035 31.1867 84.8899 37.0766 86.2702C34.4956 88.9362 35.233 95.3745 38.8256 96.9438C44.2522 99.2412 54.1034 96.301 52.1653 89.1159C53.4605 91.1485 54.4721 94.2778 57.781 94.3629C59.6246 94.637 61.5627 95.0058 62.2906 100.253C63.1226 106.606 57.781 111.116 56.7694 111.947C48.9509 108.724 37.814 110.841 32.8412 117.743C31.1867 111.664 26.4029 112.865 18.3008 112.59C15.3795 109.111 13.1861 104.469 13.8857 99.8841ZM14.8973 90.8649C16.7881 89.3049 22.073 88.7472 23.822 90.4111C25.3913 92.0655 26.4029 96.0835 24.0111 97.7663C21.0614 95.4974 17.2892 92.7368 14.8973 90.8932V90.8649ZM46.2754 129.059C51.2483 132.746 60.7307 129.891 59.0762 124.276C57.6392 119.69 54.5572 121.137 56.1266 122.716C59.6246 126.667 54.283 129.986 50.1421 128.606C48.7618 126.715 49.0076 123.623 49.5938 122.073C49.764 121.6 49.4992 120.967 49.0454 120.967C47.3815 120.872 46.8332 125.287 47.5706 127.679C44.0726 125.93 42.0494 122.158 43.7039 118.386C43.8835 117.922 43.7039 117.1 43.2406 117.1C42.0494 117.1 40.8488 119.936 41.3498 122.347C29.9388 127.405 31.9619 114.982 45.5853 112.685C56.5331 110.841 68.6816 119.671 69.3245 130.903C69.9106 140.281 54.1601 146.086 46.2754 129.088V129.059ZM53.7347 140.565C48.707 141.041 43.6547 141.196 38.6081 141.028C37.6881 135.703 36.489 130.43 35.0156 125.23C36.2068 125.684 38.5136 125.958 41.8225 124.285C44.8951 131.574 48.6767 137.833 53.7347 140.593V140.565ZM2.55975 135.138C1.17945 130.26 2.10595 126.857 3.76041 124.833C3.29716 130.44 5.04617 138.731 9.18706 142.314C5.78359 141.699 3.76041 139.402 2.55975 135.167V135.138ZM8.63872 121.42C9.27544 121.425 9.89402 121.633 10.4042 122.014C10.9144 122.395 11.2896 122.929 11.4749 123.538C12.7607 126.374 18.3764 122.593 21.5908 127.225C18.3386 128.369 15.5497 127.67 16.4383 129.116C17.1758 130.317 20.6738 129.305 22.6118 128.842C23.2165 130.181 23.5874 131.613 23.7085 133.077C22.2408 133.658 20.6896 133.999 19.1138 134.089C17.7714 134.089 18.0455 136.925 23.8976 135.101C23.7085 140.442 17.3648 143.108 12.1178 142.097C7.71222 141.331 1.45362 122.007 8.63872 121.449V121.42ZM12.5054 144.337C29.9009 147.013 30.3547 120.872 13.3279 122.895C13.0946 122.252 12.731 121.664 12.26 121.168C11.7889 120.672 11.2206 120.279 10.5905 120.013C9.96043 119.747 9.28217 119.613 8.5982 119.621C7.91422 119.629 7.23926 119.778 6.61555 120.059C5.78359 116.656 6.34138 115.455 10.1136 115.001C15.4028 114.465 20.7258 114.342 26.0342 114.632C29.7119 114.907 29.9009 114.907 31.5554 119.879C33.2099 124.852 38.4569 144.725 36.4337 146.105C35.0534 147.05 33.484 147.306 23.4533 146.937C13.6777 146.568 13.2712 146.757 12.5054 144.366V144.337ZM29.1635 176.736C21.0614 176.736 9.92447 176.925 9.00743 176.736C8.56264 176.667 8.14353 176.483 7.79129 176.203C7.43906 175.923 7.16582 175.555 6.99844 175.138C6.83145 174.72 6.77623 174.265 6.83823 173.82C6.90024 173.374 7.07731 172.952 7.35202 172.595C8.17452 171.404 11.2093 170.014 12.41 169.003C18.5163 170.217 24.5001 171.983 30.2876 174.278C30.2876 177.133 33.1238 176.765 29.1626 176.765V176.736H29.1635ZM30.6384 172.227C25.0341 170.018 19.2399 168.325 13.3279 167.169C13.8857 162.29 15.1715 151.702 15.5402 148.393C18.0266 148.667 26.5826 148.941 29.8064 148.941C36.8875 148.762 39.0998 148.667 38.731 142.872C44.5075 143.063 50.2915 142.817 56.032 142.134C60.6361 144.706 66.526 145.358 71.1585 142.777C71.2531 153.725 71.7069 159.615 71.7069 171.763C65.5901 168.53 51.2483 168.729 38.3907 166.157C38.3056 163.576 37.8424 154.094 37.6533 152.071C37.4737 149.868 35.6774 151.428 35.8192 154.094C35.961 156.76 36.4148 164.682 36.4621 166.526C36.4715 168.02 31.3663 170.232 30.6384 172.255V172.227ZM71.2247 176.093C68.3885 177.842 37.3508 176.642 34.8643 176.736C32.8412 176.831 31.8296 174.25 32.8412 172.87C34.1269 171.121 37.0766 169.372 38.0882 167.991C48.3931 170.572 63.4913 169.561 71.9621 173.881C71.7731 174.921 71.6785 175.753 71.2247 176.122V176.093ZM68.4641 141.945C65.6251 142.758 62.6064 142.696 59.8042 141.766C78.4004 140.66 71.1491 117.837 58.7075 112.865C58.9741 112.64 59.2209 112.394 59.4449 112.127C61.6501 111.892 63.8147 111.367 65.8832 110.567C74.0704 117.034 81.2555 136.916 68.4641 141.974V141.945ZM109.05 174.713C105.921 177.01 79.3269 174.808 75.0914 175.176C73.6166 175.299 73.7111 174.165 73.7962 173.059C82.1725 170.572 95.6068 169.003 105.458 169.372C107.576 171.433 110.062 172.813 109.05 174.741V174.713ZM118.618 174.893C118.164 175.451 115.857 175.451 110.894 175.356C112.085 172.321 109.693 170.629 106.838 167.991V167.348C110.008 168.807 113.477 169.5 116.964 169.372C117.266 171.243 119.913 173.456 118.618 174.921V174.893ZM117.058 167.443C113.523 167.565 110.016 166.784 106.867 165.174C106.772 163.141 107.235 150.908 106.403 145.472C105.855 142.437 104.201 141.151 104.569 144.186C105.675 154.037 104.938 160.749 104.938 167.377C94.4201 167.199 83.9261 168.439 73.7395 171.064C73.8246 158.263 73.1817 153.101 73.1817 141.425C74.1505 140.594 74.9609 139.595 75.5736 138.476C76.282 138.953 76.9579 139.478 77.5968 140.045C78.06 154.122 99.5964 146.029 102.357 137.464C108.89 137.095 119.289 134.524 123.251 130.931C133.527 152.468 127.552 153.025 117.058 167.471V167.443ZM76.8404 126.119C77.6853 123.467 79.0697 121.019 80.9066 118.928C82.7435 116.838 84.9932 115.15 87.5141 113.971C96.6089 118.754 96.1457 121.052 99.1993 121.052C102.886 120.598 104.872 123.888 102.886 126.724C102.329 125.892 101.412 124.427 100.126 124.512C99.568 124.512 99.8328 125.259 100.126 125.713C102.527 129.494 103.161 135.28 97.819 140.716C93.2149 139.705 93.6782 134.363 92.4775 134.363C91.9292 134.363 91.6455 135.006 91.7495 135.469C92.6949 139.724 94.1414 141.142 96.2591 142.087C94.2497 143.686 91.8752 144.761 89.3482 145.216C85.6706 143.836 87.2399 137.577 85.3964 137.577C83.9216 137.577 84.2903 143.742 86.6821 145.67C81.0664 146.133 77.7764 143.222 80.1494 136.84C80.3195 136.377 80.6977 135.554 80.2439 135.46C78.9487 135.271 78.1262 137.02 77.9371 137.852C77.2942 137.388 76.7459 136.906 76.3772 136.651C77.3494 133.234 77.508 129.637 76.8404 126.148V126.119ZM124.111 116.363C128.195 109.253 118.542 95.9323 116.472 97.7663C115.649 98.4187 117.673 99.8841 119.053 101.728C127.004 111.777 120.944 116.145 121.171 120.778C121.35 123.907 124.007 126.299 122.551 128.88C120.982 131.716 111.14 134.949 103.406 135.602C104.17 133.478 104.299 131.178 103.775 128.984C108.19 124.105 104.881 119.312 99.3601 119.312C97.3085 119.312 98.0365 117.913 85.8313 110.851C84.9993 110.388 86.1054 109.102 86.6538 107.816C87.2967 106.804 86.1905 106.152 85.0939 107.627C83.4299 109.934 82.6074 111.673 85.5476 112.969C81.4112 115.223 78.0999 118.737 76.0936 122.999C74.637 117.937 71.8373 113.363 67.9914 109.764C69.4497 108.982 70.6858 107.844 71.584 106.455C76.311 107.003 83.8176 106.455 85.8502 102.304C103.605 101.851 114.657 94.3912 116.406 88.5959C119.715 86.3836 122.201 85.1924 123.118 81.3257C128.46 86.8469 138.027 92.5571 144.38 92.9164C139.672 108.468 138.717 110.482 124.139 116.391L124.111 116.363ZM143.35 80.8341C143.624 79.5483 144.371 71.8622 142.149 71.4462C140.882 71.2098 143.095 74.8969 141.601 80.0967C137.734 78.9055 133.092 72.6469 134.038 68.506C135.654 61.6234 154.213 71.7676 147.935 81.3919C146.396 81.6336 144.821 81.4505 143.378 80.8625L143.35 80.8341Z" fill="#1E1D19"/>
<path d="M34.0708 106.171C33.1254 108.015 37.5688 110.407 41.8893 109.121C45.9451 107.92 45.2928 103.326 44.007 102.673C42.8725 102.125 34.7798 104.611 34.0708 106.171Z" fill="#1E1D19"/>
<path d="M33.1253 102.22C36.179 102.22 35.8859 99.7711 34.2314 100.102C28.9844 101.662 32.0286 94.4862 33.286 92.6427C33.4362 92.4464 33.5037 92.1992 33.4743 91.9538C33.4449 91.7085 33.3209 91.4843 33.1286 91.329C32.9364 91.1737 32.6911 91.0996 32.445 91.1225C32.1989 91.1454 31.9715 91.2634 31.8112 91.4515C29.7502 92.9736 26.0348 102.22 33.1253 102.22Z" fill="#1E1D19"/>
<path d="M80.5179 86.2041C88.3364 89.1443 96.7128 77.9223 88.1568 73.5923C82.5411 70.7561 75.3654 77.0903 77.2941 82.706C77.5318 83.495 77.9454 84.2198 78.5038 84.8257C79.0623 85.4316 79.7509 85.9029 80.5179 86.2041ZM78.8634 79.3877C79.4118 77.0903 82.3615 75.0672 84.933 74.8781C84.2859 78.0725 83.8251 81.3017 83.5527 84.5496C80.3288 85.3721 78.3057 81.9686 78.8634 79.3877Z" fill="#1E1D19"/>
<path d="M102.14 91.1771C100.887 92.0838 99.3494 92.5069 97.8096 92.3684C96.609 92.2076 96.7035 94.1174 98.7551 94.2592C99.4996 94.3634 100.258 94.3013 100.976 94.0774C101.693 93.8534 102.352 93.4731 102.905 92.964C104.172 91.7255 103.085 90.2506 102.14 91.1771Z" fill="#1E1D19"/>
<path d="M6.70108 64.11C8.8188 64.2045 9.9911 64.2991 10.0195 62.9188C10.0667 60.1582 10.3882 59.6004 9.07405 59.4208C7.75994 59.2411 5.39642 59.1466 5.49096 60.8011C5.50987 61.9072 4.95208 64.0249 6.70108 64.11Z" fill="#1E1D19"/>
<path d="M96.0696 85.5615C96.8165 85.9302 98.2157 83.9165 100.797 84.7295C102.385 85.3629 103.245 81.5151 98.1211 82.8387C96.0696 83.3492 94.7838 85.1928 96.0696 85.5615Z" fill="#1E1D19"/>
<path d="M77.9375 74.6034C79.1382 74.6034 81.1613 71.7672 84.9335 71.6632C85.0634 71.6635 85.192 71.637 85.3113 71.5854C85.4305 71.5338 85.5378 71.4582 85.6265 71.3633C85.7153 71.2684 85.7835 71.1562 85.8269 71.0337C85.8703 70.9113 85.888 70.7812 85.8789 70.6516C85.6898 68.4393 79.5825 70.7083 77.6822 72.7693C76.8219 73.6769 76.7463 74.6034 77.9375 74.6034Z" fill="#1E1D19"/>
<path d="M99.8429 89.0599C102.055 90.8089 104.816 88.4076 105.09 86.8476C105.279 85.5619 104.447 84.8245 103.899 85.9022C103.65 86.3822 103.282 86.7901 102.83 87.0865C102.378 87.3829 101.857 87.5578 101.318 87.5945C101.131 87.5815 100.952 87.5135 100.804 87.3991C100.656 87.2847 100.545 87.129 100.486 86.9516C100.127 86.0062 98.8313 86.1197 98.6517 87.3203C98.6517 88.8141 95.2104 88.6439 93.6789 87.0367C93.3196 86.668 92.7335 86.4978 92.4782 86.8571C91.3248 88.3036 96.9783 92.4066 99.8429 89.0599Z" fill="#1E1D19"/>
</svg>
