<svg width="213" height="148" viewBox="0 0 213 148" fill="none" xmlns="http://www.w3.org/2000/svg">
<path d="M192.86 39.6466C192.165 39.7804 191.449 39.7722 190.757 39.6225C190.065 39.4728 189.411 39.1846 188.833 38.7754C180.838 32.8555 162.742 36.1997 157.488 40.5167C148.939 47.5424 149.13 56.534 152.156 52.9239C157.964 45.9988 172.072 49.3329 178.385 45.8502C181.976 57.4957 203.526 49.983 200.151 68.1615C202.764 72.8416 203.743 75.3447 198.955 82.7445C219.198 80.5687 210.055 34.9666 192.86 39.6466ZM38.4232 72.0787C30.8839 72.0704 23.4306 70.4763 16.5476 67.3997C12.3031 75.777 12.8471 97.8727 14.479 101.579C19.4863 103.212 29.0631 102.45 29.0631 102.45L38.7494 105.061C38.7494 105.061 37.8659 102.122 38.4232 95.9202C39.3805 85.2521 46.042 76.7643 46.042 76.7643C50.1748 78.2879 53.8775 76.541 54.7487 71.2142C54.2037 70.1262 53.6597 68.7111 53.6597 68.7111C53.6597 68.7111 48.4368 72.1334 38.4232 72.0787ZM78.4741 88.1841C77.1684 91.0145 70.8564 99.6118 70.6386 99.8296C74.7971 99.7074 78.9259 99.0864 82.9364 97.9799C82.7186 96.0207 82.0662 92.5381 82.0662 92.5381C82.0662 92.5381 80.7594 91.1251 78.4741 88.1841ZM116.131 126.821C111.45 126.876 104.923 124.916 101.983 124.971C101.793 124.996 101.614 125.075 101.467 125.199C101.32 125.322 101.212 125.485 101.155 125.668C101.097 125.851 101.094 126.047 101.144 126.232C101.194 126.417 101.297 126.584 101.439 126.713C101.983 127.257 111.126 129.051 115.696 128.888C117.982 128.809 117.763 126.804 116.131 126.823V126.821ZM113.737 132.371C110.701 132.448 107.677 131.971 104.812 130.964C103.832 130.636 103.071 130.74 103.071 131.726C103.071 132.923 105.359 133.775 108.186 134.229C110.801 134.647 113.846 134.773 114.716 134.229C115.37 133.68 115.261 132.281 113.737 132.373V132.371ZM112.539 91.1229C116.566 91.0693 117.112 84.6445 112.539 84.5931C108.296 84.5451 108.511 91.1798 112.539 91.1251V91.1229ZM126.906 70.124C123.097 70.124 123.314 75.9467 126.906 75.892C130.497 75.8373 130.933 70.1207 126.906 70.1207V70.124ZM104.378 75.4508C107.642 75.4508 108.077 70.2849 104.378 70.2268C100.893 70.1743 101.112 75.4508 104.378 75.4508ZM95.8886 60.8666C95.6896 61.1376 95.5485 61.4466 95.474 61.7745C95.3995 62.1024 95.3933 62.442 95.4557 62.7724C95.5182 63.1028 95.6479 63.4168 95.8369 63.6948C96.0259 63.9729 96.27 64.2091 96.5542 64.3888C96.8384 64.5684 97.1566 64.6877 97.4888 64.7391C97.8211 64.7906 98.1604 64.7731 98.4856 64.6878C98.8108 64.6024 99.115 64.4511 99.3792 64.2432C99.6434 64.0353 99.862 63.7752 100.021 63.4792C101.633 60.6388 97.621 58.034 95.8875 60.8689L95.8886 60.8666ZM120.813 59.7787C117.33 59.7787 117.548 65.0586 120.813 65.0027C123.969 64.9514 124.402 59.781 120.811 59.781L120.813 59.7787ZM80.9772 37.2507C77.4945 37.2507 77.7123 42.4748 80.9772 42.4748C84.2421 42.4748 84.6755 37.2507 80.9772 37.2507ZM137.789 42.802C134.307 42.802 134.524 48.0819 137.789 48.0261C140.947 47.9736 141.381 42.8032 137.789 42.8032V42.802ZM138.443 61.3034C134.96 61.3034 135.178 66.5821 138.443 66.5274C141.707 66.4727 142.143 61.3045 138.443 61.3045V61.3034ZM131.586 52.3789C127.885 52.3789 128.212 57.8207 131.586 57.8207C134.959 57.8207 135.504 52.38 131.588 52.38L131.586 52.3789ZM116.675 53.6846C119.94 53.6846 120.376 48.4606 116.675 48.4606C113.193 48.4617 113.41 53.6857 116.675 53.6857V53.6846ZM126.471 46.0669C129.626 46.0669 130.17 41.0116 126.471 40.9512C123.099 40.8976 123.314 46.068 126.471 46.068V46.0669ZM114.387 39.3205C117.76 39.2669 118.305 33.8786 114.387 33.8786C110.689 33.8786 110.906 39.373 114.387 39.3205ZM105.898 49.0068C109.379 48.952 109.815 43.4555 105.898 43.4555C102.091 43.4555 102.417 49.0604 105.898 49.0068ZM93.3878 38.0136C90.1229 38.0136 90.3407 42.8032 93.3878 42.8032C96.3231 42.8032 96.7588 38.0136 93.3878 38.0136ZM102.422 26.1504C98.8296 26.1504 99.0474 31.4839 102.422 31.4839C105.796 31.4839 106.233 26.1504 102.418 26.1504H102.422ZM86.2012 49.6591C82.828 49.6591 83.0458 54.8284 86.2012 54.7747C89.3567 54.7211 89.7934 49.6591 86.2012 49.6591Z" fill="#F6BD60"/>
<path d="M98.6074 39.8642C105.464 37.6872 109.491 38.7751 110.035 37.2516C110.147 36.9254 110.035 36.0553 108.729 35.9459C107.424 35.7225 97.4101 36.7076 97.3017 38.7751C97.2855 38.9419 97.3102 39.1102 97.3738 39.2652C97.4375 39.4203 97.538 39.5575 97.6667 39.6648C97.7954 39.7722 97.9484 39.8464 98.1123 39.8812C98.2763 39.9159 98.4463 39.9101 98.6074 39.8642Z" fill="#1E1D19"/>
<path d="M97.847 43.7821C98.6122 44.4467 99.5609 44.8637 100.568 44.9783C101.765 45.3056 102.201 43.5643 101.33 43.1286C100.359 42.4938 99.2943 42.0176 98.1743 41.7179C97.303 41.6062 96.5413 43.0192 97.847 43.7821Z" fill="#1E1D19"/>
<path d="M110.905 33.9867C111.324 33.1087 109.816 31.7013 106.987 30.9396C105.899 30.6134 105.123 31.9359 106.225 32.7893C107.516 33.7878 110.339 35.174 110.905 33.9867Z" fill="#1E1D19"/>
<path d="M91.0974 50.9642C91.6414 51.6176 94.4717 50.8525 100.893 49.005C101.061 48.9564 101.211 48.8601 101.324 48.7277C101.438 48.5954 101.511 48.4328 101.534 48.2598C101.557 48.0868 101.529 47.9108 101.454 47.7534C101.379 47.5959 101.259 47.4638 101.11 47.3731C100.24 46.7197 92.4043 49.1145 91.533 49.4417C91.3718 49.4725 91.2223 49.5475 91.1011 49.6582C90.9799 49.7689 90.8919 49.9111 90.8467 50.0689C90.8016 50.2267 90.8011 50.394 90.8453 50.552C90.8896 50.7101 90.9769 50.8528 91.0974 50.9642Z" fill="#1E1D19"/>
<path d="M88.5952 48.1355C89.4664 48.3589 90.0472 48.3231 91.5339 44.8706C92.0533 43.662 90.5543 42.8031 89.5747 43.891C88.269 45.4145 87.0716 47.8093 88.5952 48.1355Z" fill="#1E1D19"/>
<path d="M89.3556 56.5156C90.5629 57.8538 91.911 59.0577 93.3766 60.1066C94.3562 60.7601 95.6943 59.862 94.4657 58.4748C93.3228 57.1494 92.046 55.9456 90.6557 54.8826C89.78 54.2437 88.2676 55.1004 89.3556 56.5156Z" fill="#1E1D19"/>
<path d="M98.7161 72.95C100.131 73.2761 100.675 71.5348 98.9339 70.8825C96.9695 70.0609 95.0764 69.078 93.2743 67.9438C89.0299 65.0051 91.533 60.1072 89.7916 59.8905C89.2477 59.7788 88.7037 60.0022 88.5942 60.9784C88.3784 62.4238 88.5128 63.8999 88.9863 65.2825C89.4598 66.6651 90.2585 67.9138 91.3152 68.9234C93.4551 70.7948 95.9824 72.1699 98.7161 72.95Z" fill="#1E1D19"/>
<path d="M178.492 73.2759C177.295 71.5346 173.268 72.4058 170.656 71.7524C166.956 70.7728 168.152 77.1942 171.962 77.6298C176.859 78.2821 179.145 74.365 178.492 73.2759Z" fill="#1E1D19"/>
<path d="M90.7708 34.204C90.2268 34.5301 90.2268 35.293 90.6591 36.0548C91.2042 37.0332 91.6387 37.1427 92.0743 36.9249C92.8361 36.7071 93.0539 36.0548 92.6182 34.7479C92.2943 33.7684 91.5326 33.66 90.7708 34.204Z" fill="#1E1D19"/>
<path d="M110.795 55.4267C112.323 55.6121 112.537 53.577 111.019 53.2508C108.601 52.9427 106.165 52.7972 103.727 52.8152C94.5849 53.0386 93.6053 54.7744 94.5849 55.7539C95.5243 56.5403 99.8045 54.093 110.795 55.4267Z" fill="#1E1D19"/>
<path d="M185.676 71.5339C196.016 73.1669 199.281 57.9305 188.397 56.6236C177.188 55.3179 175.446 69.902 185.676 71.5339ZM189.377 59.6718C194.601 61.0859 192.642 70.1198 186.982 68.9225C188.06 65.9182 188.862 62.8218 189.377 59.6718Z" fill="#1E1D19"/>
<path d="M48.542 51.7263C43.7536 52.7059 33.3056 48.7887 33.959 53.9033C34.2851 56.9515 39.2913 59.5629 43.2096 60.4342C47.2374 61.1948 55.943 50.2073 48.542 51.7263Z" fill="#1E1D19"/>
<path d="M38.2096 45.3054C44.1909 35.6191 32.111 28.761 22.9686 35.7275C19.1587 38.6662 19.4346 45.8147 23.2948 48.4608C27.375 51.261 36.246 48.4619 38.2096 45.3054ZM30.0468 46.5028C19.4904 49.2237 21.5579 35.1835 30.5908 35.6191C30.1887 39.2326 30.0055 42.8672 30.0424 46.5028H30.0468Z" fill="#1E1D19"/>
<path d="M107.316 18.749C113.025 18.3906 118.751 19.1299 124.182 20.9271C129.626 22.7218 134.606 25.6968 138.766 29.6394C138.871 29.7364 138.999 29.8063 139.137 29.843C139.275 29.8796 139.421 29.8819 139.56 29.8497C139.7 29.8174 139.829 29.7516 139.937 29.6579C140.046 29.5642 140.129 29.4455 140.181 29.3121C140.617 27.6802 131.581 20.8232 124.618 18.7546C119.433 17.2124 114.019 16.5864 108.619 16.9049C106.009 17.0088 106.336 18.8585 107.316 18.749Z" fill="#1E1D19"/>
<path d="M45.931 39.2107C42.5578 39.7547 39.6191 44.2169 41.4688 45.7416C42.0127 46.1761 42.9923 45.6299 43.2101 44.9787C44.1897 42.585 45.281 42.0634 46.3667 41.9316C47.1307 41.8389 47.6724 42.2578 48.3258 43.2373C49.3054 44.6525 51.2645 43.7824 50.6111 41.9316C50.3358 40.9599 49.6939 40.1331 48.8208 39.6255C47.9478 39.1179 46.9117 38.9692 45.931 39.2107Z" fill="#1E1D19"/>
<path d="M172.072 68.5955C174.575 68.5955 171.31 64.2394 175.12 64.895C175.293 64.9384 175.473 64.9437 175.648 64.9106C175.823 64.8775 175.988 64.8068 176.133 64.7033C176.278 64.5998 176.399 64.4661 176.487 64.3113C176.575 64.1566 176.628 63.9846 176.643 63.8071C176.86 61.848 172.833 61.5218 171.202 63.481C169.676 65.3307 170.113 68.5955 172.072 68.5955Z" fill="#1E1D19"/>
<path d="M146.278 38.2311C147.367 38.5572 147.434 37.2012 144.972 33.9866C144.124 32.8797 143.013 32.0275 142.469 32.5714C141.925 33.007 143.123 34.2044 144.102 35.5101C145.408 37.4738 145.843 38.2311 146.278 38.2311Z" fill="#1E1D19"/>
<path d="M163.038 51.8358C152.154 50.53 150.416 65.1131 160.426 66.7461C170.657 68.3791 173.596 53.1415 163.038 51.8358ZM166.956 59.8902C166.495 63.2757 164.452 64.4608 161.079 63.9168C162.081 60.8525 162.88 57.7258 163.473 54.5567C166.195 55.2101 167.355 56.9604 166.956 59.8902Z" fill="#1E1D19"/>
<path d="M82.2836 44.9783C82.4843 45.96 82.8922 46.8877 83.4799 47.6992C83.6365 47.8076 83.8182 47.8741 84.0078 47.8924C84.1974 47.9107 84.3885 47.8803 84.563 47.804C84.7375 47.7276 84.8896 47.6079 85.0048 47.4563C85.12 47.3046 85.1945 47.126 85.2212 46.9375C85.0537 45.812 84.6457 44.7357 84.025 43.782C83.4799 43.0192 81.9575 43.782 82.2836 44.9783Z" fill="#1E1D19"/>
<path d="M119.504 37.3618C118.524 37.2501 117.653 38.2319 118.305 39.1031C119.31 40.1842 120.589 40.9738 122.006 41.3884C123.095 41.6062 123.965 40.191 123.095 39.5376C122.055 38.5798 120.834 37.8399 119.504 37.3618Z" fill="#1E1D19"/>
<path d="M117.11 56.0803C117.243 56.9781 117.578 57.8339 118.09 58.5834C118.215 58.7513 118.392 58.8739 118.593 58.9329C118.794 58.9919 119.009 58.984 119.205 58.9105C119.401 58.837 119.568 58.7017 119.681 58.5252C119.794 58.3486 119.847 58.1401 119.831 57.9311C119.742 56.9715 119.445 56.0428 118.96 55.2102C118.416 54.2284 116.892 54.9924 117.11 56.0803Z" fill="#1E1D19"/>
<path d="M123.422 46.3942C123.408 46.2412 123.361 46.0929 123.286 45.9589C123.211 45.8248 123.108 45.708 122.985 45.6158C122.862 45.5236 122.721 45.4581 122.572 45.4234C122.422 45.3888 122.267 45.3858 122.116 45.4146C121.18 45.7887 120.409 46.4831 119.939 47.3738C119.83 47.5538 119.778 47.7628 119.791 47.9729C119.804 48.183 119.88 48.3842 120.01 48.5497C120.14 48.7152 120.318 48.8371 120.519 48.8992C120.72 48.9613 120.935 48.9606 121.136 48.8973C121.898 48.5712 123.531 47.3738 123.422 46.3942Z" fill="#1E1D19"/>
<path d="M123.098 97.1105C121.193 99.5015 119.853 102.292 119.178 105.273C117.763 111.041 118.09 117.028 119.178 117.028C120.702 117.028 119.401 113.218 121.245 106.144C121.944 103.282 123.122 100.559 124.729 98.09C125.517 96.5799 124.075 96.1309 123.098 97.1105Z" fill="#1E1D19"/>
<path d="M120.917 81.5475C122.004 80.4415 122.987 79.2391 123.856 77.9554C124.379 76.9647 123.53 75.6701 122.223 76.9758C120.916 78.2816 117.79 81.571 116.673 82.8533C115.611 84.0741 116.673 85.0302 117.87 84.3768C118.986 83.547 120.007 82.5983 120.917 81.5475Z" fill="#1E1D19"/>
<path d="M128.645 40.2984C129.625 40.41 131.243 38.4665 130.17 37.5774C128.624 36.2974 126.469 40.0817 128.645 40.2984Z" fill="#1E1D19"/>
<path d="M126.903 53.1412C125.272 52.4767 123.546 52.0726 121.789 51.9438C121.56 51.9465 121.337 52.0235 121.156 52.1632C120.974 52.303 120.842 52.498 120.781 52.7188C120.719 52.9397 120.731 53.1746 120.815 53.3881C120.898 53.6016 121.049 53.7823 121.244 53.903C122.867 54.5939 124.598 54.999 126.359 55.1004C127.775 55.2098 127.557 53.4685 126.903 53.1412Z" fill="#1E1D19"/>
<path d="M133.217 43.7826C131.694 43.4553 130.17 43.347 129.952 44.2171C129.625 45.5239 131.04 45.6323 132.999 45.8501C134.523 46.0679 134.741 44.1087 133.217 43.7826Z" fill="#1E1D19"/>
<path d="M127.343 47.3736C126.799 48.1353 127.887 50.3123 128.431 50.8563C128.866 51.4002 129.302 51.618 129.955 51.1824C130.717 50.6384 129.41 48.3532 129.084 47.5914C128.646 46.7202 127.884 46.6118 127.343 47.3736Z" fill="#1E1D19"/>
<path d="M134.523 67.6155C132.564 69.2485 130.932 69.7925 131.367 70.9898C131.802 72.2956 134.85 70.5542 136.047 69.0307C137.026 67.8333 136.047 66.3098 134.523 67.6155Z" fill="#1E1D19"/>
<path d="M133.761 59.4546C134.543 60.7458 134.85 61.1948 135.72 61.0865C136.7 60.9748 136.264 59.019 135.284 58.1477C134.523 57.4954 133.021 58.2427 133.761 59.4546Z" fill="#1E1D19"/>
<path d="M128.973 32.245C123.423 28.7624 115.477 27.2388 109.165 27.3472C106.88 27.4589 107.315 29.198 108.511 29.198C113.288 29.4322 118.011 30.3106 122.552 31.8094C128.537 34.0959 131.395 36.3309 134.523 40.5217C135.266 41.5158 136.265 41.1751 136.482 40.6334C137.244 38.8843 132.891 34.7482 128.973 32.245Z" fill="#1E1D19"/>
<path d="M138.768 49.3325C137.788 49.8764 138.656 51.0738 138.768 55.4266C138.768 56.7335 138.442 59.5594 139.53 59.5594C140.727 59.5594 140.988 56.8429 140.835 54.1175C140.647 50.751 139.964 48.6791 138.768 49.3325Z" fill="#1E1D19"/>
<path d="M122.443 67.1848C123.095 68.3822 123.53 69.5784 124.618 69.5784C125.38 69.6901 125.49 68.1644 124.183 66.3136C123.209 65.0045 121.897 66.2019 122.443 67.1848Z" fill="#1E1D19"/>
<path d="M212.231 57.6033C212.231 50.5296 210.49 33.8769 193.294 33.8769C183.825 28.1089 164.343 28.2184 155.094 35.4015C145.734 18.5354 128.756 8.84579 109.166 9.17194C107.75 -7.15243 72.3796 0.247427 73.9031 16.2468C73.185 15.7985 72.4183 15.4332 71.6178 15.1577C69.767 7.53894 61.4959 3.62177 53.8771 6.12487C47.3474 -0.296532 30.8041 0.683042 26.2335 9.38975C17.09 7.32226 8.27388 12.9808 8.05607 22.6671C-1.62909 25.8236 -1.4124 34.5303 2.7237 42.2574C1.05731 43.933 0.086275 46.1768 0.00547817 48.5386C-0.0753186 50.9003 0.740097 53.2052 2.28809 54.9908C-0.541175 61.1933 3.48547 68.4859 10.5603 69.6833C8.27499 81.0014 6.53924 96.783 10.4486 110.496C14.3669 124.1 14.0407 133.678 13.279 140.43C12.9517 143.695 14.5847 147.069 17.959 147.287C33.9573 148.267 51.0445 147.614 71.3967 147.94C79.6622 147.94 86.307 148.267 88.3745 147.396C93.4901 145.328 93.5985 137.6 85.3274 134.879C88.5923 120.513 87.0687 114.419 84.3478 96.8958C94.3603 105.168 88.704 119.317 94.3602 120.731C93.3807 125.738 93.4901 137.82 99.8021 138.362C100.456 139.995 101.871 142.83 103.612 143.26C108.292 144.457 116.999 145.219 117.977 138.689C125.378 138.145 125.596 127.152 124.29 121.488C131.691 118.224 124.514 104.398 135.718 97.3269C137.677 103.204 140.289 107.013 144.969 108.864C143.553 117.135 144.642 129.107 144.969 136.182C143.227 137.596 140.612 139.773 139.636 141.623C138.112 144.562 140.398 147.717 143.881 147.717C158.029 147.935 186.437 147.829 199.821 147.606C209.511 147.443 203.562 134.127 204.178 128.342C204.753 122.913 205.702 119.527 205.049 111.799C214.735 105.16 211.796 86.8755 206.898 80.4552C210.49 76.432 212.231 68.9226 212.231 57.6033ZM175.009 32.2483C189.564 31.7457 190.312 36.9195 193.728 36.4928C213.21 36.1666 212.339 68.4904 205.483 78.3945C205.018 79.0734 204.424 79.6537 203.734 80.1018C203.044 80.55 202.272 80.8573 201.462 81.0059C204.619 76.4353 203.856 72.4053 201.897 68.4959C201.571 67.9378 201.456 67.282 201.571 66.6463C203.312 49.2328 182.664 55.8117 179.913 45.7502C179.867 45.4836 179.75 45.2341 179.575 45.0278C179.4 44.8214 179.173 44.6657 178.918 44.5768C178.662 44.4878 178.388 44.469 178.123 44.5221C177.857 44.5752 177.611 44.6984 177.41 44.8789C176.538 45.6407 172.838 45.9669 169.573 46.1847C157.275 46.9464 148.567 47.4915 148.351 64.0337C146.065 61.8567 144.541 51.6265 152.268 41.6141C156.725 35.6193 164.67 32.6806 175.009 32.245V32.2483ZM175.233 115.398C174.548 114.109 172.186 116.052 169.9 116.596C169.355 115.398 168.593 113.875 168.049 112.677C170.553 111.262 173.273 110.828 172.294 108.977C171.642 107.779 169.355 109.521 167.288 110.065C166.526 105.82 168.593 104.406 170.662 103.317C171.026 103.155 171.34 102.898 171.57 102.572C171.8 102.247 171.937 101.865 171.968 101.468C172.021 98.7444 173.051 98.4048 173.817 98.2026C177.392 97.2588 183.504 114.745 183.069 119.97C176.322 122.581 173.383 121.71 171.097 118.881C174.031 117.462 176.164 117.16 175.227 115.395L175.233 115.398ZM165.002 111.48C161.221 111.33 157.482 110.634 153.901 109.412C157.636 108.443 161.307 107.244 164.894 105.821C164.385 107.677 164.421 109.64 164.997 111.477L165.002 111.48ZM158.358 84.2741C158.793 81.0081 160.535 80.3558 162.49 83.5124C163.906 85.906 169.238 78.8323 171.959 81.7699C172.721 82.6411 172.071 84.0563 169.782 86.2378C168.149 87.7613 170.218 89.2848 172.067 87.7613C172.523 88.4217 172.855 89.1593 173.047 89.9382C172.285 91.0262 170.217 92.0057 170.326 93.0937C170.434 94.1816 172.067 94.3994 173.592 92.8703C173.642 93.747 173.569 94.6265 173.374 95.4828C171.088 95.9173 169.674 98.6394 169.782 100.925C168.79 101.381 167.772 101.781 166.735 102.122C160.425 97.5459 157.704 88.9486 158.358 84.2741ZM163.69 80.8998C162.494 79.049 159.446 77.7444 157.378 79.8119C154.549 79.2668 152.154 76.4375 151.283 72.7371C149.651 65.7717 151.066 54.4524 154.657 51.9493C157.27 50.0996 165.541 46.9431 169.785 51.5148C171.735 53.6035 173.877 50.724 170.983 48.7939C173.19 48.7199 175.381 48.3912 177.512 47.8143C178.043 49.4339 179.12 50.8186 180.559 51.7315C180.356 51.7478 180.158 51.8081 179.979 51.9082C179.801 52.0084 179.646 52.146 179.526 52.3116C179.406 52.4772 179.323 52.6668 179.283 52.8675C179.243 53.0682 179.247 53.2751 179.295 53.474C179.343 53.6729 179.433 53.8592 179.56 54.0198C179.687 54.1805 179.846 54.3119 180.029 54.4049C180.211 54.4978 180.411 54.5502 180.616 54.5584C180.82 54.5667 181.024 54.5305 181.213 54.4524C183.381 53.7294 185.737 53.8086 187.852 54.6758C197.647 57.724 199.28 59.6831 198.844 66.4307C198.832 67.0982 198.942 67.7623 199.17 68.3898C205.09 82.3373 190.793 89.3943 174.247 84.6059C176.465 79.6064 170.579 75.8969 163.69 80.8942V80.8998ZM77.3847 12.3285C78.7988 7.97232 84.3501 4.49188 90.4453 3.0778C99.0459 1.227 108.403 3.3012 105.682 10.9133C104.632 9.55897 103.241 8.50752 101.652 7.86621C100.128 7.21279 99.0392 8.73744 100.454 9.7159C101.717 10.6517 102.851 11.7494 103.828 12.9808C102.599 14.0964 101.205 15.0144 99.6949 15.7017C95.5621 11.0227 94.5792 11.2394 93.7079 11.3455C92.8367 11.4517 92.7295 12.6513 93.5962 13.3047C94.9273 14.1959 96.1037 15.2987 97.0789 16.5696C90.1136 18.4204 85.7608 15.6983 83.4743 14.6104C82.1686 13.957 81.2985 15.2638 82.3864 16.5696C83.2826 17.4995 84.4091 18.1754 85.6513 18.5287C85.1074 21.9031 80.9724 22.2292 78.7943 20.5962C76.2968 18.7488 76.4085 15.485 77.3847 12.3285ZM5.66242 64.1331C1.74413 59.0185 5.66242 56.0798 4.5745 54.2301C-0.541175 45.5178 6.42419 43.6726 5.55408 41.7135C2.28809 34.5303 0.328937 28.2184 9.68683 25.0618C12.6256 24.0822 9.79853 18.6404 14.8025 14.1782C20.1349 9.49809 26.6657 13.6342 28.2976 11.4572C30.4746 8.51852 33.3038 5.68926 38.0923 4.81914C44.1875 3.29561 48.7592 6.01653 52.7859 8.19237C53.545 8.62575 54.4442 8.74291 55.289 8.51852C58.3135 7.66722 61.5501 8.01821 64.3218 9.4981C68.678 11.7845 68.678 16.8991 70.0898 17.4442C72.5367 18.1555 74.6081 19.7959 75.8612 22.0148C74.9805 22.6064 74.144 23.2612 73.358 23.9739C73.0712 22.6569 72.4185 21.4475 71.4751 20.4848C70.5316 19.5222 69.3356 18.8453 68.0246 18.5321C67.8133 18.4812 67.6202 18.3729 67.4667 18.2191C67.3131 18.0654 67.205 17.8722 67.1544 17.6608C65.8487 12.8724 62.5827 11.3489 55.0734 13.1986C54.854 13.2704 54.6168 13.2666 54.3998 13.1878C54.1828 13.1091 53.9984 12.9599 53.876 12.7641C47.7819 5.68926 34.7213 8.51963 31.6742 15.0494C31.5503 15.3311 31.3241 15.5552 31.0412 15.6763C30.7583 15.7974 30.44 15.8065 30.1507 15.7017C21.8785 12.4368 12.7417 17.6608 13.6074 25.6058C13.635 25.9231 13.5362 26.2384 13.3325 26.4832C13.1287 26.728 12.8365 26.8823 12.5194 26.9126C6.53365 27.5649 3.48547 35.6249 10.0152 42.2574C10.1622 42.3899 10.2735 42.5573 10.3388 42.7441C10.4041 42.9309 10.4213 43.1311 10.3888 43.3263C10.3563 43.5215 10.2751 43.7054 10.1528 43.861C10.0306 44.0166 9.87106 44.1389 9.68907 44.2166C5.11846 46.1757 4.70966 50.3599 6.8598 54.1207C7.01648 54.3642 7.09978 54.6476 7.09978 54.9372C7.09978 55.2267 7.01648 55.5102 6.8598 55.7537C6.38344 56.8278 6.13279 57.9883 6.12338 59.1632C6.11398 60.3382 6.34602 61.5025 6.80513 62.5841C7.26424 63.6657 7.94063 64.6415 8.79236 65.4509C9.64409 66.2603 10.653 66.8862 11.7566 67.2896C9.41761 66.9855 7.26026 65.8681 5.66242 64.1331ZM53.9855 28.1089C45.9311 35.1837 52.243 46.2852 62.5861 41.8229C60.9656 47.9998 60.5957 54.4381 61.4982 60.7599C61.2009 61.1877 60.7847 61.5188 60.301 61.7122C59.8173 61.9056 59.2875 61.9527 58.7772 61.8478C55.0768 61.086 51.3763 63.6986 52.138 68.0514C47.1318 73.0587 9.69353 70.9901 10.8898 56.2976C10.9493 55.3541 11.3438 54.4629 12.0022 53.7844C12.6605 53.106 13.5395 52.6849 14.4808 52.5971C23.5148 51.5092 11.2171 36.3811 19.9227 30.1775C23.7326 30.9393 30.3718 30.5037 32.9833 24.7357C40.8199 27.5649 44.8465 25.388 46.914 22.3409C48.9349 23.7687 51.3929 24.4419 53.8593 24.243C56.3257 24.0442 58.6441 22.986 60.4102 21.253C61.5817 21.755 62.6335 22.4995 63.4964 23.4375C64.3593 24.3755 65.0137 25.4856 65.4165 26.6948C62.91 25.4974 57.0325 25.388 53.9855 28.1089ZM59.0956 28.8729C58.7694 32.4639 58.66 36.1644 58.5516 39.8649C50.1755 41.3828 52.3525 28.7612 59.0956 28.8729ZM70.0876 64.2437C71.7206 65.4411 74.0059 60.761 74.4437 59.4553C75.9888 59.8926 77.4315 60.6326 78.6882 61.6322C78.1328 62.7893 77.515 63.9154 76.8374 65.0054C76.7052 65.1892 76.6193 65.4022 76.587 65.6263C76.5546 65.8504 76.5769 66.079 76.6517 66.2926C76.7266 66.5063 76.8519 66.6988 77.0171 66.8537C77.1822 67.0086 77.3822 67.1213 77.6003 67.1824C78.7954 67.3109 79.8856 65.4411 80.6473 63.6997C88.7017 72.842 70.6349 102.011 61.2748 104.621C54.4177 106.58 48.3236 105.819 39.8347 103.968C37.7661 93.3025 44.1909 80.787 46.9084 78.1744C48.023 78.5207 49.2065 78.5829 50.3513 78.3554C51.4961 78.1279 52.5658 77.618 53.4633 76.8718C54.3609 76.1257 55.0577 75.1671 55.4904 74.0831C55.9232 72.9991 56.0782 71.8242 55.9413 70.6651C55.3973 68.9237 53.9832 67.1824 55.1795 65.5494C56.1591 64.0259 57.2526 64.0974 58.88 64.3531C63.9063 65.125 65.1931 57.3867 71.6134 58.8018C71.0716 60.7599 68.7863 63.263 70.0921 64.2426L70.0876 64.2437ZM81.0807 93.6287C81.1924 94.6083 81.5152 95.6973 81.733 97.003C78.9904 97.7329 76.186 98.2067 73.3558 98.4182C75.2466 96.0704 76.9221 93.5572 78.362 90.9089C79.2145 91.8688 80.1238 92.7767 81.0852 93.6276L81.0807 93.6287ZM13.2812 69.9033C14.8414 69.8578 16.3843 69.5637 17.8518 69.0321C28.4093 74.0394 44.1897 74.9095 53.1142 70.5556C53.9855 71.753 52.3402 75.0927 50.829 75.6713C48.413 76.5961 46.0405 74.8012 43.3196 74.5834C43.085 74.5231 42.8371 74.5408 42.6134 74.6337C42.3896 74.7266 42.2022 74.8898 42.0793 75.0985C41.9563 75.3073 41.9046 75.5504 41.9319 75.7911C41.9592 76.0318 42.064 76.2571 42.2306 76.4331C42.7307 76.944 43.3776 77.2864 44.0814 77.4126C40.4904 82.0927 35.8103 93.3025 37.116 103.207C31.1652 101.671 25.4528 99.3275 20.1382 96.2413C19.9924 96.1349 19.8253 96.0613 19.6484 96.0255C19.4715 95.9898 19.289 95.9927 19.1133 96.0341C18.9376 96.0754 18.773 96.1543 18.6306 96.2652C18.4882 96.3762 18.3716 96.5166 18.2885 96.6769C17.8529 98.4182 21.4451 99.8323 23.6209 101.145C17.8529 101.033 13.0645 100.383 11.2148 99.2939C10.1247 88.9486 11.5399 78.1733 13.2812 69.9022V69.9033ZM58.9917 144.999C55.509 145.217 39.4013 145.434 27.2119 145.217C16.7639 144.999 16.0021 144.129 16.1105 142.387C28.5177 140.102 58.6667 129.98 62.0388 142.276C62.2566 143.361 61.277 144.889 58.9917 144.998V144.999ZM89.2535 142.168C89.4769 144.454 86.9671 145.215 82.9404 145.325C78.152 145.437 71.295 145.437 63.6762 145.325C65.4187 143.039 64.7653 140.427 62.5883 138.358C70.6427 136.944 77.3903 135.855 82.2881 136.944C85.7652 137.597 88.9184 139.229 89.2535 142.168ZM84.674 120.075C84.7857 122.252 83.586 130.197 82.8243 134.006C78.5798 133.244 70.8527 133.894 59.7512 136.073C59.0978 135.638 58.4455 135.311 57.6837 134.876C58.3356 130.552 58.699 126.189 58.7717 121.816C58.6549 118.992 58.1041 116.202 57.1387 113.545C56.2685 111.259 54.5272 112.456 54.9617 114.089C56.2685 118.445 56.3769 127.91 55.1851 133.896C45.9344 132.264 22.5352 137.924 16.3316 139.556C17.2017 135.638 16.555 128.89 15.6782 121.598C14.5903 112.238 12.305 108.212 11.7599 102.444C16.44 103.967 25.3656 103.967 30.0446 103.749C44.5192 107.882 60.083 112.674 71.075 101.138C74.9001 101.052 78.7009 100.504 82.3943 99.505C83.261 107.34 84.5679 118.118 84.674 120.075ZM122.331 129.435C122.004 132.591 121.025 134.985 119.828 135.638C117.325 137.053 101.326 136.835 98.6058 135.311C96.3205 133.244 95.9944 123.34 96.8645 121.598C102.742 122.904 114.931 123.448 121.679 122.36C122.224 123.231 122.66 125.843 122.333 129.435H122.331ZM135.176 94.4988C122.219 103.423 128.211 112.674 123.531 118.987C121.028 120.509 100.41 120.818 95.4515 118.225C94.2418 117.593 94.1458 116.483 94.0363 113.436C93.1662 98.5254 86.7448 94.1715 79.7783 88.2952C83.5883 81.0026 86.9615 71.0996 85.0035 65.5483C80.6529 55.6442 69.7659 53.9029 63.9979 58.3606C63.2361 51.3953 63.7745 33.0056 78.0381 23.6422C81.7375 25.2752 87.7244 24.1872 88.4862 19.3977C93.8185 21.683 106.116 17.6564 108.62 11.78C127.666 11.1266 144.209 20.4867 153.134 37.0301C142.686 46.8247 141.162 64.0203 148.345 66.9646C148.195 69.0191 148.416 71.0839 148.999 73.0599C145.733 75.0168 133.543 83.5068 135.176 94.4988ZM144.753 105.818C131.366 96.0223 139.965 81.112 149.76 75.6702C151.121 78.4049 153.338 80.621 156.072 81.9821C155.865 82.6939 155.719 83.4223 155.637 84.1591C154.222 84.703 151.035 86.0512 148.345 87.3156C147.684 87.6261 147.256 88.513 147.692 89.057C148.781 90.471 153.242 87.8596 155.637 86.9895C156.287 93.2099 159.191 98.9776 163.799 103.206C158.467 105.385 150.303 109.191 144.753 105.818ZM164.779 145.106C149.215 144.672 142.468 146.413 142.25 143.474C142.138 141.842 143.447 140.209 146.93 138.358C155.963 138.247 160.97 139.556 164.888 140.863C164.55 141.515 164.364 142.237 164.345 142.972C164.326 143.707 164.474 144.437 164.779 145.106ZM199.933 144.994C191.333 144.994 181.431 145.43 169.35 145.106C164.882 144.994 167.608 139.556 171.309 138.686C178.6 137.053 196.775 140.535 202.436 144.018C202.14 144.384 201.753 144.667 201.314 144.839C200.875 145.011 200.399 145.065 199.933 144.998V144.994ZM172.506 135.961C171.636 135.961 172.618 125.186 170.547 125.296C168.152 125.296 170.547 135.418 169.785 136.288C169.241 137.049 167.5 137.921 166.629 138.682C160.589 136.537 154.21 135.505 147.801 135.634C147.366 128.887 146.386 118.433 147.69 109.624C147.907 109.624 148.017 109.735 148.233 109.735C152.805 113 160.967 114.091 165.865 114.203C172.396 132.162 186.652 121.931 202.542 113.659C202.325 124.433 200.91 131.073 202.654 141.194C192.98 137.731 182.781 135.962 172.506 135.965V135.961ZM206.136 107.12C201.674 112.78 190.355 117.242 185.893 118.984C185.307 112.176 183.186 105.59 179.689 99.7195C183.172 98.3043 188.396 96.8891 186.437 92.1007C186.321 91.7549 186.072 91.4691 185.746 91.3061C185.42 91.143 185.042 91.1159 184.696 91.2306C181.757 93.0803 188.717 94.0598 177.948 97.4342C177.332 96.7846 176.592 96.2661 175.771 95.9095C176.322 93.0362 175.941 90.0621 174.683 87.4206C182.084 89.3798 193.728 89.2714 199.062 83.9379C201.116 84.0873 203.158 83.5097 204.83 82.3061C208.313 86.7717 211.361 100.267 206.136 107.124V107.12Z" fill="#1E1D19"/>
<path d="M128.103 58.8011C128.256 58.6115 128.341 58.375 128.342 58.1308C128.342 57.8867 128.26 57.6496 128.107 57.4589C127.955 57.2683 127.742 57.1354 127.503 57.0825C127.265 57.0297 127.016 57.0598 126.797 57.1681C123.858 59.0189 123.967 60.2163 124.512 60.5425C125.382 61.1948 127.015 60.1069 128.103 58.8011Z" fill="#1E1D19"/>
<path d="M132.782 64.7871C133.038 64.8111 133.294 64.7435 133.504 64.5964C133.714 64.4493 133.866 64.2323 133.931 63.9841C133.996 63.7358 133.971 63.4724 133.861 63.2409C133.75 63.0093 133.56 62.8246 133.326 62.7196C131.093 62.3762 128.838 62.194 126.579 62.1746C125.707 62.1746 125.707 63.8076 126.69 64.1337C128.663 64.7258 130.729 64.9473 132.782 64.7871Z" fill="#1E1D19"/>
<path d="M129.843 90.1455C127.45 91.4512 126.143 93.6282 126.904 94.2782C127.558 94.8222 129.191 92.7547 131.149 91.6668C133 90.5811 131.912 89.0576 129.843 90.1455Z" fill="#1E1D19"/>
<path d="M115.042 40.9516C113.517 41.4955 114.28 44.7615 114.606 45.9578C115.042 47.373 117.11 47.1552 117.001 45.7411C116.892 44.4343 116.674 40.516 115.042 40.9516Z" fill="#1E1D19"/>
<path d="M81.8476 29.089C83.1534 28.1094 82.2832 27.2393 80.6502 28.0011C77.6683 29.7066 75.1323 32.0934 73.2493 34.9665C70.5284 38.9875 69.0048 43.567 70.2022 43.7826C70.4621 43.8399 70.7341 43.7917 70.9586 43.6487C71.1831 43.5057 71.3416 43.2795 71.3996 43.0197C73.3587 37.0339 76.4091 33.3346 81.8476 29.089Z" fill="#1E1D19"/>
<path d="M69.7667 46.6119C69.0049 46.5002 68.4609 48.1354 68.4609 49.8767C68.4609 51.4003 68.5726 53.1416 69.4405 53.0333C70.2023 52.9216 70.0928 52.3798 70.0928 49.9851C70.0928 48.0259 70.7462 46.7202 69.7667 46.6119Z" fill="#1E1D19"/>
<path d="M76.9501 44.6524C74.2292 50.0942 74.447 54.8826 76.1884 54.5565C76.8407 54.3387 76.5078 50.254 79.2366 44.9785C79.862 43.7678 77.6036 43.2372 76.9501 44.6524Z" fill="#1E1D19"/>
<path d="M81.7387 50.5302C81.0223 50.3656 80.278 50.3656 79.5617 50.5302C79.3885 50.5853 79.2335 50.6863 79.1132 50.8225C78.9929 50.9587 78.9117 51.125 78.8784 51.3036C78.845 51.4823 78.8608 51.6666 78.9238 51.8371C78.9869 52.0075 79.095 52.1576 79.2367 52.2715C79.899 52.6904 80.7591 52.4893 81.7387 52.4893C82.7182 52.3799 82.7182 50.7469 81.7387 50.5302Z" fill="#1E1D19"/>
<path d="M110.363 39.8641C109.565 40.3177 108.92 41 108.513 41.8232C107.751 42.8028 109.166 43.999 110.036 43.3467C110.762 42.8061 111.388 42.1431 111.887 41.3876C112.429 40.7342 111.449 39.2106 110.363 39.8641Z" fill="#1E1D19"/>
<path d="M85.1111 36.49C89.0294 32.6812 92.8383 31.4838 97.0827 30.3959C97.6267 30.2842 97.6267 29.5246 97.3061 28.9807C96.1087 27.4571 87.0759 30.5042 83.4837 34.9665C82.8258 36.0555 84.0232 37.5779 85.1111 36.49Z" fill="#1E1D19"/>
<path d="M89.6856 40.0817C89.9022 39.32 88.5965 38.7749 86.0934 38.8844C85.8376 38.9505 85.6138 39.106 85.4627 39.3228C85.3115 39.5396 85.2429 39.8032 85.2692 40.0662C85.2955 40.3291 85.415 40.574 85.6061 40.7565C85.7972 40.939 86.0473 41.0471 86.3112 41.0613C88.697 41.3394 89.4677 41.0613 89.6856 40.0817Z" fill="#1E1D19"/>
<path d="M95.8862 34.5308C95.4394 35.0669 95.2339 36.0554 95.9979 36.4899C96.868 36.9255 98.9366 34.8569 99.3711 34.4224C99.9162 33.769 100.025 33.0072 99.5889 32.5716C98.7166 31.8098 97.269 32.871 95.8862 34.5308Z" fill="#1E1D19"/>
<path d="M96.5385 97.3282C92.5118 91.6697 86.1988 85.465 84.5669 86.4446C84.0229 86.7718 84.2396 87.5336 84.6786 87.9692C88.9412 91.3656 92.6495 95.4044 95.6706 99.9408C98.2117 104.012 98.3915 106.253 99.2627 106.253C100.457 106.144 99.5855 101.573 96.5385 97.3282Z" fill="#1E1D19"/>
<path d="M112.973 49.8721C113.301 49.2197 112.767 48.5484 111.885 48.0212C110.379 47.121 109.6 47.3689 109.165 48.1329C108.837 48.8947 109.165 49.4398 110.58 50.0921C111.995 50.7444 112.647 50.6383 112.973 49.8721Z" fill="#1E1D19"/>
<path d="M135.832 48.4626C135.071 48.1354 134.716 48.5554 134.091 49.5506C133.413 50.6229 133.329 51.6181 134.091 51.9442C134.745 52.2715 135.506 51.6181 135.942 50.8563C136.593 49.6589 136.593 48.8971 135.832 48.4626Z" fill="#1E1D19"/>
<path d="M106.009 78.1736C106.88 79.915 108.838 84.4867 110.365 83.9416C111.779 83.1799 108.732 78.3914 107.861 77.0857C106.989 75.78 105.137 76.4323 106.009 78.1736Z" fill="#1E1D19"/>
<path d="M121.029 74.8003C121.573 74.8003 122.552 74.473 122.661 73.8207C122.987 72.8412 121.355 72.8412 118.528 72.6233C118.528 72.6233 119.696 68.7006 119.942 67.1815C120.138 65.9808 118.419 65.9841 117.875 67.1815C117.331 68.4872 116.242 72.4055 116.242 72.4055C109.277 72.1877 108.515 72.2938 108.732 73.3851C108.95 74.4764 109.712 74.473 115.589 74.6908C114.828 76.9761 112.651 82.7441 114.718 82.418C115.589 82.3063 117.331 77.3023 117.875 74.6908C118.924 74.7801 119.976 74.8166 121.029 74.8003Z" fill="#1E1D19"/>
<path d="M115.042 30.9396C114.89 30.921 114.736 30.9331 114.588 30.9751C114.441 31.0172 114.303 31.0884 114.184 31.1844C114.064 31.2805 113.965 31.3996 113.892 31.5346C113.82 31.6696 113.775 31.8178 113.76 31.9704C113.746 32.1231 113.762 32.2771 113.808 32.4235C113.854 32.5698 113.928 32.7054 114.028 32.8223C114.127 32.9393 114.249 33.0351 114.385 33.1043C114.522 33.1734 114.672 33.2145 114.825 33.2249C116.13 33.2294 116.345 31.0804 115.042 30.9396Z" fill="#1E1D19"/>
<path d="M99.804 108.973C99.26 109.085 98.9339 109.409 99.26 110.606C99.9134 113 98.8244 116.266 100.022 116.374C101.651 116.483 101.651 108.538 99.804 108.973Z" fill="#1E1D19"/>
<path d="M101.11 65.7663C100.217 64.6929 98.91 65.8891 99.5869 67.072C99.98 67.9047 100.493 68.675 101.11 69.3584C101.764 70.0107 103.505 69.4701 102.743 68.161C102.285 67.3076 101.737 66.5049 101.11 65.7663Z" fill="#1E1D19"/>
<path d="M114.609 63.3726C116.35 63.6987 116.568 61.8479 115.697 61.5218C113.354 60.9071 110.932 60.6503 108.513 60.76C102.745 60.76 102.419 61.1945 102.31 62.1741C102.198 63.3726 103.943 63.1536 106.666 63.0453C109.317 62.8531 111.982 62.9629 114.609 63.3726Z" fill="#1E1D19"/>
</svg>
