<svg width="195" height="179" viewBox="0 0 195 179" fill="none" xmlns="http://www.w3.org/2000/svg">
<path d="M87.574 97.0051C88.7395 91.975 87.1753 89.2146 80.6014 85.5136C76.0313 82.9474 77.8921 76.9665 72.7393 76.4553C68.0261 75.9952 65.143 80.6164 62.3212 77.4163C60.0515 74.8501 57.4956 73.9709 55.1646 74.8501C52.2814 75.9441 49.8686 77.7435 46.413 76.6188C42.9573 75.4942 39.9822 75.208 38.3668 78.2751C36.0051 82.8349 36.0051 82.5793 31.1591 82.5896C25.536 82.5896 29.421 90.2165 25.2804 94.4389C19.5142 100.348 15.8234 106.442 25.0043 110.092C25.0963 110.092 25.0964 95.6351 33.4288 88.2944C37.641 91.0037 43.857 92.3226 48.8258 86.6893C50.1447 92.1284 53.1198 95.5329 61.5749 92.9974C62.8129 95.3891 64.7438 97.3516 67.115 98.6284C69.4863 99.9053 72.1876 100.437 74.8658 100.154C74.5387 108.435 71.7169 118.782 79.4665 118.465C79.7221 119.538 79.8857 122.871 82.1758 123.72C86.5005 125.325 93.2687 121.583 89.4961 111.513C94.2502 99.1419 86.6845 100.829 87.574 97.0051Z" fill="#F6BD60"/>
<path d="M189.772 112.555C189.997 109.56 193.729 109.069 193.729 107.443C193.729 106.421 190.519 106.932 188.74 105.235C184.773 101.452 192.829 94.95 191.296 93.7231C189.466 92.2611 183.945 102.25 181.276 100.072C177.718 97.189 180.775 89.2758 179.058 88.9179C176.86 88.4783 178.823 97.6082 174.263 99.1418C168.527 101.125 165.982 90.1959 164.376 91.9033C163.119 93.2426 168.466 101.105 166.728 103.569C164.499 106.636 161.412 104.591 160.951 106.166C160.614 107.29 163.16 107.617 164.182 112.351C165.389 117.902 160.727 119.456 161.851 120.908C162.874 122.186 168.047 118.628 170.715 121.491C172.198 123.076 181.9 124.108 184.221 121.041C188.515 115.336 193.279 119.937 193.709 118.679C194.138 117.422 189.476 116.686 189.772 112.555Z" fill="#F6BD60"/>
<path d="M170.991 90.7173C171.4 93.7844 172.31 97.5877 173.517 97.5877C175.03 97.5877 173.302 93.4982 173.465 90.5435C173.557 88.9486 170.787 89.1224 170.991 90.7173Z" fill="#1E1D19"/>
<path d="M182.216 98.4058C183.003 99.0192 184.986 95.4205 185.702 93.754C186.336 92.2715 183.708 91.4127 183.35 92.977C182.839 95.2773 181.04 97.5061 182.216 98.4058Z" fill="#1E1D19"/>
<path d="M165.276 99.9391C164.254 98.6611 162.966 96.6573 161.586 97.5161C159.49 98.8349 163.395 100.89 164.407 101.708C165.419 102.526 166.881 101.912 165.276 99.9391Z" fill="#1E1D19"/>
<path d="M140.115 124.282C138.95 125.182 137.11 125.028 135.77 124.732C135.448 124.665 135.112 124.727 134.835 124.904C134.558 125.082 134.361 125.362 134.288 125.683C134.002 127.502 136.558 127.4 137.682 127.431C139.502 127.431 142.947 126.705 141.843 124.507C141.745 124.378 141.622 124.27 141.482 124.189C141.342 124.108 141.187 124.055 141.026 124.034C140.866 124.014 140.702 124.025 140.546 124.067C140.39 124.11 140.243 124.183 140.115 124.282Z" fill="#1E1D19"/>
<path d="M193.411 112.146C192.491 111.819 191.039 111.635 190.64 112.494C190.241 113.353 191.53 113.844 192.838 114.13C194.147 114.416 194.873 112.382 193.411 112.146Z" fill="#1E1D19"/>
<path d="M189.997 103.916C191.367 103.589 195.692 101.381 193.708 99.9188C192.318 98.8964 190.938 101.677 189.946 102.188C188.75 102.812 189.241 104.1 189.997 103.916Z" fill="#1E1D19"/>
<path d="M177.176 100.103C170.98 100.103 164.529 104.877 165.122 111.513C165.705 117.995 170.009 118.291 171.256 122.391C169.16 124.844 169.968 130.038 173.424 130.662C172.698 133.893 180.897 134.148 180.315 131.05C185.028 130.58 185.007 124.64 182.963 122.329C184.22 117.77 188.913 117.32 188.719 111.022C188.514 103.967 182.288 100.062 177.176 100.103ZM181.593 127.554C180.846 129.415 176.123 128.648 174.436 128.31C171.808 127.779 172.391 125.427 172.984 124.221H181.296C181.811 125.255 181.917 126.445 181.593 127.554ZM180.57 121.716H173.638C172.422 117.862 167.678 116.113 167.504 111.676C166.962 100.256 185.907 99.6326 186.285 111.022C186.316 116.481 181.572 116.788 180.57 121.716Z" fill="#1E1D19"/>
<path d="M183.004 112.269C182.202 111.24 181.636 110.046 181.348 108.773C180.929 107.413 180.561 106.196 179.303 106.237C176.86 106.319 177.31 113.332 176.747 113.394C176.185 113.455 176.011 109.56 174.508 109.55C172.699 109.55 172.157 112.075 171.441 112.034C169.632 111.952 169.1 114.14 170.95 114.508C171.572 114.655 172.227 114.555 172.776 114.229C173.325 113.903 173.727 113.376 173.895 112.76C175.04 117.872 179.17 118.107 179.651 111.605C180.009 112.535 180.551 113.384 181.246 114.099C182.381 115.183 184.139 113.363 183.004 112.269Z" fill="#1E1D19"/>
<path d="M44.5218 106.053C41.5365 106.799 40.2176 109.059 41.1173 109.795C42.3646 110.817 43.3461 109.048 44.941 108.619C47.9161 107.822 48.5909 109.151 49.5213 108.231C50.7481 107.014 48.9181 104.949 44.5218 106.053Z" fill="#1E1D19"/>
<path d="M132.294 119.477C131.057 118.455 129.922 120.724 131.21 121.706C133.102 123.147 143.97 123.474 143.755 120.101C143.591 117.596 135.218 121.89 132.294 119.477Z" fill="#1E1D19"/>
<path d="M116.949 44.0255C127.091 43.0031 122.736 26.5428 112.491 29.477C102.932 32.3908 106.255 45.1194 116.949 44.0255ZM118.37 41.4695C117.348 38.3206 115.927 36.0714 113.841 31.8694C119.893 30.7857 122.163 39.251 118.37 41.4695Z" fill="#1E1D19"/>
<path d="M96.6633 45.4464C101.305 45.4464 102.481 39.1587 98.3298 37.1753C98.1821 37.1008 98.0212 37.0561 97.8562 37.0438C97.6913 37.0315 97.5255 37.0517 97.3684 37.1035C97.2112 37.1552 97.0659 37.2374 96.9405 37.3453C96.8151 37.4533 96.7123 37.5848 96.6377 37.7325C96.5632 37.8802 96.5185 38.0411 96.5062 38.2061C96.4939 38.371 96.5142 38.5368 96.5659 38.6939C96.6176 38.8511 96.6998 38.9964 96.8078 39.1218C96.9157 39.2472 97.0473 39.35 97.1949 39.4246C99.1375 40.4469 98.5343 42.2668 97.3687 42.8393C96.2032 43.4118 95.0888 42.0112 94.4243 43.1562C93.6166 44.5365 95.4671 45.4566 96.6633 45.4464Z" fill="#1E1D19"/>
<path d="M97.349 61.0682C107.573 61.0682 114.995 54.0956 108.595 49.0859C104.792 46.0801 97.7887 51.9997 90.3457 48.5338C80.1935 43.7695 78.3737 61.0784 97.349 61.0682ZM87.7898 50.415C90.1515 50.9773 92.4927 52.378 97.0628 52.3473C102.44 52.3473 104.281 50.1696 106.653 51.1511C109.025 52.1326 108.074 54.8214 107 55.7211C101.214 60.5366 85.8779 58.9928 85.3054 52.5006C85.254 52.1781 85.287 51.8477 85.4012 51.5417C85.5155 51.2357 85.707 50.9645 85.9571 50.7545C86.2073 50.5445 86.5076 50.4028 86.8287 50.3433C87.1499 50.2838 87.481 50.3085 87.7898 50.415Z" fill="#1E1D19"/>
<path d="M47.7114 97.4752C45.3906 98.4363 43.857 102.853 45.8609 103.149C47.8647 103.446 46.9752 100.849 48.928 99.8472C50.8807 98.8452 52.3019 100.389 53.0175 98.9066C54.0092 97.0152 50.0935 96.5244 47.7114 97.4752Z" fill="#1E1D19"/>
<path d="M75.5208 42.7883C79.4672 44.6286 84.2724 42.911 86.0411 41.5001C89.8546 38.5352 88.8322 30.0699 83.2909 28.9658C73.7419 27.0641 68.4051 39.4247 75.5208 42.7883ZM77.034 32.4418C77.7138 31.9268 78.4912 31.5552 79.3189 31.3495C80.1467 31.1439 81.0076 31.1086 81.8494 31.2457C79.8046 33.5869 78.0461 37.5537 76.9215 40.6516C73.016 39.5474 74.8972 33.8425 77.034 32.4418Z" fill="#1E1D19"/>
<path d="M135.115 117.964C136.291 118.117 137.927 116.86 139.788 117.585C141.29 118.158 141.832 115.776 140.35 115.173C138.805 114.845 137.199 114.948 135.708 115.469C133.929 116.103 133.807 117.79 135.115 117.964Z" fill="#1E1D19"/>
<path d="M191.397 121.409C190.524 121.06 189.677 120.65 188.862 120.183C187.89 119.661 187.348 120.54 187.727 121.205C188.414 122.216 189.417 122.971 190.579 123.352C190.823 123.403 191.077 123.368 191.298 123.252C191.519 123.136 191.692 122.948 191.789 122.718C191.886 122.488 191.9 122.232 191.828 121.993C191.757 121.755 191.604 121.548 191.397 121.409Z" fill="#1E1D19"/>
<path d="M170.735 134.71C166.85 126.695 161.871 127.012 158.763 133.003C158.384 134.216 157.615 135.269 156.575 135.999C143.039 143.646 145.053 142.644 140.881 139.066C139.787 137.89 137.957 139.648 139.102 140.783C142.538 144.341 143.734 145.67 152.189 141.305C160.092 148.952 160.491 159.779 159.806 168.602C149.071 174.961 140.309 177.108 134.246 175.943C120.587 173.315 104.147 160.464 106.171 143.022C113.257 144.74 121.354 142.153 120.945 133.238C138.571 138.125 163.486 134.434 159.55 111.063C159.703 100.174 154.52 89.0917 142.814 86.6482C143.039 85.3396 144.153 81.8942 141.904 81.6795C141.576 81.698 141.27 81.8446 141.05 82.0876C140.83 82.3305 140.714 82.6504 140.728 82.9779C137.773 102.577 108.605 86.6176 117.295 123.934C123.204 144.045 108.155 144.259 96.4078 135.907C94.6974 134.608 93.3724 132.869 92.5746 130.875C91.7768 128.882 91.5362 126.709 91.8786 124.589C93.3187 122.926 94.1546 120.826 94.2505 118.628C94.4039 115.643 93.2282 113.568 93.2895 111.707C93.3508 109.846 95.7534 108.047 95.8046 104.213C95.7659 102.085 94.9177 100.052 93.4326 98.5283C101.612 87.9569 105.17 75.0135 130.78 76.496C145.983 71.1387 161.646 79.0417 166.563 90.2266C167.882 93.2119 168.956 91.5454 167.964 88.5294C166.011 82.5485 158.988 76.4755 150.584 73.8583C169.907 56.8049 192.317 48.5032 174.824 23.7003C181.357 18.7111 180.212 14.6011 178.168 11.3192C176.123 8.03741 171.594 6.52429 167.361 9.93904C164.038 12.6074 161.38 15.5212 158.64 18.0261C157.106 10.1231 148.161 10.4298 147.056 18.7622C128.746 27.9636 127.948 -2.49311 105.906 0.16508C102.931 0.533137 98.473 2.30185 96.0499 2.64946C93.6269 2.99707 89.9668 1.86223 85.8772 2.15872C63.2213 3.8252 67.73 28.5975 46.1578 24.784C45.1354 16.3596 35.2387 15.6439 34.3288 24.3955C29.6463 21.6146 23.8494 12.9755 17.5925 16.3903C11.5706 19.6823 11.4582 25.97 18.7375 31.5522C5.54882 53.5231 21.7433 61.2932 36.5985 72.6621C34.5537 74.2672 34.1141 76.2404 32.601 77.8967C29.9939 79.3689 26.2213 78.2238 23.7267 81.4545C21.1912 84.3479 23.0724 89.061 22.7555 92.1691C15.926 97.7206 13.8505 106.482 23.6041 111.022C23.7977 113.765 24.4258 116.46 25.4648 119.007C17.8889 119.896 8.08432 122.248 2.89063 129.23C-3.16186 137.236 0.620943 152.265 11.1515 156.099C16.0691 168.664 23.0111 173.418 38.3366 176.751C46.9859 178.57 63.8961 180.309 71.5741 174.706C87.738 164.932 98.0742 138.002 78.557 130.212C79.7564 129.014 80.7882 127.659 81.6241 126.184C82.7677 126.841 84.0584 127.199 85.3771 127.226C86.6958 127.253 88 126.947 89.1693 126.337C88.8524 134.189 96.2544 140.456 103.636 142.368C101.377 162.591 121.292 178.928 137.753 179C152.577 179.061 183.494 159.575 186.275 142.828C188.422 130.243 171.87 137.103 170.735 134.71ZM124.421 99.5609C126.956 98.5385 132.304 101.207 132.764 98.6714C132.958 97.649 131.67 97.3423 129.696 97.0561C134.236 95.1442 139.389 93.1301 141.781 88.9384C145.137 89.6295 148.245 91.2117 150.778 93.5186C147.527 93.5186 144.296 95.6247 146.157 96.4835C147.557 97.1276 149.336 95.5941 153.017 96.1257C153.283 96.5244 153.549 96.9232 153.794 97.3423C144.981 96.3199 141.904 100.266 142.548 106.278C143.233 112.79 148.835 115.715 157.014 111.39C160.736 132.972 136.761 135.211 120.74 130.488C120.311 126.122 119.176 121.471 118.624 116.962C122.652 117.882 129.686 116.696 131.353 114.089C135.964 106.871 131.118 99.019 121.62 101.544C122.473 100.776 123.413 100.111 124.421 99.5609ZM151.892 110.357C143.918 112.821 142.139 99.8165 150.359 99.8472C150.555 103.389 151.068 106.907 151.892 110.357ZM118.368 114.263C118.03 111.016 118.428 107.734 119.534 104.663C121.268 104.105 123.071 103.792 124.891 103.732C124.733 107.305 124.818 110.885 125.147 114.447C122.959 114.713 120.638 115.316 118.368 114.263ZM67.5869 40.2322C66.3498 40.2322 64.7958 30.7445 67.6891 27.0639C70.5824 23.3833 84.3948 22.044 84.589 23.23C84.7322 24.1195 71.2981 25.7962 69.3351 28.1783C66.8916 31.2454 68.6195 40.2424 67.5869 40.2322ZM90.6006 33.2902C91.623 41.7657 90.2224 43.0437 86.2964 43.7083C75.7455 45.5588 72.2898 44.9965 71.5026 41.4692C70.0201 34.8749 69.9281 31.4192 71.3185 29.6505C73.5167 26.8594 89.3022 23.0664 90.6006 33.2902ZM69.4169 43.0948C70.5824 46.162 73.5064 47.6444 77.3915 47.1844C87.6153 46.0495 95.7023 46.9288 93.1975 34.4353C96.1971 33.365 99.4944 33.4969 102.399 34.8033C101.377 42.4916 102.317 45.6508 108.339 46.8367C114.964 48.1352 124.176 50.9263 126.169 42.9619C131.884 72.4167 63.3235 72.7439 69.4169 43.0948ZM91.6741 28.1067C94.4322 27.576 96.8808 26.0058 98.5139 23.7207C99.6521 26.0725 101.618 27.9218 104.035 28.9144C103.459 29.9703 103.049 31.1081 102.818 32.2883C99.6532 31.0554 96.1629 30.9364 92.9214 31.9509C92.7313 30.607 92.3092 29.3063 91.6741 28.1067ZM124.39 31.0307C125.709 32.8506 125.464 36.3062 123.705 42.8495C122.775 46.3153 119.319 46.6834 108.922 44.4444C105.057 43.606 104.525 42.9415 105.088 33.8525C105.701 23.5265 122.254 28.1783 124.349 31.0307H124.39ZM114.167 24.2933C114.422 23.2709 119.503 23.6594 124.973 25.377C132.232 27.6569 129.441 40.5389 128.142 40.5389C127.212 40.5389 128.408 31.4601 126.619 29.2927C123.184 25.2952 113.829 25.3054 114.074 24.2933H114.167ZM147.67 72.8665C143.499 71.7624 139.409 71.9771 134.277 73.0608C133.541 67.8671 131.394 61.6408 129.707 62.1724C128.02 62.7041 131.424 66.7016 131.854 73.6844C131.496 73.7867 131.138 73.8787 130.831 73.9912C115.179 73.1528 107.122 77.5593 101.571 83.4482L99.0762 74.7988L101.121 73.7765C103.012 75.4736 104.188 75.7497 105.149 75.7292C108.983 75.3305 115.823 66.7834 110.138 68.7975C105.292 75.2487 103.544 73.6742 98.6468 67.223C110.394 66.9879 119.094 63.5833 124.206 58.1034C127.093 54.9507 128.732 50.8546 128.817 46.5811C133.132 43.238 139.235 38.4021 143.539 34.6193C143.938 40.3549 148.467 48.7793 151.238 50.9774C154.937 54.7487 159.574 57.4661 164.672 58.8497C160.041 62.7348 154.377 67.3764 147.578 72.8665H147.67ZM177.646 45.3236C175.049 49.679 170.602 48.8917 167.555 45.2112C169.14 43.9741 174.518 38.6781 173.137 37.5024C171.491 36.1017 168.598 40.6207 165.735 42.7063C160.869 34.4148 164.14 31.2454 172.78 25.1112C179.241 34.3944 180.386 40.5696 177.554 45.3236H177.646ZM146.126 32.3394C147.813 30.6934 148.856 29.4256 148.805 28.8326C149.51 24.4671 148.396 14.7749 153.068 14.6624C154.448 14.4886 155.552 16.0018 156.544 19.4063C157.127 20.9194 158.425 21.451 160.071 20.1322C164.059 16.881 173.546 4.52042 176.91 14.6727C177.779 17.3308 174.722 20.2549 171.082 23.2504C166.461 27.0332 161.881 29.4869 161.268 34.4966C160.388 42.0111 166.809 51.8771 174.109 50.3844C172.268 52.2349 169.937 54.3512 167.167 56.7641C158.722 56.58 145.175 44.0559 146.034 32.3394H146.126ZM58.6819 25.8779C70.5415 20.8376 69.284 3.53893 89.8543 4.75557C92.0074 5.02679 94.1765 5.14977 96.3464 5.12362C98.3445 4.67907 100.312 4.10534 102.235 3.40603C121.661 -2.21707 125.341 17.9954 136.996 22.4427C140.984 23.9763 146.198 21.2363 145.911 22.0236C145.042 24.7533 137.497 26.4709 133.091 24.6409C129.604 23.1891 126.599 21.1034 121.436 14.1717C118.532 10.2764 111.212 0.226423 99.1784 6.49361C96.3362 7.98629 96.5918 7.99651 93.3304 7.05592C86.3884 5.01116 79.1398 5.52235 72.3205 17.0957C63.1804 32.4621 48.0492 29.9981 47.8038 28.5157C47.5993 27.2582 51.8626 28.7713 58.6819 25.8779ZM18.8091 54.249C15.3534 48.9837 15.3023 42.7574 20.9152 32.779C30.0553 38.0443 33.6029 40.9172 29.6463 49.6483C27.53 48.2272 23.5836 43.013 22.3261 45.1396C21.4673 46.5914 27.3357 51.3966 28.4604 51.826C25.7919 55.6906 22.2238 57.6842 18.7784 54.249H18.8091ZM22.459 58.4919C29.2578 58.8497 35.1365 47.1639 33.4087 40.4469C31.3639 32.6666 11.6013 27.7387 15.9669 21.2159C21.181 13.4458 28.9102 23.7514 33.1735 26.655C37.6822 29.7221 36.5985 20.5922 39.635 20.5207C44.4708 20.4491 43.7245 28.2703 44.7469 32.1554C45.2581 33.4947 48.0696 36.2449 51.6275 39.1382C51.5512 45.3369 49.0522 51.2596 44.6651 55.6394C39.0113 61.3954 31.5377 63.8185 29.0431 63.9412C26.7348 62.254 24.5261 60.4346 22.4283 58.4919H22.459ZM31.9876 66.0779C36.2509 65.0556 42.5488 61.2114 46.4951 57.3775C49.3783 54.9544 53.8972 46.8061 54.2857 41.2137C58.2048 44.3452 62.3461 47.1881 66.6769 49.7199C66.6769 49.7199 67.5869 52.5723 67.9651 53.4924C71.5435 62.2542 82.2785 66.6403 94.4346 67.1923C88.515 73.2346 86.1022 76.0155 82.166 67.7649C82.0153 67.4736 81.7558 67.2534 81.4439 67.152C81.132 67.0506 80.7927 67.0761 80.4995 67.223C78.3116 68.6339 83.4031 75.0749 86.4498 75.7497C87.83 75.8621 89.5987 74.8397 91.3674 73.4391C92.032 73.7969 93.0544 74.3388 94.0358 74.8397L90.3655 86.3415C87.6255 83.4789 84.2312 85.1965 81.2663 79.0928C76.8803 70.0959 72.5863 72.8461 66.7178 72.2429C64.6117 72.0282 62.9146 70.3413 60.0519 69.462C61.5753 62.6836 64.5504 61.1296 63.252 60.3424C61.9535 59.5552 59.3874 63.2664 57.5675 69.1246C54.0301 69.1246 51.8524 71.3227 49.276 72.2736C46.2089 71.9975 42.3136 69.554 38.9091 71.3227C35.8624 68.9202 32.2738 66.3131 31.9569 66.0779H31.9876ZM25.2092 121.532C26.937 121.317 28.7466 121.276 30.5971 121.102C34.3902 120.755 35.9237 113.118 39.7986 115.837C41.465 116.788 40.9334 121.082 43.8881 120.509C49.5725 119.538 52.0671 119.988 52.8237 120.939C54.6231 123.26 54.7049 125.468 47.4664 126.991C45.2274 127.799 47.1699 130.283 48.9489 129.21C49.2954 130.283 49.505 131.396 49.5725 132.522C48.3171 132.928 47.0068 133.138 45.6875 133.146C45.3594 133.146 45.0447 133.276 44.8127 133.508C44.5807 133.74 44.4504 134.055 44.4504 134.383C44.7775 136.612 47.9469 135.303 49.4089 135.14C48.6319 140.814 42.2523 145.629 37.8663 146.447C27.4993 142.204 21.1197 131.091 25.1785 121.532H25.2092ZM51.9956 133.892C54.5374 134.476 57.1287 134.819 59.735 134.915C49.3885 142.48 55.0831 149.228 42.4465 147.398C47.5993 144.73 51.6786 139.822 51.9956 133.892ZM8.76931 150.251C8.78625 150.961 8.89976 151.666 9.1067 152.346C-4.66476 140.149 4.4242 123.618 22.2443 121.951C20.5369 126.93 21.9785 135.048 25.5977 140.538C24.053 140.633 22.6014 141.309 21.5339 142.429C20.4664 143.55 19.862 145.033 19.8417 146.58C13.779 143.462 9.3214 143.983 8.76931 150.261V150.251ZM21.273 167.058C22.6737 167.058 25.3625 168.081 25.6386 166.036C25.6386 165.708 25.5083 165.393 25.2763 165.161C25.0443 164.929 24.7296 164.799 24.4015 164.799C19.5452 165.075 16.5905 163.102 14.9343 158.603C16.1816 158.971 19.2385 161.026 20.0462 158.92C20.0825 158.762 20.0872 158.598 20.0601 158.438C20.033 158.277 19.9746 158.124 19.8882 157.986C19.8018 157.849 19.6891 157.729 19.5566 157.635C19.424 157.541 19.2743 157.474 19.1158 157.438C10.0371 155.342 10.1291 148.032 12.8793 147.316C14.2084 146.969 16.6723 147.817 22.4692 150.813C25.0661 152.152 24.3606 148.881 22.3363 147.879C22.8577 137.297 32.2943 146.56 37.0381 148.768C34.2879 153.941 32.693 166.077 36.1384 173.704C29.5645 172.14 24.8616 170.095 21.273 167.069V167.058ZM79.7532 133.32C94.0665 142.255 84.037 164.237 70.1121 172.722C63.3644 177.661 47.3335 176.045 39.3589 174.43C34.748 167.631 36.8643 153.675 39.4816 149.494C42.5488 149.361 50.37 151.876 52.7726 147.93C57.6186 137.246 68.9671 128.637 79.743 133.351L79.7532 133.32ZM74.7537 129.844C66.5134 129.578 59.6532 134.598 51.8729 131.275C51.7573 130.347 51.5624 129.43 51.2901 128.535C56.8314 126.889 57.4244 122.023 54.2959 118.955C52.3738 117.442 48.8875 117.136 43.6734 117.994C43.5826 117.545 43.4561 117.104 43.2951 116.676C43.9639 116.68 44.6209 116.499 45.193 116.152C45.7651 115.806 46.23 115.307 46.536 114.713C52.3534 118.679 56.9745 112.995 53.5393 111.717C52.4147 111.298 52.6192 113.312 50.646 113.568C47.5789 113.956 47.7629 110.388 45.6363 110.582C44.0005 110.725 45.2887 113.7 42.3443 114.201C41.2401 112.606 36.1589 110.173 31.5377 117.759C30.6994 118.976 29.493 118.547 28.0719 118.731C25.5466 113.557 25.3319 106.278 27.1006 100.174C34.7582 108.681 47.0779 102.107 43.8881 91.2285C45.3949 90.741 46.7864 89.9513 47.9776 88.9077C48.2834 90.2924 48.9282 91.5795 49.854 92.6536C50.7799 93.7277 51.9579 94.5552 53.2823 95.0619C54.6068 95.5686 56.0363 95.7386 57.4426 95.5567C58.849 95.3748 60.1882 94.8466 61.3401 94.0196C61.6004 94.7839 61.9432 95.5175 62.3625 96.2075C57.8231 96.4222 54.3266 104.387 56.034 107.791C59.0398 112.76 67.8731 114.61 72.5863 112.361C72.801 117.064 74.7742 119.416 78.5366 119.62C78.4657 121.317 78.919 122.995 79.835 124.425C78.833 126.163 76.8701 128.832 74.7537 129.874V129.844ZM28.8591 98.4363C32.9486 97.4139 38.5104 95.8088 41.9558 93.488C42.4363 101.524 34.1346 104.335 28.8591 98.4363ZM72.1467 101.923C72.6744 101.954 73.2036 101.954 73.7314 101.923C73.4962 105.286 73.4962 110.633 69.0284 110.817C65.9613 110.94 60.8494 109.703 58.8046 107.474C62.7408 106.493 68.6808 104.274 72.1467 101.923ZM81.0721 119.569C84.5482 118.465 85.4274 112.075 83.4031 111.748C83.2413 111.728 83.0773 111.741 82.9207 111.786C82.7642 111.832 82.6185 111.908 82.4924 112.011C82.3663 112.115 82.2624 112.242 82.1869 112.387C82.1115 112.531 82.0661 112.689 82.0535 112.852C81.7366 116.113 79.8554 117.575 77.1666 116.86C74.0279 116.021 74.9991 106.257 76.3282 101.657C77.8004 101.156 81.7162 100.093 80.5302 97.9251C80.4281 97.7971 80.3013 97.6909 80.1575 97.6127C80.0137 97.5344 79.8556 97.4858 79.6927 97.4696C79.5298 97.4534 79.3653 97.47 79.2088 97.5184C79.0524 97.5667 78.9073 97.6459 78.7819 97.7513C74.8458 101.135 67.8322 98.3852 65.7466 96.4938C62.2398 93.3244 64.3152 88.3147 62.0558 87.9978C60.2564 87.7626 60.696 90.1959 60.788 91.4841C55.809 95.3896 50.1655 91.9339 50.3086 86.0859C50.3086 84.675 51.1265 82.5587 49.8792 82.344C48.6319 82.1293 48.5297 84.1638 47.9265 85.4112C45.1763 91.024 35.5455 91.024 33.6949 84.7364C33.0406 82.5178 30.3006 84.8182 31.6502 86.7811C26.458 92.762 23.5593 100.393 23.4711 108.312C19.0749 105.051 18.7886 103.047 19.4839 100.379C20.404 96.8005 24.105 95.3998 25.0456 93.0586C26.068 90.4924 23.7063 85.3498 25.5977 83.0597C27.8163 80.3708 32.2329 82.252 34.3186 79.6756C36.0669 77.5184 37.4675 74.942 39.6554 73.8174C40.6122 73.3271 41.679 73.0913 42.7533 73.1324C43.8276 73.1736 44.8732 73.4905 45.7897 74.0525C50.6358 76.6187 53.5087 70.9854 58.3957 71.6499C61.381 72.0384 63.4258 74.349 65.4296 74.717C71.8911 75.8008 75.3058 71.6499 78.9966 80.2175C82.8305 89.1428 89.9054 84.2047 89.4351 93.3448C88.9955 101.963 96.7042 101.34 92.032 108.394C91.0096 109.928 89.9872 111.206 91.1016 113.813C95.8455 125.202 81.4912 128.699 81.0721 119.569ZM183.893 142.061C180.631 144.321 174.875 144.566 174.814 144.566C174.486 144.566 174.171 144.696 173.939 144.928C173.707 145.16 173.577 145.475 173.577 145.803C173.577 146.131 173.707 146.446 173.939 146.678C174.171 146.91 174.486 147.04 174.814 147.04C177.69 146.904 180.524 146.289 183.198 145.22C183.198 149.627 176.297 151.61 173.822 151.794C173.494 151.808 173.185 151.951 172.963 152.193C172.74 152.434 172.623 152.754 172.636 153.083C172.65 153.411 172.793 153.72 173.035 153.942C173.276 154.165 173.597 154.282 173.925 154.268C175.582 154.08 177.198 153.624 178.709 152.919C174.026 158.427 168.506 163.164 162.351 166.956C162.76 160.433 162.638 148.553 154.418 140.027C161.861 136.704 160.296 131.848 163.537 131.101C165.357 130.682 166.277 131.735 168.424 135.722C171.266 141.243 184.874 132.655 183.893 142.082V142.061Z" fill="#1E1D19"/>
<path d="M135.217 111.778C136.945 112.801 137.508 108.599 139.808 110.828C140.933 111.932 141.853 111.38 142.057 110.828C142.364 109.754 140.912 107.638 138.407 107.628C136.782 107.576 133.438 110.664 135.217 111.778Z" fill="#1E1D19"/>
</svg>
