<svg width="428" height="526" viewBox="0 0 428 526" fill="none" xmlns="http://www.w3.org/2000/svg">
<path d="M427.35 50.9326V234.611C427.35 234.611 418.68 336.727 376.58 379.324C346.325 409.937 278.757 430.095 278.757 430.095C278.682 430.106 270.036 431.357 257.314 432.666C257.395 450.14 257.798 492.618 257.587 526H189.294C188.765 497.47 187.869 465.476 187.039 434.858C177.714 434.067 169.481 432.58 163.472 430.095C133.506 417.699 65.359 385.112 32.5037 353.938C-0.351486 322.765 -2.09728 261.398 1.13651 234.611L10.9988 74.377L52.0681 23.4453L106.72 97.8223L163.472 7.92285L218.124 74.377L270.996 7.92285L327.588 74.377L417.487 0L427.35 50.9326Z" fill="#000"/>
</svg>
