<svg width="216" height="48" viewBox="0 0 216 48" fill="none" xmlns="http://www.w3.org/2000/svg">
<path fill-rule="evenodd" clip-rule="evenodd" d="M66.7093 40.4288L64.7564 33.9276H52.1735L50.2336 40.4288H43.4834L54.8342 7.18896H61.9645L73.4071 40.4288H66.7093ZM58.4911 13.1658L53.8381 28.4619H63.1048L58.4911 13.1658Z" fill="#111111"/>
<path d="M74.9277 40.4288V7.18896H80.7211V40.4288H74.9277Z" fill="#111111"/>
<path d="M84.7578 40.4288V7.18896H90.5512V40.4288H84.7578Z" fill="#111111"/>
<path d="M118.246 37.8335C114.209 41.2282 108.796 41.2676 107.276 41.2676C105.27 41.2676 98.8609 41.1758 94.2079 36.3261C93.6443 35.7232 93.0282 34.9106 92.5957 34.1635L97.8648 30.5328C99.3459 32.7086 102.098 35.5266 108.272 35.5266C108.56 35.5266 109.74 35.5266 110.736 35.2907C111.457 35.1596 114.734 34.2552 114.734 31.1488C114.734 30.8211 114.681 29.9298 114.118 29.1696C112.964 27.6623 109.937 27.2429 108.272 26.8628L104.287 25.9715C102.57 25.5914 100.722 25.2113 99.2017 24.4117C97.6289 23.6122 94.4045 21.5019 94.4045 16.6916C94.4045 15.9445 94.4962 13.7818 95.689 11.8026C97.1963 9.25982 100.853 6.33691 107.656 6.33691C110.644 6.33691 116.529 6.80877 121.196 13.074L116.018 16.8751C114.97 15.2367 112.597 11.9468 107.315 11.9468C106.987 11.9468 102.754 11.8944 101.378 14.4765C101.102 15.0008 101.011 15.4726 101.011 15.9838C101.011 16.5474 101.142 17.0324 101.43 17.4911C102.243 18.8674 104.091 19.2868 107.184 19.9422L110.644 20.7024C113.829 21.4102 117.342 22.3408 119.57 24.936C120.527 25.9715 121.523 27.4788 121.523 30.5328C121.523 33.5474 120.566 35.8543 118.246 37.8335Z" fill="#111111"/>
<path d="M124.236 13.2052V7.18896H129.886V13.2052H124.236ZM124.236 40.4288V16.8752H129.886V40.4288H124.236Z" fill="#111111"/>
<path fill-rule="evenodd" clip-rule="evenodd" d="M149.835 40.4288V38.1612C149.586 38.3972 149.403 38.6855 149.167 38.9214C148.262 39.7734 146.309 41.1366 143.229 41.1366C142.429 41.1366 140.712 41.0448 138.812 40.1404C136.243 38.9608 132.678 35.9068 132.678 29.1304C132.678 21.9214 136.623 18.199 139.336 16.98C140.096 16.6523 141.473 16.1805 143.465 16.1805C144.278 16.1805 145.982 16.2198 147.79 17.216C148.118 17.3995 148.406 17.5436 148.97 17.9631C149.402 18.2907 149.73 18.7233 149.835 18.815V7.18896H155.484V40.4288H149.835ZM148.734 23.9006C148.459 23.3763 147.934 22.7734 147.502 22.4457C146.558 21.6855 145.51 21.4103 144.317 21.4103C143.845 21.4103 142.613 21.502 141.42 22.2491C138.72 23.9924 138.615 27.8066 138.615 28.5143C138.615 32.0009 140.096 35.9985 144.278 35.9985C145.798 35.9985 146.978 35.5267 147.974 34.3995C149.455 32.8004 149.835 30.8736 149.783 28.7503C149.783 27.243 149.547 25.3162 148.734 23.9006Z" fill="#111111"/>
<path fill-rule="evenodd" clip-rule="evenodd" d="M179.85 37.5973C178.526 38.8294 175.341 41.1362 170.439 41.1362C168.919 41.1362 165.17 40.9396 161.946 37.9774C159.232 35.4346 158.236 32.184 158.236 28.514C158.236 26.5348 158.525 24.6474 159.285 22.8648C160.333 20.5055 163.269 16.1802 170.164 16.1802C175.472 16.1802 178.277 18.9065 179.522 20.7022C180.61 22.3405 181.698 25.211 181.842 29.7854H164.266C164.37 30.4932 164.606 31.9481 165.786 33.3637C166.599 34.3467 168.027 35.6181 170.963 35.6181C173.913 35.6181 175.616 34.255 176.377 33.4554C176.573 33.2719 176.862 32.8918 177.189 32.3806L182.039 35.1594C181.659 35.6706 180.99 36.5618 179.85 37.5973ZM175.105 23.7037C174.581 22.5765 173.336 20.7022 170.256 20.7022C169.024 20.7022 168.355 20.9381 167.883 21.1216C165.222 22.2095 164.606 24.844 164.462 25.6436H175.577C175.485 24.8833 175.328 24.2411 175.105 23.7037Z" fill="#111111"/>
<path d="M203.601 36.2866C202.46 38.4493 199.511 41.1362 193.718 41.1362C189.261 41.1362 186.076 39.6289 184.595 38.7245C183.796 38.2133 183.035 37.5973 182.314 36.8895L186.587 33.4554C186.784 33.6914 187.072 34.1108 187.688 34.6351C189.733 36.3783 192.774 36.4701 193.429 36.4701C194.858 36.4701 196.523 36.1424 197.466 35.0545C197.846 34.6875 198.082 34.1632 198.082 33.6914C198.082 33.5079 198.043 33.1278 197.702 32.7083C197.086 31.8564 196.326 31.8039 194.57 31.4369C193.01 31.0961 191.437 30.9126 189.917 30.5325C188.868 30.2573 183.363 28.9335 183.363 23.8479C183.363 22.0653 184.123 20.7415 184.451 20.2303C185.644 18.3953 188.449 16.1802 193.574 16.1802C195.422 16.1802 200.232 16.4554 203.784 20.558L199.747 24.2804C199.275 23.2843 198.659 22.7207 198.279 22.393C196.811 21.1216 195.238 20.7022 193.298 20.7022C193.062 20.7022 191.437 20.7022 190.402 21.4099C189.537 21.9735 189.353 22.7207 189.353 23.1401C189.392 23.9396 189.969 24.5163 190.113 24.6081C190.729 25.0799 192.302 25.4469 194.19 25.7877C195.474 26.0237 196.759 26.2072 198.043 26.4824C199.328 26.7708 200.743 27.1902 201.792 27.9504C202.644 28.5665 204.4 30.2049 204.4 33.0753C204.4 34.2157 204.125 35.2904 203.601 36.2866Z" fill="#111111"/>
<path d="M208.922 16.3774V15.6172H203.731V16.3774H205.855V21.6334H206.812V16.3774H208.922ZM216 15.6172H214.492L212.893 20.7814L211.294 15.6172H209.735V21.6334H210.704V18.6843C210.704 17.9896 210.704 17.1769 210.678 16.5347C210.849 17.1769 211.098 17.9896 211.32 18.6581L212.304 21.6334H213.418L214.401 18.6712C214.624 17.9896 214.886 17.1638 215.056 16.5347C215.043 17.1638 215.043 17.9896 215.043 18.6843V21.6334H216V15.6172Z" fill="#111111"/>
<path d="M18.3175 19.2996L8.25119 8.02739C7.07154 6.70356 5.62975 6.97881 5.06614 8.65653L0.229593 22.8385C-0.334016 24.5162 0.177164 26.9673 1.35681 28.3042L3.66367 30.8863L8.48712 43.9542C8.84101 44.911 9.20801 44.8586 9.31287 43.8493L9.94201 37.9118L11.4231 39.5633C12.6028 40.8871 14.0446 40.6118 14.6082 38.9341L19.4447 24.7522C20.0083 23.0744 19.5103 20.6234 18.3175 19.2996Z" fill="#111111"/>
<path d="M41.0978 18.9068L26.3129 21.9476C24.5696 22.3015 22.6691 23.953 22.1055 25.6307L17.282 39.8258C16.7053 41.4904 17.6752 42.5652 19.4054 42.2113L24.9497 41.071L33.3645 46.8644C33.8495 47.1921 34.2296 46.9823 34.1903 46.4056L33.8626 39.2491L34.2034 39.1836C35.9466 38.8166 37.8341 37.1651 38.4108 35.4873L43.2342 21.3054C43.811 19.6277 42.8541 18.5529 41.0978 18.9068Z" fill="#111111"/>
<path d="M41.5568 13.1133L39.3417 10.6229L40.102 2.68C40.1675 2.10328 39.7612 1.81492 39.2238 2.03775L33.7319 4.35772L31.4905 1.84114C30.3109 0.517313 27.9123 -0.269118 26.169 0.0847758L11.371 3.11253C9.62775 3.47954 9.169 4.85579 10.3618 6.17962L20.4281 17.4518C21.6077 18.7756 24.0063 19.5752 25.7496 19.2082L40.5345 16.1804C42.2909 15.8265 42.7365 14.4371 41.5568 13.1133Z" fill="#111111"/>
</svg>
