<svg width="249" height="38" viewBox="0 0 249 38" fill="none" xmlns="http://www.w3.org/2000/svg">
<path fill-rule="evenodd" clip-rule="evenodd" d="M28.3345 0L28.3336 15.3424C28.3134 24.5831 27.8063 30.8624 15.1302 37.2036L14.1672 37.6865L13.2018 37.2036C0.528072 30.8552 0.0211229 24.5825 0.000844915 15.3423L0 0H28.3345ZM24.0337 4.29081H4.30081L4.30112 15.0195C4.31045 23.6125 4.60914 27.8386 14.1672 32.873C23.5807 27.9198 24.0197 23.749 24.0337 15.4427L24.0337 4.29081ZM150.371 3.69675C156.845 3.69675 160.217 6.43893 161.957 10.5919L154.878 12.5159C154.34 10.1382 152.801 8.92575 150.252 8.92575C146.604 8.92575 143.812 11.7076 143.812 17.4746V17.8515C143.812 23.6582 146.118 26.445 150.334 26.445C153.934 26.445 155.964 24.0598 156.287 21.3573H150.697V16.0267H162.443V31.0294H157.296L156.772 23.8031L156.711 24.1498C155.846 28.632 152.807 31.5476 148.187 31.5476C140.857 31.555 136.646 25.7855 136.646 17.8515C136.646 9.30261 141.666 3.69675 150.371 3.69675ZM72.1204 10.2175C78.6392 10.2175 81.6347 14.3308 81.6347 20.0953L81.6345 20.2865C81.6337 20.7945 81.6285 22.0529 81.5948 22.1557H68.3978C68.6792 25.4632 70.3898 26.9161 72.8923 26.9161C74.7548 26.9161 76.4555 26.1053 77.3469 24.6127L80.9947 27.4368C79.2119 29.8988 76.4181 31.5128 72.205 31.5128C66.0074 31.5128 61.874 27.9624 61.874 20.9829C61.874 14.0407 66.0049 10.2175 72.1204 10.2175ZM125.733 10.3415C130.025 10.3415 132.254 11.7919 133.79 13.6886L130.304 16.9936C129.739 16.0267 128.442 14.5738 126.338 14.5738C124.799 14.5738 123.907 15.2605 123.907 16.1878C123.907 17.7201 125.934 18.2854 128.686 19.2127C131.4 20.1375 134.034 21.4689 134.034 25.2252C134.034 28.6516 130.874 31.4732 125.284 31.4732C121.607 31.4732 118.275 30.0996 116.532 27.6004L119.973 24.3326C121.026 25.783 122.525 27.1144 124.876 27.1144C126.25 27.1144 127.224 26.4723 127.224 25.4607C127.224 23.9731 124.876 23.2813 121.958 22.2375C119.488 21.3896 117.227 19.6961 117.227 16.473C117.227 13.3663 120.215 10.3415 125.733 10.3415ZM199.095 10.272C205.253 10.272 207.927 13.0936 207.927 18.0151V24.4937C207.927 28.6888 208.455 30.5459 209.1 31.0294H202.646C202.188 30.6252 201.755 29.6161 201.635 27.0252C200.662 30.2137 197.948 31.4633 195.273 31.4633C191.304 31.4633 189.048 29.2045 189.048 25.9392C189.048 22.0664 192.328 20.5317 196.742 19.6441C199.658 19.0416 201.316 18.7193 201.603 18.3548V17.8515C201.603 16.1581 200.794 14.9481 198.443 14.9481C196.475 14.9021 194.684 16.0742 193.946 17.8912L189.215 15.2705C190.709 12.2952 194.399 10.272 199.095 10.272ZM173.1 10.7828V22.3962C173.1 25.4235 173.71 26.269 175.411 26.269C177.315 26.269 178.69 24.0375 178.69 21.2284V10.7828H185.376V31.0294H179.223V28.5302L179.387 25.5053H179.031C178.705 27.883 176.962 31.4335 172.833 31.4335C168.705 31.4335 166.626 29.1723 166.626 23.4474V10.7828H173.1ZM249 1.62895V31.0294H242.885L243.049 26.0706L243.131 25.2599L242.967 25.5078C242.399 28.855 239.979 31.3938 236.204 31.3938C231.747 31.3914 228.47 27.8062 228.47 20.8267C228.47 13.4456 232.205 10.1382 236.732 10.1382C240.332 10.1382 242.115 12.4365 242.685 14.5341H242.967L242.561 10.22V1.62895H249ZM226.269 10.4134V17.8515H224.775C220.442 17.8515 219.227 19.5871 219.227 24.102V31.0442H212.504L212.499 10.7828H218.373V14.1324L218.009 20.0606H218.373C218.871 14.6952 220.761 10.4134 225.746 10.4134H226.269ZM41.6452 4.28932L49.2198 16.8721L52.3771 23.1623L51.7721 16.1159V4.28932H58.1315V31.0294H52.0559L43.0247 16.7903L40.0367 11.0233L40.836 17.3556V31.0269H34.5587V4.28932H41.6452ZM90.1978 10.7828L91.8187 20.9482L92.5085 26.4797H92.7898L93.7634 20.9482L96.1538 10.7828H103.32L105.387 20.9482L106.278 26.5566H106.602L107.292 20.9482L109.074 10.7828H115.394L109.966 31.0294H102.187L100.16 21.3871L99.351 15.3399H99.0671L98.2156 21.3871L95.9073 31.0294H88.6191L83.3129 10.7828H90.1978ZM201.595 20.4449C201.097 20.9259 200.301 21.2929 199.08 21.6846C196.857 22.3689 195.438 23.2962 195.438 24.9921C195.438 26.5219 196.488 27.293 197.748 27.293C199.407 27.3202 201.349 26.3508 201.595 23.926V20.4449ZM239.127 14.4523C236.981 14.4523 235.392 16.3068 235.392 20.4226C235.392 24.4937 236.483 26.9533 238.953 26.9533C241.47 26.9533 242.775 24.1317 242.775 21.1069V19.535C242.775 16.8721 241.884 14.4523 239.127 14.4523ZM72.0382 14.4002C69.9341 14.4126 68.597 15.6201 68.475 18.8432H75.2378V18.5953C75.2378 16.0143 74.4286 14.4002 72.0382 14.4002Z" fill="#111111"/>
</svg>
